<?xml version="1.0" encoding="utf-8"?>
<!-- Generator: Adobe Illustrator 15.0.0, SVG Export Plug-In . SVG Version: 6.00 Build 0)  -->
<!DOCTYPE svg PUBLIC "-//W3C//DTD SVG 1.1//EN" "http://www.w3.org/Graphics/SVG/1.1/DTD/svg11.dtd">
<svg version="1.1" xmlns="http://www.w3.org/2000/svg" xmlns:xlink="http://www.w3.org/1999/xlink" x="0px" y="0px" width="2000px"
	 height="800px" viewBox="0 0 2000 800" enable-background="new 0 0 2000 800" xml:space="preserve">
<g id="Layer_1" display="none">
	<rect display="inline" fill="#D95338" width="2000" height="800"/>
</g>
<g id="Layer_6" display="none">
	<rect display="inline" fill="#F6F6F6" width="2000" height="800"/>
</g>
<g id="Layer_4">
	
		<linearGradient id="SVGID_1_" gradientUnits="userSpaceOnUse" x1="137.3154" y1="551.0527" x2="603.9824" y2="551.0527" gradientTransform="matrix(-0.486 -0.4857 0.7881 -0.7887 585.4706 1111.9637)">
		<stop  offset="0" style="stop-color:#000000;stop-opacity:0"/>
		<stop  offset="0.1401" style="stop-color:#000000;stop-opacity:0.1401"/>
		<stop  offset="1" style="stop-color:#000000"/>
	</linearGradient>
	<polygon opacity="0.1" fill="url(#SVGID_1_)" points="1099.571,463.981 872.749,237.334 579.591,530.72 806.413,757.366 	"/>
</g>
<g id="Layer_5">
	<g>
		<rect x="903.668" y="298.667" fill="none" width="722.667" height="161.333"/>
		<path fill="#D95338" d="M936.879,355.88c0,9.971-2.111,17.679-6.333,23.125c-4.223,5.447-9.971,8.169-17.244,8.169
			c-3.371,0-6.156-0.497-8.356-1.49v-10.378c2.2,1.597,4.967,2.395,8.303,2.395c8.657,0,12.986-7.273,12.986-21.821V303.35h10.645
			V355.88z"/>
		<path fill="#D95338" d="M1004.738,385.792h-10.485v-9.261h-0.213c-3.938,7.097-9.988,10.645-18.149,10.645
			c-13.944,0-20.917-8.338-20.917-25.015v-35.233H965.3v33.69c0,11.958,4.577,17.936,13.731,17.936c4.542,0,8.214-1.676,11.017-5.03
			c2.803-3.353,4.205-7.584,4.205-12.693v-33.903h10.485V385.792z"/>
		<path fill="#D95338" d="M1073.076,385.792h-10.379v-33.477c0-12.099-4.417-18.149-13.252-18.149
			c-4.577,0-8.339,1.703-11.283,5.109c-2.945,3.406-4.418,7.717-4.418,12.933v33.583h-10.432v-58.864h10.432v9.74h0.213
			c4.436-7.416,10.875-11.124,19.32-11.124c6.457,0,11.371,2.067,14.742,6.201c3.371,4.134,5.057,10.157,5.057,18.069V385.792z"/>
		<path fill="#D95338" d="M1089.203,306.17c0-1.845,0.629-3.397,1.889-4.657c1.26-1.259,2.812-1.89,4.657-1.89
			c1.88,0,3.468,0.621,4.764,1.863c1.295,1.242,1.942,2.803,1.942,4.684c0,1.845-0.647,3.379-1.942,4.604
			c-1.296,1.224-2.884,1.836-4.764,1.836c-1.881,0-3.442-0.612-4.684-1.836C1089.823,309.55,1089.203,308.016,1089.203,306.17z
			 M1090.427,385.792v-58.864h10.432v58.864H1090.427z"/>
		<path fill="#D95338" d="M1115.547,356.998c0-9.722,2.715-17.395,8.144-23.019c5.429-5.624,12.791-8.436,22.087-8.436
			c8.836,0,15.763,2.706,20.784,8.117c5.021,5.411,7.53,12.889,7.53,22.433c0,9.296-2.679,16.801-8.036,22.513
			c-5.358,5.713-12.543,8.569-21.556,8.569c-8.8,0-15.825-2.768-21.076-8.303S1115.547,366.046,1115.547,356.998z M1126.191,356.679
			c0,6.777,1.712,12.117,5.137,16.02c3.424,3.903,8.027,5.854,13.811,5.854c5.961,0,10.503-1.907,13.625-5.721
			c3.122-3.814,4.684-9.288,4.684-16.419c0-7.167-1.562-12.667-4.684-16.499s-7.664-5.748-13.625-5.748
			c-5.854,0-10.476,2.005-13.864,6.014C1127.886,344.189,1126.191,349.689,1126.191,356.679z"/>
		<path fill="#D95338" d="M1220.343,337.252c-1.739-1.242-4.134-1.863-7.185-1.863c-4.045,0-7.381,1.89-10.006,5.668
			c-2.627,3.779-3.939,8.755-3.939,14.929v29.805h-10.432v-58.864h10.432v11.975h0.213c2.98-8.657,8.125-12.986,15.436-12.986
			c2.376,0,4.204,0.266,5.481,0.798V337.252z"/>
		<path fill="#D95338" d="M1282.561,312.344h-7.931v64.453h7.931v8.995h-26.506v-8.995h7.931v-64.453h-7.931v-8.995h26.506V312.344z
			"/>
		<path fill="#D95338" d="M1345.842,312.823h-23.791v72.968h-10.697v-72.968h-23.684v-9.474h58.172V312.823z"/>
		<path fill="#D95338" d="M1414.445,385.792h-11.762l-8.409-22.566h-34.329l-7.93,22.566h-11.762l31.4-82.442h11.391
			L1414.445,385.792z M1390.975,353.911l-12.454-34.275c-0.391-1.1-0.816-3.016-1.277-5.748h-0.267
			c-0.391,2.484-0.834,4.4-1.33,5.748l-12.348,34.275H1390.975z"/>
		<path fill="#D95338" d="M1426.368,385.792V303.35h23.524c12.489,0,22.877,3.637,31.162,10.911
			c8.284,7.274,12.428,17.031,12.428,29.272c0,12.773-4.144,23.01-12.428,30.709c-8.285,7.7-18.957,11.549-32.014,11.549H1426.368z
			 M1437.013,312.823v63.548h11.976c10.466,0,18.636-2.856,24.509-8.569c5.872-5.712,8.808-13.713,8.808-24.003
			c0-10.29-3.016-18.024-9.047-23.205c-6.033-5.18-13.963-7.771-23.791-7.771H1437.013z"/>
		<path opacity="0.38" d="M963.961,412.41l-12.715,45.381h-6.826l-9.141-32.695c-0.41-1.484-0.655-3.047-0.732-4.688h-0.117
			c-0.117,1.621-0.391,3.164-0.82,4.629l-9.229,32.754h-6.768l-13.154-45.381h6.475l9.258,34.277
			c0.41,1.543,0.654,3.096,0.732,4.658h0.176c0.098-1.172,0.42-2.725,0.967-4.658l9.814-34.277h5.771l9.375,34.541
			c0.312,1.133,0.566,2.578,0.762,4.336h0.117c0.098-1.27,0.381-2.754,0.85-4.453l8.906-34.424H963.961z"/>
		<path opacity="0.38" d="M968.209,427.645c3.223-2.012,6.943-3.018,11.162-3.018c7.812,0,11.719,4.102,11.719,12.305v20.859h-5.684
			v-5.01h-0.146c-2.246,3.848-5.557,5.771-9.932,5.771c-3.145,0-5.645-0.85-7.5-2.549c-1.856-1.699-2.783-3.994-2.783-6.885
			c0-6.055,3.584-9.58,10.752-10.576l9.609-1.348c0-5.293-2.188-7.939-6.563-7.939c-3.887,0-7.432,1.309-10.635,3.926V427.645z
			 M977.819,442.557c-2.656,0.352-4.487,1.016-5.493,1.992c-1.006,0.977-1.509,2.344-1.509,4.102c0,1.543,0.546,2.803,1.641,3.779
			c1.094,0.977,2.539,1.465,4.336,1.465c2.5,0,4.56-0.879,6.182-2.637c1.621-1.758,2.432-3.965,2.432-6.621v-3.105L977.819,442.557z
			"/>
		<path opacity="0.38" d="M1017.984,431.072c-0.957-0.684-2.275-1.025-3.955-1.025c-2.227,0-4.063,1.04-5.508,3.12
			s-2.168,4.819-2.168,8.218v16.406h-5.742v-32.402h5.742v6.592h0.117c1.641-4.766,4.473-7.148,8.496-7.148
			c1.309,0,2.314,0.146,3.018,0.439V431.072z"/>
		<path opacity="0.38" d="M1022.145,450.789c2.891,2.09,6.006,3.135,9.346,3.135c4.473,0,6.709-1.465,6.709-4.395
			c0-1.25-0.488-2.28-1.465-3.091s-2.959-1.772-5.947-2.886c-3.594-1.445-5.928-2.876-7.002-4.292s-1.611-3.13-1.611-5.142
			c0-2.871,1.216-5.171,3.647-6.899s5.425-2.593,8.979-2.593c2.754,0,5.313,0.479,7.676,1.436v5.537
			c-2.422-1.563-5.166-2.344-8.232-2.344c-1.836,0-3.33,0.4-4.482,1.201s-1.729,1.855-1.729,3.164c0,1.289,0.415,2.295,1.245,3.018
			s2.671,1.65,5.522,2.783c3.613,1.348,6.055,2.744,7.324,4.189s1.904,3.232,1.904,5.361c0,2.969-1.216,5.308-3.647,7.017
			s-5.581,2.563-9.448,2.563c-3.359,0-6.289-0.635-8.789-1.904V450.789z"/>
		<path opacity="0.38" d="M1074.527,457.791h-26.895v-1.904l18.838-25.752h-17.08v-4.746h25.254v1.875l-18.721,25.781h18.604
			V457.791z"/>
		<path opacity="0.38" d="M1081.998,427.645c3.223-2.012,6.943-3.018,11.162-3.018c7.813,0,11.719,4.102,11.719,12.305v20.859
			h-5.684v-5.01h-0.146c-2.246,3.848-5.557,5.771-9.932,5.771c-3.145,0-5.645-0.85-7.5-2.549s-2.783-3.994-2.783-6.885
			c0-6.055,3.584-9.58,10.752-10.576l9.609-1.348c0-5.293-2.188-7.939-6.563-7.939c-3.887,0-7.432,1.309-10.635,3.926V427.645z
			 M1091.607,442.557c-2.656,0.352-4.487,1.016-5.493,1.992s-1.509,2.344-1.509,4.102c0,1.543,0.547,2.803,1.641,3.779
			s2.539,1.465,4.336,1.465c2.5,0,4.561-0.879,6.182-2.637s2.432-3.965,2.432-6.621v-3.105L1091.607,442.557z"/>
		<path opacity="0.38" d="M1155.914,425.389l-9.668,32.402h-5.977l-6.445-22.734c-0.273-0.977-0.449-2.012-0.527-3.105h-0.117
			c-0.059,0.82-0.283,1.836-0.674,3.047l-6.973,22.793h-5.801l-9.727-32.402h5.977l6.475,24.023
			c0.195,0.723,0.342,1.709,0.439,2.959h0.234c0.078-1.074,0.264-2.09,0.557-3.047l6.973-23.936h5.303l6.797,24.053
			c0.195,0.703,0.352,1.699,0.469,2.988h0.264c0.039-0.859,0.215-1.855,0.527-2.988l6.328-24.053H1155.914z"/>
		<path opacity="0.38" d="M1162.535,427.645c3.223-2.012,6.943-3.018,11.162-3.018c7.813,0,11.719,4.102,11.719,12.305v20.859
			h-5.684v-5.01h-0.146c-2.246,3.848-5.557,5.771-9.932,5.771c-3.145,0-5.645-0.85-7.5-2.549s-2.783-3.994-2.783-6.885
			c0-6.055,3.584-9.58,10.752-10.576l9.609-1.348c0-5.293-2.188-7.939-6.563-7.939c-3.887,0-7.432,1.309-10.635,3.926V427.645z
			 M1172.145,442.557c-2.656,0.352-4.487,1.016-5.493,1.992s-1.509,2.344-1.509,4.102c0,1.543,0.547,2.803,1.641,3.779
			s2.539,1.465,4.336,1.465c2.5,0,4.561-0.879,6.182-2.637s2.432-3.965,2.432-6.621v-3.105L1172.145,442.557z"/>
		<path opacity="0.38" d="M1232.555,424.305c0-2.441-0.771-4.36-2.314-5.757s-3.643-2.095-6.299-2.095
			c-1.875,0-3.77,0.479-5.684,1.436s-3.701,2.324-5.361,4.102v-5.566c1.484-1.543,3.169-2.725,5.054-3.545s4.097-1.23,6.636-1.23
			c4.102,0,7.402,1.099,9.902,3.296s3.75,5.171,3.75,8.921c0,3.34-0.767,6.23-2.3,8.672s-4.155,4.941-7.866,7.5
			c-3.789,2.617-6.323,4.492-7.603,5.625s-2.173,2.217-2.681,3.252s-0.762,2.295-0.762,3.779h22.559v5.098h-28.535v-2.256
			c0-2.617,0.356-4.839,1.069-6.665s1.89-3.604,3.53-5.332s4.199-3.804,7.676-6.226c3.555-2.5,5.981-4.692,7.28-6.577
			S1232.555,426.707,1232.555,424.305z"/>
		<path opacity="0.38" d="M1245.387,435.994c0-8.008,1.328-14.067,3.984-18.179s6.504-6.167,11.543-6.167
			c9.609,0,14.414,7.754,14.414,23.262c0,7.656-1.353,13.511-4.058,17.563s-6.499,6.079-11.382,6.079
			c-4.609,0-8.179-1.924-10.708-5.771S1245.387,443.338,1245.387,435.994z M1251.246,435.73c0,12.051,3.057,18.076,9.17,18.076
			c6.016,0,9.023-6.123,9.023-18.369c0-12.676-2.949-19.014-8.848-19.014C1254.361,416.424,1251.246,422.859,1251.246,435.73z"/>
		<path opacity="0.38" d="M1294.635,457.791v-38.818c-0.898,0.898-2.417,1.904-4.556,3.018s-4.116,1.895-5.933,2.344v-5.625
			c2.402-0.664,4.971-1.724,7.705-3.179s4.834-2.827,6.299-4.116h2.168v46.377H1294.635z"/>
		<path opacity="0.38" d="M1344,443.787c0,4.434-1.47,8.008-4.409,10.723s-6.89,4.072-11.851,4.072
			c-4.258,0-7.432-0.635-9.521-1.904v-5.859c3.066,1.992,6.191,2.988,9.375,2.988c3.164,0,5.718-0.874,7.661-2.622
			s2.915-4.067,2.915-6.958s-1.011-5.142-3.032-6.753s-4.878-2.417-8.569-2.417c-2.852,0-5.42,0.127-7.705,0.381l1.67-23.027h21.211
			v5.039h-16.377l-0.938,12.861l4.131-0.176c4.805,0,8.579,1.196,11.323,3.589S1344,439.471,1344,443.787z"/>
	</g>
</g>
<g id="Layer_3">
	<rect x="578.334" y="237.334" fill="#F6F6F6" width="293.333" height="293.333"/>
	<g id="Layer_2">
		<g>
			<defs>
				<rect id="SVGID_2_" x="578.334" y="237.334" width="293.333" height="293.333"/>
			</defs>
			<clipPath id="SVGID_3_">
				<use xlink:href="#SVGID_2_"  overflow="visible"/>
			</clipPath>
			<g opacity="0.2" clip-path="url(#SVGID_3_)">
				<g>
					<path d="M767.969,412.576c0,26.832-5.682,47.576-17.044,62.232c-11.364,14.658-26.833,21.984-46.406,21.984
						c-9.072,0-16.567-1.338-22.486-4.01v-27.93c5.919,4.297,13.367,6.445,22.344,6.445c23.297,0,34.947-19.572,34.947-58.723
						V271.208h28.646V412.576z"/>
				</g>
				<path d="M768.678,413.285c0,26.832-5.682,47.576-17.044,62.232c-11.364,14.658-26.833,21.984-46.406,21.984
					c-9.072,0-16.567-1.338-22.486-4.01v-27.93c5.919,4.297,13.367,6.445,22.344,6.445c23.297,0,34.947-19.572,34.947-58.723
					V271.917h28.646V413.285z"/>
				<path d="M769.386,413.992c0,26.834-5.682,47.576-17.044,62.232c-11.364,14.66-26.833,21.986-46.406,21.986
					c-9.072,0-16.567-1.338-22.486-4.01v-27.93c5.919,4.297,13.367,6.445,22.344,6.445c23.297,0,34.947-19.574,34.947-58.725
					V272.625h28.646V413.992z"/>
				<path d="M770.095,414.701c0,26.834-5.682,47.576-17.044,62.232c-11.364,14.66-26.833,21.986-46.406,21.986
					c-9.072,0-16.567-1.338-22.486-4.01v-27.93c5.919,4.297,13.367,6.445,22.344,6.445c23.297,0,34.947-19.574,34.947-58.725
					V273.334h28.646V414.701z"/>
				<path d="M770.803,415.41c0,26.832-5.682,47.576-17.044,62.232c-11.364,14.658-26.833,21.984-46.406,21.984
					c-9.072,0-16.567-1.338-22.486-4.01v-27.93c5.919,4.297,13.367,6.445,22.344,6.445c23.297,0,34.947-19.572,34.947-58.723
					V274.042h28.646V415.41z"/>
				<path d="M771.512,416.119c0,26.832-5.682,47.576-17.044,62.232c-11.364,14.658-26.833,21.984-46.406,21.984
					c-9.072,0-16.567-1.338-22.486-4.01v-27.93c5.919,4.297,13.367,6.445,22.344,6.445c23.297,0,34.947-19.572,34.947-58.723
					V274.751h28.646V416.119z"/>
				<path d="M772.221,416.826c0,26.834-5.683,47.578-17.044,62.234c-11.365,14.658-26.834,21.984-46.406,21.984
					c-9.073,0-16.568-1.338-22.487-4.01v-27.93c5.919,4.297,13.367,6.445,22.344,6.445c23.297,0,34.948-19.574,34.948-58.725
					V275.459h28.646V416.826z"/>
				<path d="M772.929,417.535c0,26.834-5.682,47.576-17.044,62.232c-11.364,14.66-26.833,21.986-46.406,21.986
					c-9.072,0-16.567-1.338-22.486-4.01v-27.93c5.919,4.297,13.367,6.445,22.344,6.445c23.297,0,34.947-19.574,34.947-58.725
					V276.168h28.646V417.535z"/>
				<path d="M773.638,418.244c0,26.834-5.682,47.576-17.044,62.232c-11.364,14.66-26.833,21.986-46.406,21.986
					c-9.072,0-16.567-1.338-22.486-4.01v-27.93c5.919,4.297,13.367,6.445,22.344,6.445c23.297,0,34.947-19.574,34.947-58.725
					V276.877h28.646V418.244z"/>
				<path d="M774.346,418.953c0,26.832-5.682,47.576-17.044,62.232c-11.364,14.658-26.833,21.984-46.406,21.984
					c-9.072,0-16.567-1.338-22.486-4.01v-27.93c5.919,4.297,13.367,6.445,22.344,6.445c23.297,0,34.947-19.572,34.947-58.723
					V277.585h28.646V418.953z"/>
				<path d="M775.055,419.662c0,26.832-5.682,47.576-17.044,62.232c-11.364,14.658-26.833,21.984-46.406,21.984
					c-9.072,0-16.567-1.338-22.486-4.01v-27.93c5.919,4.297,13.367,6.445,22.344,6.445c23.297,0,34.947-19.572,34.947-58.723
					V278.294h28.646V419.662z"/>
				<path d="M775.763,420.369c0,26.834-5.682,47.576-17.044,62.232c-11.364,14.66-26.833,21.986-46.406,21.986
					c-9.072,0-16.567-1.338-22.486-4.01v-27.93c5.919,4.297,13.367,6.445,22.344,6.445c23.297,0,34.947-19.574,34.947-58.725
					V279.002h28.646V420.369z"/>
				<path d="M776.472,421.078c0,26.834-5.682,47.576-17.044,62.232c-11.364,14.66-26.833,21.986-46.406,21.986
					c-9.072,0-16.567-1.338-22.486-4.01v-27.93c5.919,4.297,13.367,6.445,22.344,6.445c23.297,0,34.947-19.574,34.947-58.725
					V279.711h28.646V421.078z"/>
				<path d="M777.18,421.787c0,26.832-5.682,47.576-17.044,62.232c-11.364,14.658-26.833,21.984-46.406,21.984
					c-9.072,0-16.567-1.338-22.486-4.01v-27.93c5.919,4.297,13.367,6.445,22.344,6.445c23.297,0,34.947-19.572,34.947-58.723
					V280.419h28.646V421.787z"/>
				<path d="M777.889,422.496c0,26.832-5.682,47.576-17.044,62.232c-11.364,14.658-26.833,21.984-46.406,21.984
					c-9.072,0-16.567-1.338-22.486-4.01v-27.93c5.919,4.297,13.367,6.445,22.344,6.445c23.297,0,34.947-19.572,34.947-58.723
					V281.128h28.646V422.496z"/>
				<path d="M778.597,423.203c0,26.834-5.682,47.576-17.044,62.232c-11.364,14.66-26.833,21.986-46.406,21.986
					c-9.072,0-16.567-1.338-22.486-4.01v-27.93c5.919,4.297,13.367,6.445,22.344,6.445c23.297,0,34.947-19.574,34.947-58.725
					V281.836h28.646V423.203z"/>
				<path d="M779.306,423.912c0,26.834-5.682,47.576-17.044,62.232c-11.364,14.66-26.833,21.986-46.406,21.986
					c-9.072,0-16.567-1.338-22.486-4.01v-27.93c5.919,4.297,13.367,6.445,22.344,6.445c23.297,0,34.947-19.574,34.947-58.725
					V282.545h28.646V423.912z"/>
				<path d="M780.014,424.621c0,26.832-5.682,47.576-17.044,62.232c-11.364,14.658-26.833,21.984-46.406,21.984
					c-9.072,0-16.567-1.338-22.486-4.01v-27.93c5.919,4.297,13.367,6.445,22.344,6.445c23.297,0,34.947-19.572,34.947-58.723
					V283.253h28.646V424.621z"/>
				<path d="M780.723,425.33c0,26.832-5.682,47.576-17.044,62.232c-11.364,14.658-26.833,21.984-46.406,21.984
					c-9.072,0-16.567-1.338-22.486-4.01v-27.93c5.919,4.297,13.367,6.445,22.344,6.445c23.297,0,34.947-19.572,34.947-58.723
					V283.962h28.646V425.33z"/>
				<path d="M781.432,426.037c0,26.834-5.683,47.578-17.044,62.234c-11.365,14.658-26.834,21.984-46.406,21.984
					c-9.073,0-16.568-1.338-22.487-4.01v-27.93c5.919,4.297,13.367,6.445,22.344,6.445c23.297,0,34.948-19.574,34.948-58.725V284.67
					h28.646V426.037z"/>
				<path d="M782.14,426.746c0,26.834-5.682,47.576-17.044,62.232c-11.364,14.66-26.833,21.986-46.406,21.986
					c-9.072,0-16.567-1.338-22.486-4.01v-27.93c5.919,4.297,13.367,6.445,22.344,6.445c23.297,0,34.947-19.574,34.947-58.725
					V285.379h28.646V426.746z"/>
				<path d="M782.849,427.455c0,26.834-5.682,47.576-17.044,62.232c-11.364,14.66-26.833,21.986-46.406,21.986
					c-9.072,0-16.567-1.338-22.486-4.01v-27.93c5.919,4.297,13.367,6.445,22.344,6.445c23.297,0,34.947-19.574,34.947-58.725
					V286.088h28.646V427.455z"/>
				<path d="M783.557,428.164c0,26.832-5.682,47.576-17.044,62.232c-11.364,14.658-26.833,21.984-46.406,21.984
					c-9.072,0-16.567-1.338-22.486-4.01v-27.93c5.919,4.297,13.367,6.445,22.344,6.445c23.297,0,34.947-19.572,34.947-58.723
					V286.796h28.646V428.164z"/>
				<path d="M784.266,428.873c0,26.832-5.682,47.576-17.044,62.232c-11.364,14.658-26.833,21.984-46.406,21.984
					c-9.072,0-16.567-1.338-22.486-4.01v-27.93c5.919,4.297,13.367,6.445,22.344,6.445c23.297,0,34.947-19.572,34.947-58.723
					V287.505h28.646V428.873z"/>
				<path d="M784.974,429.58c0,26.834-5.682,47.576-17.044,62.232c-11.364,14.66-26.833,21.986-46.406,21.986
					c-9.072,0-16.567-1.338-22.486-4.01v-27.93c5.919,4.297,13.367,6.445,22.344,6.445c23.297,0,34.947-19.574,34.947-58.725
					V288.213h28.646V429.58z"/>
				<path d="M785.683,430.289c0,26.834-5.682,47.576-17.044,62.232c-11.364,14.66-26.833,21.986-46.406,21.986
					c-9.072,0-16.567-1.338-22.486-4.01v-27.93c5.919,4.297,13.367,6.445,22.344,6.445c23.297,0,34.947-19.574,34.947-58.725
					V288.922h28.646V430.289z"/>
				<path d="M786.391,430.998c0,26.832-5.682,47.576-17.044,62.232c-11.364,14.658-26.833,21.984-46.406,21.984
					c-9.072,0-16.567-1.338-22.486-4.01v-27.93c5.919,4.297,13.367,6.445,22.344,6.445c23.297,0,34.947-19.572,34.947-58.723V289.63
					h28.646V430.998z"/>
				<path d="M787.1,431.707c0,26.832-5.682,47.576-17.044,62.232c-11.364,14.658-26.833,21.984-46.406,21.984
					c-9.072,0-16.567-1.338-22.486-4.01v-27.93c5.919,4.297,13.367,6.445,22.344,6.445c23.297,0,34.947-19.572,34.947-58.723
					V290.339H787.1V431.707z"/>
				<path d="M787.808,432.414c0,26.834-5.682,47.576-17.044,62.232c-11.364,14.66-26.833,21.986-46.406,21.986
					c-9.072,0-16.567-1.338-22.486-4.01v-27.93c5.919,4.297,13.367,6.445,22.344,6.445c23.297,0,34.947-19.574,34.947-58.725
					V291.047h28.646V432.414z"/>
				<path d="M788.517,433.123c0,26.834-5.682,47.576-17.044,62.232c-11.364,14.66-26.833,21.986-46.406,21.986
					c-9.072,0-16.567-1.338-22.486-4.01v-27.93c5.919,4.297,13.367,6.445,22.344,6.445c23.297,0,34.947-19.574,34.947-58.725
					V291.756h28.646V433.123z"/>
				<path d="M789.226,433.832c0,26.832-5.683,47.576-17.044,62.232c-11.365,14.658-26.834,21.986-46.406,21.986
					c-9.073,0-16.568-1.34-22.487-4.012v-27.93c5.919,4.297,13.367,6.445,22.344,6.445c23.297,0,34.948-19.572,34.948-58.723
					V292.464h28.646V433.832z"/>
				<path d="M789.934,434.541c0,26.832-5.682,47.576-17.044,62.232c-11.364,14.658-26.833,21.984-46.406,21.984
					c-9.072,0-16.567-1.338-22.486-4.01v-27.93c5.919,4.297,13.367,6.445,22.344,6.445c23.297,0,34.947-19.572,34.947-58.723
					V293.173h28.646V434.541z"/>
				<path d="M790.643,435.248c0,26.834-5.683,47.578-17.044,62.234c-11.365,14.658-26.834,21.984-46.406,21.984
					c-9.073,0-16.568-1.338-22.487-4.01v-27.93c5.919,4.297,13.367,6.445,22.344,6.445c23.297,0,34.948-19.574,34.948-58.725
					V293.881h28.646V435.248z"/>
				<path d="M791.351,435.957c0,26.834-5.682,47.576-17.044,62.232c-11.364,14.66-26.833,21.986-46.406,21.986
					c-9.072,0-16.567-1.338-22.486-4.01v-27.93c5.919,4.297,13.367,6.445,22.344,6.445c23.297,0,34.947-19.574,34.947-58.725V294.59
					h28.646V435.957z"/>
				<path d="M792.06,436.666c0,26.834-5.682,47.576-17.044,62.232c-11.364,14.66-26.833,21.986-46.406,21.986
					c-9.072,0-16.567-1.338-22.486-4.01v-27.93c5.919,4.297,13.367,6.445,22.344,6.445c23.297,0,34.947-19.574,34.947-58.725
					V295.299h28.646V436.666z"/>
				<path d="M792.768,437.375c0,26.832-5.682,47.576-17.044,62.232c-11.364,14.658-26.833,21.984-46.406,21.984
					c-9.072,0-16.567-1.338-22.486-4.01v-27.93c5.919,4.297,13.367,6.445,22.344,6.445c23.297,0,34.947-19.572,34.947-58.723
					V296.007h28.646V437.375z"/>
				<path d="M793.477,438.084c0,26.832-5.682,47.576-17.044,62.232c-11.364,14.658-26.833,21.984-46.406,21.984
					c-9.072,0-16.567-1.338-22.486-4.01v-27.93c5.919,4.297,13.367,6.445,22.344,6.445c23.297,0,34.947-19.572,34.947-58.723
					V296.716h28.646V438.084z"/>
				<path d="M794.185,438.791c0,26.834-5.682,47.576-17.044,62.232c-11.364,14.66-26.833,21.986-46.406,21.986
					c-9.072,0-16.567-1.338-22.486-4.01v-27.93c5.919,4.297,13.367,6.445,22.344,6.445c23.297,0,34.947-19.574,34.947-58.725
					V297.424h28.646V438.791z"/>
				<path d="M794.894,439.5c0,26.834-5.682,47.576-17.044,62.232c-11.364,14.66-26.833,21.986-46.406,21.986
					c-9.072,0-16.567-1.338-22.486-4.01v-27.93c5.919,4.297,13.367,6.445,22.344,6.445c23.297,0,34.947-19.574,34.947-58.725
					V298.133h28.646V439.5z"/>
				<path d="M795.602,440.209c0,26.832-5.682,47.576-17.044,62.232c-11.364,14.658-26.833,21.984-46.406,21.984
					c-9.072,0-16.567-1.338-22.486-4.01v-27.93c5.919,4.297,13.367,6.445,22.344,6.445c23.297,0,34.947-19.572,34.947-58.723
					V298.841h28.646V440.209z"/>
				<path d="M796.311,440.918c0,26.832-5.682,47.576-17.044,62.232c-11.364,14.658-26.833,21.984-46.406,21.984
					c-9.072,0-16.567-1.338-22.486-4.01v-27.93c5.919,4.297,13.367,6.445,22.344,6.445c23.297,0,34.947-19.572,34.947-58.723V299.55
					h28.646V440.918z"/>
				<path d="M797.019,441.625c0,26.834-5.682,47.576-17.044,62.232c-11.364,14.66-26.833,21.986-46.406,21.986
					c-9.072,0-16.567-1.338-22.486-4.01v-27.93c5.919,4.297,13.367,6.445,22.344,6.445c23.297,0,34.947-19.574,34.947-58.725
					V300.258h28.646V441.625z"/>
				<path d="M797.728,442.334c0,26.834-5.682,47.576-17.044,62.232c-11.364,14.66-26.833,21.986-46.406,21.986
					c-9.072,0-16.567-1.338-22.486-4.01v-27.93c5.919,4.297,13.367,6.445,22.344,6.445c23.297,0,34.947-19.574,34.947-58.725
					V300.967h28.646V442.334z"/>
				<path d="M798.437,443.043c0,26.832-5.683,47.576-17.044,62.232c-11.365,14.658-26.834,21.986-46.406,21.986
					c-9.073,0-16.568-1.34-22.487-4.012v-27.93c5.919,4.297,13.367,6.445,22.344,6.445c23.297,0,34.948-19.572,34.948-58.723
					V301.675h28.646V443.043z"/>
				<path d="M799.145,443.752c0,26.832-5.682,47.576-17.044,62.232c-11.364,14.658-26.833,21.984-46.406,21.984
					c-9.072,0-16.567-1.338-22.486-4.01v-27.93c5.919,4.297,13.367,6.445,22.344,6.445c23.297,0,34.947-19.572,34.947-58.723
					V302.384h28.646V443.752z"/>
				<path d="M799.854,444.459c0,26.834-5.683,47.578-17.044,62.234c-11.365,14.658-26.834,21.984-46.406,21.984
					c-9.073,0-16.568-1.338-22.487-4.01v-27.93c5.919,4.297,13.367,6.445,22.344,6.445c23.297,0,34.948-19.574,34.948-58.725
					V303.092h28.646V444.459z"/>
				<path d="M800.562,445.168c0,26.834-5.682,47.576-17.044,62.232c-11.364,14.66-26.833,21.986-46.406,21.986
					c-9.072,0-16.567-1.338-22.486-4.01v-27.93c5.919,4.297,13.367,6.445,22.344,6.445c23.297,0,34.947-19.574,34.947-58.725
					V303.801h28.646V445.168z"/>
				<path d="M801.271,445.877c0,26.832-5.683,47.576-17.044,62.232c-11.365,14.658-26.834,21.986-46.406,21.986
					c-9.073,0-16.568-1.34-22.487-4.012v-27.93c5.919,4.297,13.367,6.445,22.344,6.445c23.297,0,34.948-19.572,34.948-58.723
					V304.509h28.646V445.877z"/>
				<path d="M801.979,446.586c0,26.832-5.682,47.576-17.044,62.232c-11.364,14.658-26.833,21.984-46.406,21.984
					c-9.072,0-16.567-1.338-22.486-4.01v-27.93c5.919,4.297,13.367,6.445,22.344,6.445c23.297,0,34.947-19.572,34.947-58.723
					V305.218h28.646V446.586z"/>
				<path d="M802.688,447.295c0,26.832-5.682,47.576-17.044,62.232c-11.364,14.658-26.833,21.984-46.406,21.984
					c-9.072,0-16.567-1.338-22.486-4.01v-27.93c5.919,4.297,13.367,6.445,22.344,6.445c23.297,0,34.947-19.572,34.947-58.723
					V305.927h28.646V447.295z"/>
				<path d="M803.396,448.002c0,26.834-5.682,47.576-17.044,62.232c-11.364,14.66-26.833,21.986-46.406,21.986
					c-9.072,0-16.567-1.338-22.486-4.01v-27.93c5.919,4.297,13.367,6.445,22.344,6.445c23.297,0,34.947-19.574,34.947-58.725
					V306.635h28.646V448.002z"/>
				<path d="M804.104,448.711c0,26.834-5.682,47.576-17.044,62.232c-11.364,14.66-26.833,21.986-46.406,21.986
					c-9.072,0-16.567-1.338-22.486-4.01v-27.93c5.919,4.297,13.367,6.445,22.344,6.445c23.297,0,34.947-19.574,34.947-58.725
					V307.344h28.646V448.711z"/>
				<path d="M804.813,449.42c0,26.832-5.682,47.576-17.044,62.232c-11.364,14.658-26.833,21.984-46.406,21.984
					c-9.072,0-16.567-1.338-22.486-4.01v-27.93c5.919,4.297,13.367,6.445,22.344,6.445c23.297,0,34.947-19.572,34.947-58.723
					V308.052h28.646V449.42z"/>
				<path d="M805.521,450.129c0,26.832-5.682,47.576-17.044,62.232c-11.364,14.658-26.833,21.984-46.406,21.984
					c-9.072,0-16.567-1.338-22.486-4.01v-27.93c5.919,4.297,13.367,6.445,22.344,6.445c23.297,0,34.947-19.572,34.947-58.723
					V308.761h28.646V450.129z"/>
				<path d="M806.229,450.836c0,26.834-5.682,47.576-17.044,62.232c-11.364,14.66-26.833,21.986-46.406,21.986
					c-9.072,0-16.567-1.338-22.486-4.01v-27.93c5.919,4.297,13.367,6.445,22.344,6.445c23.297,0,34.947-19.574,34.947-58.725
					V309.469h28.646V450.836z"/>
				<path d="M806.938,451.545c0,26.834-5.682,47.576-17.044,62.232c-11.364,14.66-26.833,21.986-46.406,21.986
					c-9.072,0-16.567-1.338-22.486-4.01v-27.93c5.919,4.297,13.367,6.445,22.344,6.445c23.297,0,34.947-19.574,34.947-58.725
					V310.178h28.646V451.545z"/>
				<path d="M807.647,452.254c0,26.832-5.683,47.576-17.044,62.232c-11.365,14.658-26.834,21.986-46.406,21.986
					c-9.073,0-16.568-1.34-22.487-4.012v-27.93c5.919,4.297,13.367,6.445,22.344,6.445c23.297,0,34.948-19.572,34.948-58.723
					V310.886h28.646V452.254z"/>
				<path d="M808.355,452.963c0,26.832-5.682,47.576-17.044,62.232c-11.364,14.658-26.833,21.984-46.406,21.984
					c-9.072,0-16.567-1.338-22.486-4.01v-27.93c5.919,4.297,13.367,6.445,22.344,6.445c23.297,0,34.947-19.572,34.947-58.723
					V311.595h28.646V452.963z"/>
				<path d="M809.064,453.67c0,26.834-5.683,47.578-17.044,62.234c-11.365,14.658-26.834,21.984-46.406,21.984
					c-9.073,0-16.568-1.338-22.487-4.01v-27.93c5.919,4.297,13.367,6.445,22.344,6.445c23.297,0,34.948-19.574,34.948-58.725
					V312.303h28.646V453.67z"/>
				<path d="M809.772,454.379c0,26.834-5.682,47.576-17.044,62.232c-11.364,14.66-26.833,21.986-46.406,21.986
					c-9.072,0-16.567-1.338-22.486-4.01v-27.93c5.919,4.297,13.367,6.445,22.344,6.445c23.297,0,34.947-19.574,34.947-58.725
					V313.012h28.646V454.379z"/>
				<path d="M810.481,455.088c0,26.832-5.683,47.576-17.044,62.232c-11.365,14.658-26.834,21.986-46.406,21.986
					c-9.073,0-16.568-1.34-22.487-4.012v-27.93c5.919,4.297,13.367,6.445,22.344,6.445c23.297,0,34.948-19.572,34.948-58.723V313.72
					h28.646V455.088z"/>
				<path d="M811.189,455.797c0,26.832-5.682,47.576-17.044,62.232c-11.364,14.658-26.833,21.984-46.406,21.984
					c-9.072,0-16.567-1.338-22.486-4.01v-27.93c5.919,4.297,13.367,6.445,22.344,6.445c23.297,0,34.947-19.572,34.947-58.723
					V314.429h28.646V455.797z"/>
				<path d="M811.898,456.506c0,26.832-5.682,47.576-17.044,62.232c-11.364,14.658-26.833,21.984-46.406,21.984
					c-9.072,0-16.567-1.338-22.486-4.01v-27.93c5.919,4.297,13.367,6.445,22.344,6.445c23.297,0,34.947-19.572,34.947-58.723
					V315.138h28.646V456.506z"/>
				<path d="M812.606,457.213c0,26.834-5.682,47.576-17.044,62.232c-11.364,14.66-26.833,21.986-46.406,21.986
					c-9.072,0-16.567-1.338-22.486-4.01v-27.93c5.919,4.297,13.367,6.445,22.344,6.445c23.297,0,34.947-19.574,34.947-58.725
					V315.846h28.646V457.213z"/>
				<path d="M813.315,457.922c0,26.834-5.682,47.576-17.044,62.232c-11.364,14.66-26.833,21.986-46.406,21.986
					c-9.072,0-16.567-1.338-22.486-4.01v-27.93c5.919,4.297,13.367,6.445,22.344,6.445c23.297,0,34.947-19.574,34.947-58.725
					V316.555h28.646V457.922z"/>
				<path d="M814.023,458.631c0,26.832-5.682,47.576-17.044,62.232c-11.364,14.658-26.833,21.984-46.406,21.984
					c-9.072,0-16.567-1.338-22.486-4.01v-27.93c5.919,4.297,13.367,6.445,22.344,6.445c23.297,0,34.947-19.572,34.947-58.723
					V317.263h28.646V458.631z"/>
				<path d="M814.732,459.34c0,26.832-5.682,47.576-17.044,62.232c-11.364,14.658-26.833,21.984-46.406,21.984
					c-9.072,0-16.567-1.338-22.486-4.01v-27.93c5.919,4.297,13.367,6.445,22.344,6.445c23.297,0,34.947-19.572,34.947-58.723
					V317.972h28.646V459.34z"/>
				<path d="M815.441,460.047c0,26.834-5.683,47.578-17.044,62.234c-11.365,14.658-26.834,21.984-46.406,21.984
					c-9.073,0-16.568-1.338-22.487-4.01v-27.93c5.919,4.297,13.367,6.445,22.344,6.445c23.297,0,34.948-19.574,34.948-58.725V318.68
					h28.646V460.047z"/>
				<path d="M816.149,460.756c0,26.834-5.682,47.576-17.044,62.232c-11.364,14.66-26.833,21.986-46.406,21.986
					c-9.072,0-16.567-1.338-22.486-4.01v-27.93c5.919,4.297,13.367,6.445,22.344,6.445c23.297,0,34.947-19.574,34.947-58.725
					V319.389h28.646V460.756z"/>
				<path d="M816.858,461.465c0,26.832-5.683,47.576-17.044,62.232c-11.365,14.658-26.834,21.986-46.406,21.986
					c-9.073,0-16.568-1.34-22.487-4.012v-27.93c5.919,4.297,13.367,6.445,22.344,6.445c23.297,0,34.948-19.572,34.948-58.723
					V320.097h28.646V461.465z"/>
				<path d="M817.566,462.174c0,26.832-5.682,47.576-17.044,62.232c-11.364,14.658-26.833,21.984-46.406,21.984
					c-9.072,0-16.567-1.338-22.486-4.01v-27.93c5.919,4.297,13.367,6.445,22.344,6.445c23.297,0,34.947-19.572,34.947-58.723
					V320.806h28.646V462.174z"/>
				<path d="M818.275,462.881c0,26.834-5.683,47.578-17.044,62.234c-11.365,14.658-26.834,21.984-46.406,21.984
					c-9.073,0-16.568-1.338-22.487-4.01v-27.93c5.919,4.297,13.367,6.445,22.344,6.445c23.297,0,34.948-19.574,34.948-58.725
					V321.514h28.646V462.881z"/>
				<path d="M818.983,463.59c0,26.834-5.682,47.576-17.044,62.232c-11.364,14.66-26.833,21.986-46.406,21.986
					c-9.072,0-16.567-1.338-22.486-4.01v-27.93c5.919,4.297,13.367,6.445,22.344,6.445c23.297,0,34.947-19.574,34.947-58.725
					V322.223h28.646V463.59z"/>
				<path d="M819.692,464.299c0,26.832-5.683,47.576-17.044,62.232c-11.365,14.658-26.834,21.986-46.406,21.986
					c-9.073,0-16.568-1.34-22.487-4.012v-27.93c5.919,4.297,13.367,6.445,22.344,6.445c23.297,0,34.948-19.572,34.948-58.723
					V322.931h28.646V464.299z"/>
				<path d="M820.4,465.008c0,26.832-5.682,47.576-17.044,62.232c-11.364,14.658-26.833,21.984-46.406,21.984
					c-9.072,0-16.567-1.338-22.486-4.01v-27.93c5.919,4.297,13.367,6.445,22.344,6.445c23.297,0,34.947-19.572,34.947-58.723V323.64
					H820.4V465.008z"/>
				<path d="M821.109,465.717c0,26.832-5.682,47.576-17.044,62.232c-11.364,14.658-26.833,21.984-46.406,21.984
					c-9.072,0-16.567-1.338-22.486-4.01v-27.93c5.919,4.297,13.367,6.445,22.344,6.445c23.297,0,34.947-19.572,34.947-58.723
					V324.349h28.646V465.717z"/>
				<path d="M821.817,466.424c0,26.834-5.682,47.576-17.044,62.232c-11.364,14.66-26.833,21.986-46.406,21.986
					c-9.072,0-16.567-1.338-22.486-4.01v-27.93c5.919,4.297,13.367,6.445,22.344,6.445c23.297,0,34.947-19.574,34.947-58.725
					V325.057h28.646V466.424z"/>
				<path d="M822.526,467.133c0,26.834-5.682,47.576-17.044,62.232c-11.364,14.66-26.833,21.986-46.406,21.986
					c-9.072,0-16.567-1.338-22.486-4.01v-27.93c5.919,4.297,13.367,6.445,22.344,6.445c23.297,0,34.947-19.574,34.947-58.725
					V325.766h28.646V467.133z"/>
				<path d="M823.234,467.842c0,26.832-5.682,47.576-17.044,62.232c-11.364,14.658-26.833,21.984-46.406,21.984
					c-9.072,0-16.567-1.338-22.486-4.01v-27.93c5.919,4.297,13.367,6.445,22.344,6.445c23.297,0,34.947-19.572,34.947-58.723
					V326.474h28.646V467.842z"/>
				<path d="M823.943,468.551c0,26.832-5.682,47.576-17.044,62.232c-11.364,14.658-26.833,21.984-46.406,21.984
					c-9.072,0-16.567-1.338-22.486-4.01v-27.93c5.919,4.297,13.367,6.445,22.344,6.445c23.297,0,34.947-19.572,34.947-58.723
					V327.183h28.646V468.551z"/>
				<path d="M824.652,469.258c0,26.834-5.683,47.578-17.044,62.234c-11.365,14.658-26.834,21.984-46.406,21.984
					c-9.073,0-16.568-1.338-22.487-4.01v-27.93c5.919,4.297,13.367,6.445,22.344,6.445c23.297,0,34.948-19.574,34.948-58.725
					V327.891h28.646V469.258z"/>
				<path d="M825.36,469.967c0,26.834-5.682,47.576-17.044,62.232c-11.364,14.66-26.833,21.986-46.406,21.986
					c-9.072,0-16.567-1.338-22.486-4.01v-27.93c5.919,4.297,13.367,6.445,22.344,6.445c23.297,0,34.947-19.574,34.947-58.725V328.6
					h28.646V469.967z"/>
				<path d="M826.069,470.676c0,26.832-5.683,47.576-17.044,62.232c-11.365,14.658-26.834,21.986-46.406,21.986
					c-9.073,0-16.568-1.34-22.487-4.012v-27.93c5.919,4.297,13.367,6.445,22.344,6.445c23.297,0,34.948-19.572,34.948-58.723
					V329.308h28.646V470.676z"/>
				<path d="M826.777,471.385c0,26.832-5.682,47.576-17.044,62.232c-11.364,14.658-26.833,21.984-46.406,21.984
					c-9.072,0-16.567-1.338-22.486-4.01v-27.93c5.919,4.297,13.367,6.445,22.344,6.445c23.297,0,34.947-19.572,34.947-58.723
					V330.017h28.646V471.385z"/>
				<path d="M827.486,472.092c0,26.834-5.683,47.578-17.044,62.234c-11.365,14.658-26.834,21.984-46.406,21.984
					c-9.073,0-16.568-1.338-22.487-4.01v-27.93c5.919,4.297,13.367,6.445,22.344,6.445c23.297,0,34.948-19.574,34.948-58.725
					V330.725h28.646V472.092z"/>
				<path d="M828.194,472.801c0,26.834-5.682,47.576-17.044,62.232c-11.364,14.66-26.833,21.986-46.406,21.986
					c-9.072,0-16.567-1.338-22.486-4.01v-27.93c5.919,4.297,13.367,6.445,22.344,6.445c23.297,0,34.947-19.574,34.947-58.725
					V331.434h28.646V472.801z"/>
				<path d="M828.903,473.51c0,26.832-5.683,47.576-17.044,62.232c-11.365,14.658-26.834,21.986-46.406,21.986
					c-9.073,0-16.568-1.34-22.487-4.012v-27.93c5.919,4.297,13.367,6.445,22.344,6.445c23.297,0,34.948-19.572,34.948-58.723
					V332.142h28.646V473.51z"/>
				<path d="M829.611,474.219c0,26.832-5.682,47.576-17.044,62.232c-11.364,14.658-26.833,21.984-46.406,21.984
					c-9.072,0-16.567-1.338-22.486-4.01v-27.93c5.919,4.297,13.367,6.445,22.344,6.445c23.297,0,34.947-19.572,34.947-58.723
					V332.851h28.646V474.219z"/>
				<path d="M830.32,474.926c0,26.834-5.683,47.578-17.044,62.234c-11.365,14.658-26.834,21.984-46.406,21.984
					c-9.073,0-16.568-1.338-22.487-4.01v-27.93c5.919,4.297,13.367,6.445,22.344,6.445c23.297,0,34.948-19.574,34.948-58.725
					V333.559h28.646V474.926z"/>
				<path d="M831.028,475.635c0,26.834-5.682,47.576-17.044,62.232c-11.364,14.66-26.833,21.986-46.406,21.986
					c-9.072,0-16.567-1.338-22.486-4.01v-27.93c5.919,4.297,13.367,6.445,22.344,6.445c23.297,0,34.947-19.574,34.947-58.725
					V334.268h28.646V475.635z"/>
				<path d="M831.737,476.344c0,26.834-5.682,47.576-17.044,62.232c-11.364,14.66-26.833,21.986-46.406,21.986
					c-9.072,0-16.567-1.338-22.486-4.01v-27.93c5.919,4.297,13.367,6.445,22.344,6.445c23.297,0,34.947-19.574,34.947-58.725
					V334.977h28.646V476.344z"/>
				<path d="M832.446,477.053c0,26.832-5.683,47.576-17.044,62.232c-11.365,14.658-26.834,21.986-46.406,21.986
					c-9.073,0-16.568-1.34-22.487-4.012v-27.93c5.919,4.297,13.367,6.445,22.344,6.445c23.297,0,34.948-19.572,34.948-58.723
					V335.685h28.646V477.053z"/>
				<path d="M833.154,477.762c0,26.832-5.682,47.576-17.044,62.232c-11.364,14.658-26.833,21.984-46.406,21.984
					c-9.072,0-16.567-1.338-22.486-4.01v-27.93c5.919,4.297,13.367,6.445,22.344,6.445c23.297,0,34.947-19.572,34.947-58.723
					V336.394h28.646V477.762z"/>
				<path d="M833.863,478.469c0,26.834-5.683,47.578-17.044,62.234c-11.365,14.658-26.834,21.984-46.406,21.984
					c-9.073,0-16.568-1.338-22.487-4.01v-27.93c5.919,4.297,13.367,6.445,22.344,6.445c23.297,0,34.948-19.574,34.948-58.725
					V337.102h28.646V478.469z"/>
				<path d="M834.571,479.178c0,26.834-5.682,47.576-17.044,62.232c-11.364,14.66-26.833,21.986-46.406,21.986
					c-9.072,0-16.567-1.338-22.486-4.01v-27.93c5.919,4.297,13.367,6.445,22.344,6.445c23.297,0,34.947-19.574,34.947-58.725
					V337.811h28.646V479.178z"/>
				<path d="M835.28,479.887c0,26.832-5.683,47.576-17.044,62.232c-11.365,14.658-26.834,21.986-46.406,21.986
					c-9.073,0-16.568-1.34-22.487-4.012v-27.93c5.919,4.297,13.367,6.445,22.344,6.445c23.297,0,34.948-19.572,34.948-58.723
					V338.519h28.646V479.887z"/>
				<path d="M835.988,480.596c0,26.832-5.682,47.576-17.044,62.232c-11.364,14.658-26.833,21.984-46.406,21.984
					c-9.072,0-16.567-1.338-22.486-4.01v-27.93c5.919,4.297,13.367,6.445,22.344,6.445c23.297,0,34.947-19.572,34.947-58.723
					V339.228h28.646V480.596z"/>
				<path d="M836.697,481.303c0,26.834-5.683,47.578-17.044,62.234c-11.365,14.658-26.834,21.984-46.406,21.984
					c-9.073,0-16.568-1.338-22.487-4.01v-27.93c5.919,4.297,13.367,6.445,22.344,6.445c23.297,0,34.948-19.574,34.948-58.725
					V339.936h28.646V481.303z"/>
				<path d="M837.405,482.012c0,26.834-5.682,47.576-17.044,62.232c-11.364,14.66-26.833,21.986-46.406,21.986
					c-9.072,0-16.567-1.338-22.486-4.01v-27.93c5.919,4.297,13.367,6.445,22.344,6.445c23.297,0,34.947-19.574,34.947-58.725
					V340.645h28.646V482.012z"/>
				<path d="M838.114,482.721c0,26.832-5.683,47.576-17.044,62.232c-11.365,14.658-26.834,21.986-46.406,21.986
					c-9.073,0-16.568-1.34-22.487-4.012v-27.93c5.919,4.297,13.367,6.445,22.344,6.445c23.297,0,34.948-19.572,34.948-58.723
					V341.353h28.646V482.721z"/>
				<path d="M838.822,483.43c0,26.832-5.682,47.576-17.044,62.232c-11.364,14.658-26.833,21.984-46.406,21.984
					c-9.072,0-16.567-1.338-22.486-4.01v-27.93c5.919,4.297,13.367,6.445,22.344,6.445c23.297,0,34.947-19.572,34.947-58.723
					V342.062h28.646V483.43z"/>
				<path d="M839.531,484.137c0,26.834-5.683,47.578-17.044,62.234c-11.365,14.658-26.834,21.984-46.406,21.984
					c-9.073,0-16.568-1.338-22.487-4.01v-27.93c5.919,4.297,13.367,6.445,22.344,6.445c23.297,0,34.948-19.574,34.948-58.725V342.77
					h28.646V484.137z"/>
				<path d="M840.24,484.846c0,26.834-5.683,47.578-17.044,62.234c-11.365,14.658-26.834,21.984-46.406,21.984
					c-9.073,0-16.568-1.338-22.487-4.01v-27.93c5.919,4.297,13.367,6.445,22.344,6.445c23.297,0,34.948-19.574,34.948-58.725
					V343.479h28.646V484.846z"/>
				<path d="M840.948,485.555c0,26.834-5.682,47.576-17.044,62.232c-11.364,14.66-26.833,21.986-46.406,21.986
					c-9.072,0-16.567-1.338-22.486-4.01v-27.93c5.919,4.297,13.367,6.445,22.344,6.445c23.297,0,34.947-19.574,34.947-58.725
					V344.188h28.646V485.555z"/>
				<path d="M841.657,486.264c0,26.832-5.683,47.576-17.044,62.232c-11.365,14.658-26.834,21.986-46.406,21.986
					c-9.073,0-16.568-1.34-22.487-4.012v-27.93c5.919,4.297,13.367,6.445,22.344,6.445c23.297,0,34.948-19.572,34.948-58.723
					V344.896h28.646V486.264z"/>
				<path d="M842.365,486.973c0,26.832-5.682,47.576-17.044,62.232c-11.364,14.658-26.833,21.984-46.406,21.984
					c-9.072,0-16.567-1.338-22.486-4.01v-27.93c5.919,4.297,13.367,6.445,22.344,6.445c23.297,0,34.947-19.572,34.947-58.723
					V345.605h28.646V486.973z"/>
				<path d="M843.074,487.68c0,26.834-5.683,47.578-17.044,62.234c-11.365,14.658-26.834,21.984-46.406,21.984
					c-9.073,0-16.568-1.338-22.487-4.01v-27.93c5.919,4.297,13.367,6.445,22.344,6.445c23.297,0,34.948-19.574,34.948-58.725
					V346.313h28.646V487.68z"/>
				<path d="M843.782,488.389c0,26.834-5.682,47.576-17.044,62.232c-11.364,14.66-26.833,21.986-46.406,21.986
					c-9.072,0-16.567-1.338-22.486-4.01v-27.93c5.919,4.297,13.367,6.445,22.344,6.445c23.297,0,34.947-19.574,34.947-58.725
					V347.022h28.646V488.389z"/>
				<path d="M844.491,489.098c0,26.832-5.683,47.576-17.044,62.232c-11.365,14.658-26.834,21.986-46.406,21.986
					c-9.073,0-16.568-1.34-22.487-4.012v-27.93c5.919,4.297,13.367,6.445,22.344,6.445c23.297,0,34.948-19.572,34.948-58.723V347.73
					h28.646V489.098z"/>
				<path d="M845.199,489.807c0,26.832-5.682,47.576-17.044,62.232c-11.364,14.658-26.833,21.984-46.406,21.984
					c-9.072,0-16.567-1.338-22.486-4.01v-27.93c5.919,4.297,13.367,6.445,22.344,6.445c23.297,0,34.947-19.572,34.947-58.723
					V348.439h28.646V489.807z"/>
				<path d="M845.908,490.514c0,26.834-5.683,47.578-17.044,62.234c-11.365,14.658-26.834,21.984-46.406,21.984
					c-9.073,0-16.568-1.338-22.487-4.01v-27.93c5.919,4.297,13.367,6.445,22.344,6.445c23.297,0,34.948-19.574,34.948-58.725
					V349.147h28.646V490.514z"/>
				<path d="M846.616,491.223c0,26.834-5.682,47.576-17.044,62.232c-11.364,14.66-26.833,21.986-46.406,21.986
					c-9.072,0-16.567-1.338-22.486-4.01v-27.93c5.919,4.297,13.367,6.445,22.344,6.445c23.297,0,34.947-19.574,34.947-58.725
					V349.856h28.646V491.223z"/>
				<path d="M847.325,491.932c0,26.832-5.683,47.576-17.044,62.232c-11.365,14.658-26.834,21.986-46.406,21.986
					c-9.073,0-16.568-1.34-22.487-4.012v-27.93c5.919,4.297,13.367,6.445,22.344,6.445c23.297,0,34.948-19.572,34.948-58.723
					V350.564h28.646V491.932z"/>
				<path d="M848.033,492.641c0,26.832-5.682,47.576-17.044,62.232c-11.364,14.658-26.833,21.984-46.406,21.984
					c-9.072,0-16.567-1.338-22.486-4.01v-27.93c5.919,4.297,13.367,6.445,22.344,6.445c23.297,0,34.947-19.572,34.947-58.723
					V351.273h28.646V492.641z"/>
				<path d="M848.742,493.348c0,26.834-5.683,47.578-17.044,62.234c-11.365,14.658-26.834,21.984-46.406,21.984
					c-9.073,0-16.568-1.338-22.487-4.01v-27.93c5.919,4.297,13.367,6.445,22.344,6.445c23.297,0,34.948-19.574,34.948-58.725
					V351.981h28.646V493.348z"/>
				<path d="M849.451,494.057c0,26.834-5.683,47.578-17.044,62.234c-11.365,14.658-26.834,21.984-46.406,21.984
					c-9.073,0-16.568-1.338-22.487-4.01v-27.93c5.919,4.297,13.367,6.445,22.344,6.445c23.297,0,34.948-19.574,34.948-58.725V352.69
					h28.646V494.057z"/>
				<path d="M850.159,494.766c0,26.832-5.683,47.576-17.044,62.232c-11.365,14.658-26.834,21.986-46.406,21.986
					c-9.073,0-16.568-1.34-22.487-4.012v-27.93c5.919,4.297,13.367,6.445,22.344,6.445c23.297,0,34.948-19.572,34.948-58.723
					V353.398h28.646V494.766z"/>
				<path d="M850.868,495.475c0,26.832-5.683,47.576-17.044,62.232c-11.365,14.658-26.834,21.986-46.406,21.986
					c-9.073,0-16.568-1.34-22.487-4.012v-27.93c5.919,4.297,13.367,6.445,22.344,6.445c23.297,0,34.948-19.572,34.948-58.723
					V354.107h28.646V495.475z"/>
				<path d="M851.576,496.184c0,26.832-5.682,47.576-17.044,62.232c-11.364,14.658-26.833,21.984-46.406,21.984
					c-9.072,0-16.567-1.338-22.486-4.01v-27.93c5.919,4.297,13.367,6.445,22.344,6.445c23.297,0,34.947-19.572,34.947-58.723
					V354.816h28.646V496.184z"/>
				<path d="M852.285,496.891c0,26.834-5.683,47.578-17.044,62.234c-11.365,14.658-26.834,21.984-46.406,21.984
					c-9.073,0-16.568-1.338-22.487-4.01v-27.93c5.919,4.297,13.367,6.445,22.344,6.445c23.297,0,34.948-19.574,34.948-58.725
					V355.524h28.646V496.891z"/>
				<path d="M852.993,497.6c0,26.834-5.682,47.576-17.044,62.232c-11.364,14.66-26.833,21.986-46.406,21.986
					c-9.072,0-16.567-1.338-22.486-4.01v-27.93c5.919,4.297,13.367,6.445,22.344,6.445c23.297,0,34.947-19.574,34.947-58.725
					V356.233h28.646V497.6z"/>
				<path d="M853.702,498.309c0,26.832-5.683,47.576-17.044,62.232c-11.365,14.658-26.834,21.986-46.406,21.986
					c-9.073,0-16.568-1.34-22.487-4.012v-27.93c5.919,4.297,13.367,6.445,22.344,6.445c23.297,0,34.948-19.572,34.948-58.723
					V356.941h28.646V498.309z"/>
				<path d="M854.41,499.018c0,26.832-5.682,47.576-17.044,62.232c-11.364,14.658-26.833,21.984-46.406,21.984
					c-9.072,0-16.567-1.338-22.486-4.01v-27.93c5.919,4.297,13.367,6.445,22.344,6.445c23.297,0,34.947-19.572,34.947-58.723V357.65
					h28.646V499.018z"/>
				<path d="M855.119,499.725c0,26.834-5.683,47.578-17.044,62.234c-11.365,14.658-26.834,21.984-46.406,21.984
					c-9.073,0-16.568-1.338-22.487-4.01v-27.93c5.919,4.297,13.367,6.445,22.344,6.445c23.297,0,34.948-19.574,34.948-58.725
					V358.358h28.646V499.725z"/>
				<path d="M855.827,500.434c0,26.834-5.682,47.576-17.044,62.232c-11.364,14.66-26.833,21.986-46.406,21.986
					c-9.072,0-16.567-1.338-22.486-4.01v-27.93c5.919,4.297,13.367,6.445,22.344,6.445c23.297,0,34.947-19.574,34.947-58.725
					V359.067h28.646V500.434z"/>
				<path d="M856.536,501.143c0,26.832-5.683,47.576-17.044,62.232c-11.365,14.658-26.834,21.986-46.406,21.986
					c-9.073,0-16.568-1.34-22.487-4.012v-27.93c5.919,4.297,13.367,6.445,22.344,6.445c23.297,0,34.948-19.572,34.948-58.723
					V359.775h28.646V501.143z"/>
				<path d="M857.244,501.852c0,26.832-5.682,47.576-17.044,62.232c-11.364,14.658-26.833,21.984-46.406,21.984
					c-9.072,0-16.567-1.338-22.486-4.01v-27.93c5.919,4.297,13.367,6.445,22.344,6.445c23.297,0,34.947-19.572,34.947-58.723
					V360.484h28.646V501.852z"/>
				<path d="M857.953,502.559c0,26.834-5.683,47.578-17.044,62.234c-11.365,14.658-26.834,21.984-46.406,21.984
					c-9.073,0-16.568-1.338-22.487-4.01v-27.93c5.919,4.297,13.367,6.445,22.344,6.445c23.297,0,34.948-19.574,34.948-58.725
					V361.192h28.646V502.559z"/>
				<path d="M858.662,503.268c0,26.834-5.683,47.578-17.044,62.234c-11.365,14.658-26.834,21.984-46.406,21.984
					c-9.073,0-16.568-1.338-22.487-4.01v-27.93c5.919,4.297,13.367,6.445,22.344,6.445c23.297,0,34.948-19.574,34.948-58.725
					V361.901h28.646V503.268z"/>
				<path d="M859.37,503.977c0,26.832-5.683,47.576-17.044,62.232c-11.365,14.658-26.834,21.986-46.406,21.986
					c-9.073,0-16.568-1.34-22.487-4.012v-27.93c5.919,4.297,13.367,6.445,22.344,6.445c23.297,0,34.948-19.572,34.948-58.723
					V362.609h28.646V503.977z"/>
				<path d="M860.079,504.686c0,26.832-5.683,47.576-17.044,62.232c-11.365,14.658-26.834,21.986-46.406,21.986
					c-9.073,0-16.568-1.34-22.487-4.012v-27.93c5.919,4.297,13.367,6.445,22.344,6.445c23.297,0,34.948-19.572,34.948-58.723
					V363.318h28.646V504.686z"/>
				<path d="M860.787,505.393c0,26.834-5.683,47.578-17.044,62.234c-11.365,14.658-26.834,21.984-46.406,21.984
					c-9.073,0-16.568-1.338-22.487-4.01v-27.93c5.919,4.297,13.367,6.445,22.344,6.445c23.297,0,34.948-19.574,34.948-58.725
					V364.026h28.646V505.393z"/>
				<path d="M861.496,506.102c0,26.834-5.683,47.578-17.044,62.234c-11.365,14.658-26.834,21.984-46.406,21.984
					c-9.073,0-16.568-1.338-22.487-4.01v-27.93c5.919,4.297,13.367,6.445,22.344,6.445c23.297,0,34.948-19.574,34.948-58.725
					V364.735h28.646V506.102z"/>
				<path d="M862.204,506.811c0,26.834-5.682,47.576-17.044,62.232c-11.364,14.66-26.833,21.986-46.406,21.986
					c-9.072,0-16.567-1.338-22.486-4.01v-27.93c5.919,4.297,13.367,6.445,22.344,6.445c23.297,0,34.947-19.574,34.947-58.725
					V365.444h28.646V506.811z"/>
				<path d="M862.913,507.52c0,26.832-5.683,47.576-17.044,62.232c-11.365,14.658-26.834,21.986-46.406,21.986
					c-9.073,0-16.568-1.34-22.487-4.012v-27.93c5.919,4.297,13.367,6.445,22.344,6.445c23.297,0,34.948-19.572,34.948-58.723
					V366.152h28.646V507.52z"/>
				<path d="M863.621,508.229c0,26.832-5.682,47.576-17.044,62.232c-11.364,14.658-26.833,21.984-46.406,21.984
					c-9.072,0-16.567-1.338-22.486-4.01v-27.93c5.919,4.297,13.367,6.445,22.344,6.445c23.297,0,34.947-19.572,34.947-58.723
					V366.861h28.646V508.229z"/>
				<path d="M864.33,508.936c0,26.834-5.683,47.578-17.044,62.234c-11.365,14.658-26.834,21.984-46.406,21.984
					c-9.073,0-16.568-1.338-22.487-4.01v-27.93c5.919,4.297,13.367,6.445,22.344,6.445c23.297,0,34.948-19.574,34.948-58.725
					V367.569h28.646V508.936z"/>
				<path d="M865.038,509.645c0,26.834-5.682,47.576-17.044,62.232c-11.364,14.66-26.833,21.986-46.406,21.986
					c-9.072,0-16.567-1.338-22.486-4.01v-27.93c5.919,4.297,13.367,6.445,22.344,6.445c23.297,0,34.947-19.574,34.947-58.725
					V368.278h28.646V509.645z"/>
				<path d="M865.747,510.354c0,26.832-5.683,47.576-17.044,62.232c-11.365,14.658-26.834,21.986-46.406,21.986
					c-9.073,0-16.568-1.34-22.487-4.012v-27.93c5.919,4.297,13.367,6.445,22.344,6.445c23.297,0,34.948-19.572,34.948-58.723
					V368.986h28.646V510.354z"/>
				<path d="M866.455,511.063c0,26.832-5.682,47.576-17.044,62.232c-11.364,14.658-26.833,21.984-46.406,21.984
					c-9.072,0-16.567-1.338-22.486-4.01v-27.93c5.919,4.297,13.367,6.445,22.344,6.445c23.297,0,34.947-19.572,34.947-58.723
					V369.695h28.646V511.063z"/>
				<path d="M867.164,511.77c0,26.834-5.683,47.578-17.044,62.234c-11.365,14.658-26.834,21.984-46.406,21.984
					c-9.073,0-16.568-1.338-22.487-4.01v-27.93c5.919,4.297,13.367,6.445,22.344,6.445c23.297,0,34.948-19.574,34.948-58.725
					V370.403h28.646V511.77z"/>
				<path d="M867.872,512.479c0,26.834-5.682,47.576-17.044,62.232c-11.364,14.66-26.833,21.986-46.406,21.986
					c-9.072,0-16.567-1.338-22.486-4.01v-27.93c5.919,4.297,13.367,6.445,22.344,6.445c23.297,0,34.947-19.574,34.947-58.725
					V371.112h28.646V512.479z"/>
				<path d="M868.581,513.188c0,26.832-5.683,47.576-17.044,62.232c-11.365,14.658-26.834,21.986-46.406,21.986
					c-9.073,0-16.568-1.34-22.487-4.012v-27.93c5.919,4.297,13.367,6.445,22.344,6.445c23.297,0,34.948-19.572,34.948-58.723V371.82
					h28.646V513.188z"/>
				<path d="M869.29,513.896c0,26.832-5.683,47.576-17.044,62.232c-11.365,14.658-26.834,21.986-46.406,21.986
					c-9.073,0-16.568-1.34-22.487-4.012v-27.93c5.919,4.297,13.367,6.445,22.344,6.445c23.297,0,34.948-19.572,34.948-58.723
					V372.529h28.646V513.896z"/>
				<path d="M869.998,514.604c0,26.834-5.683,47.578-17.044,62.234c-11.365,14.658-26.834,21.984-46.406,21.984
					c-9.073,0-16.568-1.338-22.487-4.01v-27.93c5.919,4.297,13.367,6.445,22.344,6.445c23.297,0,34.948-19.574,34.948-58.725
					V373.237h28.646V514.604z"/>
				<path d="M870.707,515.313c0,26.834-5.683,47.578-17.044,62.234c-11.365,14.658-26.834,21.984-46.406,21.984
					c-9.073,0-16.568-1.338-22.487-4.01v-27.93c5.919,4.297,13.367,6.445,22.344,6.445c23.297,0,34.948-19.574,34.948-58.725
					V373.946h28.646V515.313z"/>
				<path d="M871.415,516.021c0,26.832-5.683,47.576-17.044,62.232c-11.365,14.658-26.834,21.986-46.406,21.986
					c-9.073,0-16.568-1.34-22.487-4.012v-27.93c5.919,4.297,13.367,6.445,22.344,6.445c23.297,0,34.948-19.572,34.948-58.723
					V374.654h28.646V516.021z"/>
				<path d="M872.124,516.73c0,26.832-5.683,47.576-17.044,62.232c-11.365,14.658-26.834,21.986-46.406,21.986
					c-9.073,0-16.568-1.34-22.487-4.012v-27.93c5.919,4.297,13.367,6.445,22.344,6.445c23.297,0,34.948-19.572,34.948-58.723
					V375.363h28.646V516.73z"/>
				<path d="M872.832,517.439c0,26.832-5.682,47.576-17.044,62.232c-11.364,14.658-26.833,21.984-46.406,21.984
					c-9.072,0-16.567-1.338-22.486-4.01v-27.93c5.919,4.297,13.367,6.445,22.344,6.445c23.297,0,34.947-19.572,34.947-58.723
					V376.072h28.646V517.439z"/>
				<path d="M873.541,518.146c0,26.834-5.683,47.578-17.044,62.234c-11.365,14.658-26.834,21.984-46.406,21.984
					c-9.073,0-16.568-1.338-22.487-4.01v-27.93c5.919,4.297,13.367,6.445,22.344,6.445c23.297,0,34.948-19.574,34.948-58.725V376.78
					h28.646V518.146z"/>
				<path d="M874.249,518.855c0,26.834-5.682,47.576-17.044,62.232c-11.364,14.66-26.833,21.986-46.406,21.986
					c-9.072,0-16.567-1.338-22.486-4.01v-27.93c5.919,4.297,13.367,6.445,22.344,6.445c23.297,0,34.947-19.574,34.947-58.725
					V377.489h28.646V518.855z"/>
				<path d="M874.958,519.564c0,26.832-5.683,47.576-17.044,62.232c-11.365,14.658-26.834,21.986-46.406,21.986
					c-9.073,0-16.568-1.34-22.487-4.012v-27.93c5.919,4.297,13.367,6.445,22.344,6.445c23.297,0,34.948-19.572,34.948-58.723
					V378.197h28.646V519.564z"/>
				<path d="M875.666,520.273c0,26.832-5.682,47.576-17.044,62.232c-11.364,14.658-26.833,21.984-46.406,21.984
					c-9.072,0-16.567-1.338-22.486-4.01v-27.93c5.919,4.297,13.367,6.445,22.344,6.445c23.297,0,34.947-19.572,34.947-58.723
					V378.906h28.646V520.273z"/>
				<path d="M876.375,520.98c0,26.834-5.683,47.578-17.044,62.234c-11.365,14.658-26.834,21.984-46.406,21.984
					c-9.073,0-16.568-1.338-22.487-4.01v-27.93c5.919,4.297,13.367,6.445,22.344,6.445c23.297,0,34.948-19.574,34.948-58.725
					V379.614h28.646V520.98z"/>
				<path d="M877.083,521.689c0,26.834-5.682,47.576-17.044,62.232c-11.364,14.66-26.833,21.986-46.406,21.986
					c-9.072,0-16.567-1.338-22.486-4.01v-27.93c5.919,4.297,13.367,6.445,22.344,6.445c23.297,0,34.947-19.574,34.947-58.725
					V380.323h28.646V521.689z"/>
				<path d="M877.792,522.398c0,26.832-5.683,47.576-17.044,62.232c-11.365,14.658-26.834,21.986-46.406,21.986
					c-9.073,0-16.568-1.34-22.487-4.012v-27.93c5.919,4.297,13.367,6.445,22.344,6.445c23.297,0,34.948-19.572,34.948-58.723
					V381.031h28.646V522.398z"/>
				<path d="M878.501,523.107c0,26.832-5.683,47.576-17.044,62.232c-11.365,14.658-26.834,21.986-46.406,21.986
					c-9.073,0-16.568-1.34-22.487-4.012v-27.93c5.919,4.297,13.367,6.445,22.344,6.445c23.297,0,34.948-19.572,34.948-58.723V381.74
					h28.646V523.107z"/>
				<path d="M879.209,523.814c0,26.834-5.683,47.578-17.044,62.234c-11.365,14.658-26.834,21.984-46.406,21.984
					c-9.073,0-16.568-1.338-22.487-4.01v-27.93c5.919,4.297,13.367,6.445,22.344,6.445c23.297,0,34.948-19.574,34.948-58.725
					V382.448h28.646V523.814z"/>
				<path d="M879.918,524.523c0,26.834-5.683,47.578-17.044,62.234c-11.365,14.658-26.834,21.984-46.406,21.984
					c-9.073,0-16.568-1.338-22.487-4.01v-27.93c5.919,4.297,13.367,6.445,22.344,6.445c23.297,0,34.948-19.574,34.948-58.725
					V383.157h28.646V524.523z"/>
				<path d="M880.626,525.232c0,26.832-5.683,47.576-17.044,62.232c-11.365,14.658-26.834,21.986-46.406,21.986
					c-9.073,0-16.568-1.34-22.487-4.012v-27.93c5.919,4.297,13.367,6.445,22.344,6.445c23.297,0,34.948-19.572,34.948-58.723
					V383.865h28.646V525.232z"/>
				<path d="M881.335,525.941c0,26.832-5.683,47.576-17.044,62.232c-11.365,14.658-26.834,21.986-46.406,21.986
					c-9.073,0-16.568-1.34-22.487-4.012v-27.93c5.919,4.297,13.367,6.445,22.344,6.445c23.297,0,34.948-19.572,34.948-58.723
					V384.574h28.646V525.941z"/>
				<path d="M882.043,526.648c0,26.834-5.683,47.578-17.044,62.234c-11.365,14.658-26.834,21.984-46.406,21.984
					c-9.073,0-16.568-1.338-22.487-4.01v-27.93c5.919,4.297,13.367,6.445,22.344,6.445c23.297,0,34.948-19.574,34.948-58.725
					V385.282h28.646V526.648z"/>
				<path d="M882.752,527.357c0,26.834-5.683,47.578-17.044,62.234c-11.365,14.658-26.834,21.984-46.406,21.984
					c-9.073,0-16.568-1.338-22.487-4.01v-27.93c5.919,4.297,13.367,6.445,22.344,6.445c23.297,0,34.948-19.574,34.948-58.725
					V385.991h28.646V527.357z"/>
				<path d="M883.46,528.066c0,26.834-5.682,47.576-17.044,62.232c-11.364,14.66-26.833,21.986-46.406,21.986
					c-9.072,0-16.567-1.338-22.486-4.01v-27.93c5.919,4.297,13.367,6.445,22.344,6.445c23.297,0,34.947-19.574,34.947-58.725V386.7
					h28.646V528.066z"/>
				<path d="M884.169,528.775c0,26.832-5.683,47.576-17.044,62.232c-11.365,14.658-26.834,21.986-46.406,21.986
					c-9.073,0-16.568-1.34-22.487-4.012v-27.93c5.919,4.297,13.367,6.445,22.344,6.445c23.297,0,34.948-19.572,34.948-58.723
					V387.408h28.646V528.775z"/>
				<path d="M884.877,529.484c0,26.832-5.682,47.576-17.044,62.232c-11.364,14.658-26.833,21.984-46.406,21.984
					c-9.072,0-16.567-1.338-22.486-4.01v-27.93c5.919,4.297,13.367,6.445,22.344,6.445c23.297,0,34.947-19.572,34.947-58.723
					V388.117h28.646V529.484z"/>
				<path d="M885.586,530.191c0,26.834-5.683,47.578-17.044,62.234c-11.365,14.658-26.834,21.984-46.406,21.984
					c-9.073,0-16.568-1.338-22.487-4.01v-27.93c5.919,4.297,13.367,6.445,22.344,6.445c23.297,0,34.948-19.574,34.948-58.725
					V388.825h28.646V530.191z"/>
				<path d="M886.294,530.9c0,26.834-5.682,47.576-17.044,62.232c-11.364,14.66-26.833,21.986-46.406,21.986
					c-9.072,0-16.567-1.338-22.486-4.01v-27.93c5.919,4.297,13.367,6.445,22.344,6.445c23.297,0,34.947-19.574,34.947-58.725
					V389.534h28.646V530.9z"/>
				<path d="M887.003,531.609c0,26.832-5.683,47.576-17.044,62.232c-11.365,14.658-26.834,21.986-46.406,21.986
					c-9.073,0-16.568-1.34-22.487-4.012v-27.93c5.919,4.297,13.367,6.445,22.344,6.445c23.297,0,34.948-19.572,34.948-58.723
					V390.242h28.646V531.609z"/>
				<path d="M887.712,532.318c0,26.832-5.683,47.576-17.044,62.232c-11.365,14.658-26.834,21.986-46.406,21.986
					c-9.073,0-16.568-1.34-22.487-4.012v-27.93c5.919,4.297,13.367,6.445,22.344,6.445c23.297,0,34.948-19.572,34.948-58.723
					V390.951h28.646V532.318z"/>
				<path d="M888.42,533.025c0,26.834-5.683,47.578-17.044,62.234c-11.365,14.658-26.834,21.984-46.406,21.984
					c-9.073,0-16.568-1.338-22.487-4.01v-27.93c5.919,4.297,13.367,6.445,22.344,6.445c23.297,0,34.948-19.574,34.948-58.725
					V391.659h28.646V533.025z"/>
				<path d="M889.129,533.734c0,26.834-5.683,47.578-17.044,62.234c-11.365,14.658-26.834,21.984-46.406,21.984
					c-9.073,0-16.568-1.338-22.487-4.01v-27.93c5.919,4.297,13.367,6.445,22.344,6.445c23.297,0,34.948-19.574,34.948-58.725
					V392.368h28.646V533.734z"/>
				<path d="M889.837,534.443c0,26.832-5.683,47.576-17.044,62.232c-11.365,14.658-26.834,21.986-46.406,21.986
					c-9.073,0-16.568-1.34-22.487-4.012v-27.93c5.919,4.297,13.367,6.445,22.344,6.445c23.297,0,34.948-19.572,34.948-58.723
					V393.076h28.646V534.443z"/>
				<path d="M890.546,535.152c0,26.832-5.683,47.576-17.044,62.232c-11.365,14.658-26.834,21.986-46.406,21.986
					c-9.073,0-16.568-1.34-22.487-4.012v-27.93c5.919,4.297,13.367,6.445,22.344,6.445c23.297,0,34.948-19.572,34.948-58.723
					V393.785h28.646V535.152z"/>
				<path d="M891.254,535.859c0,26.834-5.683,47.578-17.044,62.234c-11.365,14.658-26.834,21.984-46.406,21.984
					c-9.073,0-16.568-1.338-22.487-4.01v-27.93c5.919,4.297,13.367,6.445,22.344,6.445c23.297,0,34.948-19.574,34.948-58.725
					V394.493h28.646V535.859z"/>
				<path d="M891.963,536.568c0,26.834-5.683,47.578-17.044,62.234c-11.365,14.658-26.834,21.984-46.406,21.984
					c-9.073,0-16.568-1.338-22.487-4.01v-27.93c5.919,4.297,13.367,6.445,22.344,6.445c23.297,0,34.948-19.574,34.948-58.725
					V395.202h28.646V536.568z"/>
				<path d="M892.671,537.277c0,26.832-5.683,47.576-17.044,62.232c-11.365,14.658-26.834,21.986-46.406,21.986
					c-9.073,0-16.568-1.34-22.487-4.012v-27.93c5.919,4.297,13.367,6.445,22.344,6.445c23.297,0,34.948-19.572,34.948-58.723V395.91
					h28.646V537.277z"/>
				<path d="M893.38,537.986c0,26.832-5.683,47.576-17.044,62.232c-11.365,14.658-26.834,21.986-46.406,21.986
					c-9.073,0-16.568-1.34-22.487-4.012v-27.93c5.919,4.297,13.367,6.445,22.344,6.445c23.297,0,34.948-19.572,34.948-58.723
					V396.619h28.646V537.986z"/>
				<path d="M894.088,538.695c0,26.832-5.682,47.576-17.044,62.232c-11.364,14.658-26.833,21.984-46.406,21.984
					c-9.072,0-16.567-1.338-22.486-4.01v-27.93c5.919,4.297,13.367,6.445,22.344,6.445c23.297,0,34.947-19.572,34.947-58.723
					V397.328h28.646V538.695z"/>
				<path d="M894.797,539.402c0,26.834-5.683,47.578-17.044,62.234c-11.365,14.658-26.834,21.984-46.406,21.984
					c-9.073,0-16.568-1.338-22.487-4.01v-27.93c5.919,4.297,13.367,6.445,22.344,6.445c23.297,0,34.948-19.574,34.948-58.725
					V398.036h28.646V539.402z"/>
				<path d="M895.505,540.111c0,26.834-5.682,47.576-17.044,62.232c-11.364,14.66-26.833,21.986-46.406,21.986
					c-9.072,0-16.567-1.338-22.486-4.01v-27.93c5.919,4.297,13.367,6.445,22.344,6.445c23.297,0,34.947-19.574,34.947-58.725
					V398.745h28.646V540.111z"/>
				<path d="M896.214,540.82c0,26.832-5.683,47.576-17.044,62.232c-11.365,14.658-26.834,21.986-46.406,21.986
					c-9.073,0-16.568-1.34-22.487-4.012v-27.93c5.919,4.297,13.367,6.445,22.344,6.445c23.297,0,34.948-19.572,34.948-58.723
					V399.453h28.646V540.82z"/>
				<path d="M896.923,541.529c0,26.832-5.683,47.576-17.044,62.232c-11.365,14.658-26.834,21.986-46.406,21.986
					c-9.073,0-16.568-1.34-22.487-4.012v-27.93c5.919,4.297,13.367,6.445,22.344,6.445c23.297,0,34.948-19.572,34.948-58.723
					V400.162h28.646V541.529z"/>
				<path d="M897.631,542.236c0,26.834-5.683,47.578-17.044,62.234c-11.365,14.658-26.834,21.984-46.406,21.984
					c-9.073,0-16.568-1.338-22.487-4.01v-27.93c5.919,4.297,13.367,6.445,22.344,6.445c23.297,0,34.948-19.574,34.948-58.725V400.87
					h28.646V542.236z"/>
				<path d="M898.34,542.945c0,26.834-5.683,47.578-17.044,62.234c-11.365,14.658-26.834,21.984-46.406,21.984
					c-9.073,0-16.568-1.338-22.487-4.01v-27.93c5.919,4.297,13.367,6.445,22.344,6.445c23.297,0,34.948-19.574,34.948-58.725
					V401.578h28.646V542.945z"/>
				<path d="M899.048,543.654c0,26.832-5.683,47.576-17.044,62.232c-11.365,14.658-26.834,21.986-46.406,21.986
					c-9.073,0-16.568-1.34-22.487-4.012v-27.93c5.919,4.297,13.367,6.445,22.344,6.445c23.297,0,34.948-19.572,34.948-58.723
					V402.287h28.646V543.654z"/>
				<path d="M899.757,544.363c0,26.832-5.683,47.576-17.044,62.232c-11.365,14.658-26.834,21.986-46.406,21.986
					c-9.073,0-16.568-1.34-22.487-4.012v-27.93c5.919,4.297,13.367,6.445,22.344,6.445c23.297,0,34.948-19.572,34.948-58.723
					V402.996h28.646V544.363z"/>
				<path d="M900.465,545.07c0,26.834-5.683,47.578-17.044,62.234c-11.365,14.658-26.834,21.984-46.406,21.984
					c-9.073,0-16.568-1.338-22.487-4.01v-27.93c5.919,4.297,13.367,6.445,22.344,6.445c23.297,0,34.948-19.574,34.948-58.725
					V403.703h28.646V545.07z"/>
				<path d="M901.174,545.779c0,26.834-5.683,47.578-17.044,62.234c-11.365,14.658-26.834,21.984-46.406,21.984
					c-9.073,0-16.568-1.338-22.487-4.01v-27.93c5.919,4.297,13.367,6.445,22.344,6.445c23.297,0,34.948-19.574,34.948-58.725
					V404.412h28.646V545.779z"/>
				<path d="M901.882,546.488c0,26.832-5.683,47.576-17.044,62.232c-11.365,14.658-26.834,21.986-46.406,21.986
					c-9.073,0-16.568-1.34-22.487-4.012v-27.93c5.919,4.297,13.367,6.445,22.344,6.445c23.297,0,34.948-19.572,34.948-58.723
					V405.121h28.646V546.488z"/>
				<path d="M902.591,547.197c0,26.832-5.683,47.576-17.044,62.232c-11.365,14.658-26.834,21.986-46.406,21.986
					c-9.073,0-16.568-1.34-22.487-4.012v-27.93c5.919,4.297,13.367,6.445,22.344,6.445c23.297,0,34.948-19.572,34.948-58.723V405.83
					h28.646V547.197z"/>
				<path d="M903.299,547.904c0,26.834-5.683,47.578-17.044,62.234c-11.365,14.658-26.834,21.984-46.406,21.984
					c-9.073,0-16.568-1.338-22.487-4.01v-27.93c5.919,4.297,13.367,6.445,22.344,6.445c23.297,0,34.948-19.574,34.948-58.725
					V406.537h28.646V547.904z"/>
				<path d="M904.008,548.613c0,26.834-5.683,47.578-17.044,62.234c-11.365,14.658-26.834,21.984-46.406,21.984
					c-9.073,0-16.568-1.338-22.487-4.01v-27.93c5.919,4.297,13.367,6.445,22.344,6.445c23.297,0,34.948-19.574,34.948-58.725
					V407.246h28.646V548.613z"/>
				<path d="M904.716,549.322c0,26.834-5.682,47.576-17.044,62.232c-11.364,14.66-26.833,21.986-46.406,21.986
					c-9.072,0-16.567-1.338-22.486-4.01v-27.93c5.919,4.297,13.367,6.445,22.344,6.445c23.297,0,34.947-19.574,34.947-58.725
					V407.955h28.646V549.322z"/>
				<path d="M905.425,550.031c0,26.832-5.683,47.576-17.044,62.232c-11.365,14.658-26.834,21.986-46.406,21.986
					c-9.073,0-16.568-1.34-22.487-4.012v-27.93c5.919,4.297,13.367,6.445,22.344,6.445c23.297,0,34.948-19.572,34.948-58.723
					V408.664h28.646V550.031z"/>
				<path d="M906.134,550.74c0,26.832-5.683,47.576-17.044,62.232c-11.365,14.658-26.834,21.986-46.406,21.986
					c-9.073,0-16.568-1.34-22.487-4.012v-27.93c5.919,4.297,13.367,6.445,22.344,6.445c23.297,0,34.948-19.572,34.948-58.723
					V409.373h28.646V550.74z"/>
				<path d="M906.842,551.447c0,26.834-5.683,47.578-17.044,62.234c-11.365,14.658-26.834,21.984-46.406,21.984
					c-9.073,0-16.568-1.338-22.487-4.01v-27.93c5.919,4.297,13.367,6.445,22.344,6.445c23.297,0,34.948-19.574,34.948-58.725V410.08
					h28.646V551.447z"/>
				<path d="M907.551,552.156c0,26.834-5.683,47.578-17.044,62.234c-11.365,14.658-26.834,21.984-46.406,21.984
					c-9.073,0-16.568-1.338-22.487-4.01v-27.93c5.919,4.297,13.367,6.445,22.344,6.445c23.297,0,34.948-19.574,34.948-58.725
					V410.789h28.646V552.156z"/>
				<path d="M908.259,552.865c0,26.832-5.683,47.576-17.044,62.232c-11.365,14.658-26.834,21.986-46.406,21.986
					c-9.073,0-16.568-1.34-22.487-4.012v-27.93c5.919,4.297,13.367,6.445,22.344,6.445c23.297,0,34.948-19.572,34.948-58.723
					V411.498h28.646V552.865z"/>
				<path d="M908.968,553.574c0,26.832-5.683,47.576-17.044,62.232c-11.365,14.658-26.834,21.986-46.406,21.986
					c-9.073,0-16.568-1.34-22.487-4.012v-27.93c5.919,4.297,13.367,6.445,22.344,6.445c23.297,0,34.948-19.572,34.948-58.723
					V412.207h28.646V553.574z"/>
				<path d="M909.676,554.281c0,26.834-5.683,47.578-17.044,62.234c-11.365,14.658-26.834,21.984-46.406,21.984
					c-9.073,0-16.568-1.338-22.487-4.01v-27.93c5.919,4.297,13.367,6.445,22.344,6.445c23.297,0,34.948-19.574,34.948-58.725
					V412.914h28.646V554.281z"/>
				<path d="M910.385,554.99c0,26.834-5.683,47.578-17.044,62.234c-11.365,14.658-26.834,21.984-46.406,21.984
					c-9.073,0-16.568-1.338-22.487-4.01v-27.93c5.919,4.297,13.367,6.445,22.344,6.445c23.297,0,34.948-19.574,34.948-58.725
					V413.623h28.646V554.99z"/>
				<path d="M911.093,555.699c0,26.832-5.683,47.576-17.044,62.232c-11.365,14.658-26.834,21.986-46.406,21.986
					c-9.073,0-16.568-1.34-22.487-4.012v-27.93c5.919,4.297,13.367,6.445,22.344,6.445c23.297,0,34.948-19.572,34.948-58.723
					V414.332h28.646V555.699z"/>
				<path d="M911.802,556.408c0,26.832-5.683,47.576-17.044,62.232c-11.365,14.658-26.834,21.986-46.406,21.986
					c-9.073,0-16.568-1.34-22.487-4.012v-27.93c5.919,4.297,13.367,6.445,22.344,6.445c23.297,0,34.948-19.572,34.948-58.723
					V415.041h28.646V556.408z"/>
				<path d="M912.51,557.115c0,26.834-5.683,47.578-17.044,62.234c-11.365,14.658-26.834,21.984-46.406,21.984
					c-9.073,0-16.568-1.338-22.487-4.01v-27.93c5.919,4.297,13.367,6.445,22.344,6.445c23.297,0,34.948-19.574,34.948-58.725
					V415.748h28.646V557.115z"/>
				<path d="M913.219,557.824c0,26.834-5.683,47.578-17.044,62.234c-11.365,14.658-26.834,21.984-46.406,21.984
					c-9.073,0-16.568-1.338-22.487-4.01v-27.93c5.919,4.297,13.367,6.445,22.344,6.445c23.297,0,34.948-19.574,34.948-58.725
					V416.457h28.646V557.824z"/>
				<path d="M913.927,558.533c0,26.832-5.683,47.576-17.044,62.232c-11.365,14.658-26.834,21.986-46.406,21.986
					c-9.073,0-16.568-1.34-22.487-4.012v-27.93c5.919,4.297,13.367,6.445,22.344,6.445c23.297,0,34.948-19.572,34.948-58.723
					V417.166h28.646V558.533z"/>
				<g>
					<path d="M914.636,559.242c0,26.832-5.683,47.576-17.044,62.232c-11.365,14.658-26.834,21.986-46.406,21.986
						c-9.073,0-16.568-1.34-22.487-4.012v-27.93c5.919,4.297,13.367,6.445,22.344,6.445c23.297,0,34.948-19.572,34.948-58.723
						V417.875h28.646V559.242z"/>
				</g>
			</g>
		</g>
		<g>
			<path fill="#D95338" d="M767.969,412.576c0,26.832-5.682,47.576-17.044,62.232c-11.364,14.658-26.833,21.984-46.406,21.984
				c-9.072,0-16.567-1.338-22.486-4.01v-27.93c5.919,4.297,13.367,6.445,22.344,6.445c23.297,0,34.947-19.572,34.947-58.723V271.208
				h28.646V412.576z"/>
		</g>
	</g>
</g>
</svg>
