<?xml version="1.0" encoding="UTF-8" standalone="no"?>
<!-- Generator: Adobe Illustrator 15.0.0, SVG Export Plug-In . SVG Version: 6.00 Build 0)  -->

<svg
   xmlns:dc="http://purl.org/dc/elements/1.1/"
   xmlns:cc="http://creativecommons.org/ns#"
   xmlns:rdf="http://www.w3.org/1999/02/22-rdf-syntax-ns#"
   xmlns:svg="http://www.w3.org/2000/svg"
   xmlns="http://www.w3.org/2000/svg"
   xmlns:xlink="http://www.w3.org/1999/xlink"
   xmlns:sodipodi="http://sodipodi.sourceforge.net/DTD/sodipodi-0.dtd"
   xmlns:inkscape="http://www.inkscape.org/namespaces/inkscape"
   version="1.1"
   x="0px"
   y="0px"
   width="1000"
   height="620"
   viewBox="0 0 1000 620"
   enable-background="new 0 0 2000 800"
   xml:space="preserve"
   id="svg2"
   inkscape:version="0.48.5 r10040"
   sodipodi:docname="logo_tlo_biale.svg"><metadata
   id="metadata511"><rdf:RDF><cc:Work
       rdf:about=""><dc:format>image/svg+xml</dc:format><dc:type
         rdf:resource="http://purl.org/dc/dcmitype/StillImage" /><dc:title></dc:title></cc:Work></rdf:RDF></metadata><defs
   id="defs509" /><sodipodi:namedview
   pagecolor="#ffffff"
   bordercolor="#666666"
   borderopacity="1"
   objecttolerance="10"
   gridtolerance="10"
   guidetolerance="10"
   inkscape:pageopacity="0"
   inkscape:pageshadow="2"
   inkscape:window-width="1920"
   inkscape:window-height="1017"
   id="namedview507"
   showgrid="false"
   inkscape:zoom="0.40446508"
   inkscape:cx="1713.3158"
   inkscape:cy="682.26931"
   inkscape:window-x="-8"
   inkscape:window-y="-8"
   inkscape:window-maximized="1"
   inkscape:current-layer="svg2" />
<g
   id="Layer_1"
   display="none"
   style="display:none"
   transform="translate(0,-180)">
	<rect
   display="inline"
   width="2000"
   height="800"
   id="rect5"
   x="0"
   y="0"
   style="fill:#d95338;display:inline" />
</g>
<g
   id="Layer_6"
   display="none"
   style="display:none"
   transform="translate(0,-180)">
	<rect
   display="inline"
   width="2000"
   height="800"
   id="rect8"
   x="0"
   y="0"
   style="fill:#f6f6f6;display:inline" />
</g>
<g
   id="Layer_4"
   transform="translate(-576.06951,-74.922948)">
	
		<linearGradient
   id="SVGID_1_"
   gradientUnits="userSpaceOnUse"
   x1="137.3154"
   y1="551.05267"
   x2="603.98242"
   y2="551.05267"
   gradientTransform="matrix(-0.486,-0.4857,0.7881,-0.7887,585.4706,1111.9637)">
		<stop
   offset="0"
   style="stop-color:#000000;stop-opacity:0"
   id="stop12" />
		<stop
   offset="0.1401"
   style="stop-color:#000000;stop-opacity:0.1401"
   id="stop14" />
		<stop
   offset="1"
   style="stop-color:#000000"
   id="stop16" />
	</linearGradient>
	<polygon
   points="806.413,757.366 1099.571,463.981 872.749,237.334 579.591,530.72 "
   id="polygon18"
   style="opacity:0.1;fill:url(#SVGID_1_)" />
</g>
<g
   id="Layer_5"
   transform="translate(-576.06951,-74.922948)">
	<g
   id="g21">
		<rect
   x="903.66803"
   y="298.66699"
   width="722.66699"
   height="161.33299"
   id="rect23"
   style="fill:none" />
		<path
   d="m 936.879,355.88 c 0,9.971 -2.111,17.679 -6.333,23.125 -4.223,5.447 -9.971,8.169 -17.244,8.169 -3.371,0 -6.156,-0.497 -8.356,-1.49 v -10.378 c 2.2,1.597 4.967,2.395 8.303,2.395 8.657,0 12.986,-7.273 12.986,-21.821 v -52.53 h 10.645 v 52.53 z"
   id="path25"
   inkscape:connector-curvature="0"
   style="fill:#d95338" />
		<path
   d="m 1004.738,385.792 h -10.485 v -9.261 h -0.213 c -3.938,7.097 -9.988,10.645 -18.149,10.645 -13.944,0 -20.917,-8.338 -20.917,-25.015 V 326.928 H 965.3 v 33.69 c 0,11.958 4.577,17.936 13.731,17.936 4.542,0 8.214,-1.676 11.017,-5.03 2.803,-3.353 4.205,-7.584 4.205,-12.693 v -33.903 h 10.485 v 58.864 z"
   id="path27"
   inkscape:connector-curvature="0"
   style="fill:#d95338" />
		<path
   d="m 1073.076,385.792 h -10.379 v -33.477 c 0,-12.099 -4.417,-18.149 -13.252,-18.149 -4.577,0 -8.339,1.703 -11.283,5.109 -2.945,3.406 -4.418,7.717 -4.418,12.933 v 33.583 h -10.432 v -58.864 h 10.432 v 9.74 h 0.213 c 4.436,-7.416 10.875,-11.124 19.32,-11.124 6.457,0 11.371,2.067 14.742,6.201 3.371,4.134 5.057,10.157 5.057,18.069 v 35.979 z"
   id="path29"
   inkscape:connector-curvature="0"
   style="fill:#d95338" />
		<path
   d="m 1089.203,306.17 c 0,-1.845 0.629,-3.397 1.889,-4.657 1.26,-1.259 2.812,-1.89 4.657,-1.89 1.88,0 3.468,0.621 4.764,1.863 1.295,1.242 1.942,2.803 1.942,4.684 0,1.845 -0.647,3.379 -1.942,4.604 -1.296,1.224 -2.884,1.836 -4.764,1.836 -1.881,0 -3.442,-0.612 -4.684,-1.836 -1.242,-1.224 -1.862,-2.758 -1.862,-4.604 z m 1.224,79.622 v -58.864 h 10.432 v 58.864 h -10.432 z"
   id="path31"
   inkscape:connector-curvature="0"
   style="fill:#d95338" />
		<path
   d="m 1115.547,356.998 c 0,-9.722 2.715,-17.395 8.144,-23.019 5.429,-5.624 12.791,-8.436 22.087,-8.436 8.836,0 15.763,2.706 20.784,8.117 5.021,5.411 7.53,12.889 7.53,22.433 0,9.296 -2.679,16.801 -8.036,22.513 -5.358,5.713 -12.543,8.569 -21.556,8.569 -8.8,0 -15.825,-2.768 -21.076,-8.303 -5.251,-5.535 -7.877,-12.826 -7.877,-21.874 z m 10.644,-0.319 c 0,6.777 1.712,12.117 5.137,16.02 3.424,3.903 8.027,5.854 13.811,5.854 5.961,0 10.503,-1.907 13.625,-5.721 3.122,-3.814 4.684,-9.288 4.684,-16.419 0,-7.167 -1.562,-12.667 -4.684,-16.499 -3.122,-3.832 -7.664,-5.748 -13.625,-5.748 -5.854,0 -10.476,2.005 -13.864,6.014 -3.389,4.009 -5.084,9.509 -5.084,16.499 z"
   id="path33"
   inkscape:connector-curvature="0"
   style="fill:#d95338" />
		<path
   d="m 1220.343,337.252 c -1.739,-1.242 -4.134,-1.863 -7.185,-1.863 -4.045,0 -7.381,1.89 -10.006,5.668 -2.627,3.779 -3.939,8.755 -3.939,14.929 v 29.805 h -10.432 v -58.864 h 10.432 v 11.975 h 0.213 c 2.98,-8.657 8.125,-12.986 15.436,-12.986 2.376,0 4.204,0.266 5.481,0.798 v 10.538 z"
   id="path35"
   inkscape:connector-curvature="0"
   style="fill:#d95338" />
		<path
   d="m 1282.561,312.344 h -7.931 v 64.453 h 7.931 v 8.995 h -26.506 v -8.995 h 7.931 v -64.453 h -7.931 v -8.995 h 26.506 v 8.995 z"
   id="path37"
   inkscape:connector-curvature="0"
   style="fill:#d95338" />
		<path
   d="m 1345.842,312.823 h -23.791 v 72.968 h -10.697 v -72.968 h -23.684 v -9.474 h 58.172 v 9.474 z"
   id="path39"
   inkscape:connector-curvature="0"
   style="fill:#d95338" />
		<path
   d="m 1414.445,385.792 h -11.762 l -8.409,-22.566 h -34.329 l -7.93,22.566 h -11.762 l 31.4,-82.442 h 11.391 l 31.401,82.442 z m -23.47,-31.881 -12.454,-34.275 c -0.391,-1.1 -0.816,-3.016 -1.277,-5.748 h -0.267 c -0.391,2.484 -0.834,4.4 -1.33,5.748 l -12.348,34.275 h 27.676 z"
   id="path41"
   inkscape:connector-curvature="0"
   style="fill:#d95338" />
		<path
   d="M 1426.368,385.792 V 303.35 h 23.524 c 12.489,0 22.877,3.637 31.162,10.911 8.284,7.274 12.428,17.031 12.428,29.272 0,12.773 -4.144,23.01 -12.428,30.709 -8.285,7.7 -18.957,11.549 -32.014,11.549 h -22.672 z m 10.645,-72.969 v 63.548 h 11.976 c 10.466,0 18.636,-2.856 24.509,-8.569 5.872,-5.712 8.808,-13.713 8.808,-24.003 0,-10.29 -3.016,-18.024 -9.047,-23.205 -6.033,-5.18 -13.963,-7.771 -23.791,-7.771 h -12.455 z"
   id="path43"
   inkscape:connector-curvature="0"
   style="fill:#d95338" />
		<path
   d="m 963.961,412.41 -12.715,45.381 h -6.826 l -9.141,-32.695 c -0.41,-1.484 -0.655,-3.047 -0.732,-4.688 h -0.117 c -0.117,1.621 -0.391,3.164 -0.82,4.629 l -9.229,32.754 h -6.768 L 904.459,412.41 h 6.475 l 9.258,34.277 c 0.41,1.543 0.654,3.096 0.732,4.658 h 0.176 c 0.098,-1.172 0.42,-2.725 0.967,-4.658 l 9.814,-34.277 h 5.771 l 9.375,34.541 c 0.312,1.133 0.566,2.578 0.762,4.336 h 0.117 c 0.098,-1.27 0.381,-2.754 0.85,-4.453 l 8.906,-34.424 h 6.299 z"
   id="path45"
   inkscape:connector-curvature="0"
   style="opacity:0.37999998" />
		<path
   d="m 968.209,427.645 c 3.223,-2.012 6.943,-3.018 11.162,-3.018 7.812,0 11.719,4.102 11.719,12.305 v 20.859 h -5.684 v -5.01 h -0.146 c -2.246,3.848 -5.557,5.771 -9.932,5.771 -3.145,0 -5.645,-0.85 -7.5,-2.549 -1.856,-1.699 -2.783,-3.994 -2.783,-6.885 0,-6.055 3.584,-9.58 10.752,-10.576 l 9.609,-1.348 c 0,-5.293 -2.188,-7.939 -6.563,-7.939 -3.887,0 -7.432,1.309 -10.635,3.926 v -5.536 z m 9.61,14.912 c -2.656,0.352 -4.487,1.016 -5.493,1.992 -1.006,0.977 -1.509,2.344 -1.509,4.102 0,1.543 0.546,2.803 1.641,3.779 1.094,0.977 2.539,1.465 4.336,1.465 2.5,0 4.56,-0.879 6.182,-2.637 1.621,-1.758 2.432,-3.965 2.432,-6.621 v -3.105 l -7.589,1.025 z"
   id="path47"
   inkscape:connector-curvature="0"
   style="opacity:0.37999998" />
		<path
   d="m 1017.984,431.072 c -0.957,-0.684 -2.275,-1.025 -3.955,-1.025 -2.227,0 -4.063,1.04 -5.508,3.12 -1.445,2.08 -2.168,4.819 -2.168,8.218 v 16.406 h -5.742 v -32.402 h 5.742 v 6.592 h 0.117 c 1.641,-4.766 4.473,-7.148 8.496,-7.148 1.309,0 2.314,0.146 3.018,0.439 v 5.8 z"
   id="path49"
   inkscape:connector-curvature="0"
   style="opacity:0.37999998" />
		<path
   d="m 1022.145,450.789 c 2.891,2.09 6.006,3.135 9.346,3.135 4.473,0 6.709,-1.465 6.709,-4.395 0,-1.25 -0.488,-2.28 -1.465,-3.091 -0.977,-0.811 -2.959,-1.772 -5.947,-2.886 -3.594,-1.445 -5.928,-2.876 -7.002,-4.292 -1.074,-1.416 -1.611,-3.13 -1.611,-5.142 0,-2.871 1.216,-5.171 3.647,-6.899 2.431,-1.728 5.425,-2.593 8.979,-2.593 2.754,0 5.313,0.479 7.676,1.436 v 5.537 c -2.422,-1.563 -5.166,-2.344 -8.232,-2.344 -1.836,0 -3.33,0.4 -4.482,1.201 -1.152,0.801 -1.729,1.855 -1.729,3.164 0,1.289 0.415,2.295 1.245,3.018 0.83,0.723 2.671,1.65 5.522,2.783 3.613,1.348 6.055,2.744 7.324,4.189 1.269,1.445 1.904,3.232 1.904,5.361 0,2.969 -1.216,5.308 -3.647,7.017 -2.431,1.709 -5.581,2.563 -9.448,2.563 -3.359,0 -6.289,-0.635 -8.789,-1.904 v -5.858 z"
   id="path51"
   inkscape:connector-curvature="0"
   style="opacity:0.37999998" />
		<path
   d="m 1074.527,457.791 h -26.895 v -1.904 l 18.838,-25.752 h -17.08 v -4.746 h 25.254 v 1.875 l -18.721,25.781 h 18.604 v 4.746 z"
   id="path53"
   inkscape:connector-curvature="0"
   style="opacity:0.37999998" />
		<path
   d="m 1081.998,427.645 c 3.223,-2.012 6.943,-3.018 11.162,-3.018 7.813,0 11.719,4.102 11.719,12.305 v 20.859 h -5.684 v -5.01 h -0.146 c -2.246,3.848 -5.557,5.771 -9.932,5.771 -3.145,0 -5.645,-0.85 -7.5,-2.549 -1.855,-1.699 -2.783,-3.994 -2.783,-6.885 0,-6.055 3.584,-9.58 10.752,-10.576 l 9.609,-1.348 c 0,-5.293 -2.188,-7.939 -6.563,-7.939 -3.887,0 -7.432,1.309 -10.635,3.926 v -5.536 z m 9.609,14.912 c -2.656,0.352 -4.487,1.016 -5.493,1.992 -1.006,0.976 -1.509,2.344 -1.509,4.102 0,1.543 0.547,2.803 1.641,3.779 1.094,0.976 2.539,1.465 4.336,1.465 2.5,0 4.561,-0.879 6.182,-2.637 1.621,-1.758 2.432,-3.965 2.432,-6.621 v -3.105 l -7.589,1.025 z"
   id="path55"
   inkscape:connector-curvature="0"
   style="opacity:0.37999998" />
		<path
   d="m 1155.914,425.389 -9.668,32.402 h -5.977 l -6.445,-22.734 c -0.273,-0.977 -0.449,-2.012 -0.527,-3.105 h -0.117 c -0.059,0.82 -0.283,1.836 -0.674,3.047 l -6.973,22.793 h -5.801 l -9.727,-32.402 h 5.977 l 6.475,24.023 c 0.195,0.723 0.342,1.709 0.439,2.959 h 0.234 c 0.078,-1.074 0.264,-2.09 0.557,-3.047 l 6.973,-23.936 h 5.303 l 6.797,24.053 c 0.195,0.703 0.352,1.699 0.469,2.988 h 0.264 c 0.039,-0.859 0.215,-1.855 0.527,-2.988 l 6.328,-24.053 h 5.566 z"
   id="path57"
   inkscape:connector-curvature="0"
   style="opacity:0.37999998" />
		<path
   d="m 1162.535,427.645 c 3.223,-2.012 6.943,-3.018 11.162,-3.018 7.813,0 11.719,4.102 11.719,12.305 v 20.859 h -5.684 v -5.01 h -0.146 c -2.246,3.848 -5.557,5.771 -9.932,5.771 -3.145,0 -5.645,-0.85 -7.5,-2.549 -1.855,-1.699 -2.783,-3.994 -2.783,-6.885 0,-6.055 3.584,-9.58 10.752,-10.576 l 9.609,-1.348 c 0,-5.293 -2.188,-7.939 -6.563,-7.939 -3.887,0 -7.432,1.309 -10.635,3.926 v -5.536 z m 9.61,14.912 c -2.656,0.352 -4.487,1.016 -5.493,1.992 -1.006,0.976 -1.509,2.344 -1.509,4.102 0,1.543 0.547,2.803 1.641,3.779 1.094,0.976 2.539,1.465 4.336,1.465 2.5,0 4.561,-0.879 6.182,-2.637 1.621,-1.758 2.432,-3.965 2.432,-6.621 v -3.105 l -7.589,1.025 z"
   id="path59"
   inkscape:connector-curvature="0"
   style="opacity:0.37999998" />
		<path
   d="m 1232.555,424.305 c 0,-2.441 -0.771,-4.36 -2.314,-5.757 -1.543,-1.397 -3.643,-2.095 -6.299,-2.095 -1.875,0 -3.77,0.479 -5.684,1.436 -1.914,0.957 -3.701,2.324 -5.361,4.102 v -5.566 c 1.484,-1.543 3.169,-2.725 5.054,-3.545 1.885,-0.82 4.097,-1.23 6.636,-1.23 4.102,0 7.402,1.099 9.902,3.296 2.5,2.197 3.75,5.171 3.75,8.921 0,3.34 -0.767,6.23 -2.3,8.672 -1.533,2.442 -4.155,4.941 -7.866,7.5 -3.789,2.617 -6.323,4.492 -7.603,5.625 -1.28,1.133 -2.173,2.217 -2.681,3.252 -0.508,1.035 -0.762,2.295 -0.762,3.779 h 22.559 v 5.098 h -28.535 v -2.256 c 0,-2.617 0.356,-4.839 1.069,-6.665 0.713,-1.826 1.89,-3.604 3.53,-5.332 1.64,-1.728 4.199,-3.804 7.676,-6.226 3.555,-2.5 5.981,-4.692 7.28,-6.577 1.299,-1.885 1.949,-4.03 1.949,-6.432 z"
   id="path61"
   inkscape:connector-curvature="0"
   style="opacity:0.37999998" />
		<path
   d="m 1245.387,435.994 c 0,-8.008 1.328,-14.067 3.984,-18.179 2.656,-4.112 6.504,-6.167 11.543,-6.167 9.609,0 14.414,7.754 14.414,23.262 0,7.656 -1.353,13.511 -4.058,17.563 -2.705,4.052 -6.499,6.079 -11.382,6.079 -4.609,0 -8.179,-1.924 -10.708,-5.771 -2.529,-3.847 -3.793,-9.443 -3.793,-16.787 z m 5.859,-0.264 c 0,12.051 3.057,18.076 9.17,18.076 6.016,0 9.023,-6.123 9.023,-18.369 0,-12.676 -2.949,-19.014 -8.848,-19.014 -6.23,10e-4 -9.345,6.436 -9.345,19.307 z"
   id="path63"
   inkscape:connector-curvature="0"
   style="opacity:0.37999998" />
		<path
   d="m 1294.635,457.791 v -38.818 c -0.898,0.898 -2.417,1.904 -4.556,3.018 -2.139,1.114 -4.116,1.895 -5.933,2.344 v -5.625 c 2.402,-0.664 4.971,-1.724 7.705,-3.179 2.734,-1.455 4.834,-2.827 6.299,-4.116 h 2.168 v 46.377 h -5.683 z"
   id="path65"
   inkscape:connector-curvature="0"
   style="opacity:0.37999998" />
		<path
   d="m 1344,443.787 c 0,4.434 -1.47,8.008 -4.409,10.723 -2.939,2.715 -6.89,4.072 -11.851,4.072 -4.258,0 -7.432,-0.635 -9.521,-1.904 v -5.859 c 3.066,1.992 6.191,2.988 9.375,2.988 3.164,0 5.718,-0.874 7.661,-2.622 1.943,-1.748 2.915,-4.067 2.915,-6.958 0,-2.891 -1.011,-5.142 -3.032,-6.753 -2.021,-1.611 -4.878,-2.417 -8.569,-2.417 -2.852,0 -5.42,0.127 -7.705,0.381 l 1.67,-23.027 h 21.211 v 5.039 h -16.377 l -0.938,12.861 4.131,-0.176 c 4.805,0 8.579,1.196 11.323,3.589 2.744,2.393 4.116,5.747 4.116,10.063 z"
   id="path67"
   inkscape:connector-curvature="0"
   style="opacity:0.37999998" />
	</g>
</g>
<g
   id="Layer_3"
   transform="translate(-576.06951,-74.922948)">
	<rect
   x="578.33398"
   y="237.334"
   width="293.33301"
   height="293.33301"
   id="rect70"
   style="fill:#f6f6f6" />
	<g
   id="Layer_2">
		<g
   id="g73">
			<defs
   id="defs75">
				<rect
   id="SVGID_2_"
   x="578.33398"
   y="237.334"
   width="293.33301"
   height="293.33301" />
			</defs>
			<clipPath
   id="SVGID_3_">
				<use
   xlink:href="#SVGID_2_"
   overflow="visible"
   id="use79"
   style="overflow:visible"
   x="0"
   y="0"
   width="2000"
   height="800" />
			</clipPath>
			<g
   clip-path="url(#SVGID_3_)"
   id="g81"
   style="opacity:0.2">
				<g
   id="g83">
					<path
   d="m 767.969,412.576 c 0,26.832 -5.682,47.576 -17.044,62.232 -11.364,14.658 -26.833,21.984 -46.406,21.984 -9.072,0 -16.567,-1.338 -22.486,-4.01 v -27.93 c 5.919,4.297 13.367,6.445 22.344,6.445 23.297,0 34.947,-19.572 34.947,-58.723 V 271.208 h 28.646 v 141.368 z"
   id="path85"
   inkscape:connector-curvature="0" />
				</g>
				<path
   d="m 768.678,413.285 c 0,26.832 -5.682,47.576 -17.044,62.232 -11.364,14.658 -26.833,21.984 -46.406,21.984 -9.072,0 -16.567,-1.338 -22.486,-4.01 v -27.93 c 5.919,4.297 13.367,6.445 22.344,6.445 23.297,0 34.947,-19.572 34.947,-58.723 V 271.917 h 28.646 v 141.368 z"
   id="path87"
   inkscape:connector-curvature="0" />
				<path
   d="m 769.386,413.992 c 0,26.834 -5.682,47.576 -17.044,62.232 -11.364,14.66 -26.833,21.986 -46.406,21.986 -9.072,0 -16.567,-1.338 -22.486,-4.01 v -27.93 c 5.919,4.297 13.367,6.445 22.344,6.445 23.297,0 34.947,-19.574 34.947,-58.725 V 272.625 h 28.646 v 141.367 z"
   id="path89"
   inkscape:connector-curvature="0" />
				<path
   d="m 770.095,414.701 c 0,26.834 -5.682,47.576 -17.044,62.232 -11.364,14.66 -26.833,21.986 -46.406,21.986 -9.072,0 -16.567,-1.338 -22.486,-4.01 v -27.93 c 5.919,4.297 13.367,6.445 22.344,6.445 23.297,0 34.947,-19.574 34.947,-58.725 V 273.334 h 28.646 v 141.367 z"
   id="path91"
   inkscape:connector-curvature="0" />
				<path
   d="m 770.803,415.41 c 0,26.832 -5.682,47.576 -17.044,62.232 -11.364,14.658 -26.833,21.984 -46.406,21.984 -9.072,0 -16.567,-1.338 -22.486,-4.01 v -27.93 c 5.919,4.297 13.367,6.445 22.344,6.445 23.297,0 34.947,-19.572 34.947,-58.723 V 274.042 h 28.646 V 415.41 z"
   id="path93"
   inkscape:connector-curvature="0" />
				<path
   d="m 771.512,416.119 c 0,26.832 -5.682,47.576 -17.044,62.232 -11.364,14.658 -26.833,21.984 -46.406,21.984 -9.072,0 -16.567,-1.338 -22.486,-4.01 v -27.93 c 5.919,4.297 13.367,6.445 22.344,6.445 23.297,0 34.947,-19.572 34.947,-58.723 V 274.751 h 28.646 v 141.368 z"
   id="path95"
   inkscape:connector-curvature="0" />
				<path
   d="m 772.221,416.826 c 0,26.834 -5.683,47.578 -17.044,62.234 -11.365,14.658 -26.834,21.984 -46.406,21.984 -9.073,0 -16.568,-1.338 -22.487,-4.01 v -27.93 c 5.919,4.297 13.367,6.445 22.344,6.445 23.297,0 34.948,-19.574 34.948,-58.725 V 275.459 h 28.646 v 141.367 z"
   id="path97"
   inkscape:connector-curvature="0" />
				<path
   d="m 772.929,417.535 c 0,26.834 -5.682,47.576 -17.044,62.232 -11.364,14.66 -26.833,21.986 -46.406,21.986 -9.072,0 -16.567,-1.338 -22.486,-4.01 v -27.93 c 5.919,4.297 13.367,6.445 22.344,6.445 23.297,0 34.947,-19.574 34.947,-58.725 V 276.168 h 28.646 v 141.367 z"
   id="path99"
   inkscape:connector-curvature="0" />
				<path
   d="m 773.638,418.244 c 0,26.834 -5.682,47.576 -17.044,62.232 -11.364,14.66 -26.833,21.986 -46.406,21.986 -9.072,0 -16.567,-1.338 -22.486,-4.01 v -27.93 c 5.919,4.297 13.367,6.445 22.344,6.445 23.297,0 34.947,-19.574 34.947,-58.725 V 276.877 h 28.646 v 141.367 z"
   id="path101"
   inkscape:connector-curvature="0" />
				<path
   d="m 774.346,418.953 c 0,26.832 -5.682,47.576 -17.044,62.232 -11.364,14.658 -26.833,21.984 -46.406,21.984 -9.072,0 -16.567,-1.338 -22.486,-4.01 v -27.93 c 5.919,4.297 13.367,6.445 22.344,6.445 23.297,0 34.947,-19.572 34.947,-58.723 V 277.585 h 28.646 v 141.368 z"
   id="path103"
   inkscape:connector-curvature="0" />
				<path
   d="m 775.055,419.662 c 0,26.832 -5.682,47.576 -17.044,62.232 -11.364,14.658 -26.833,21.984 -46.406,21.984 -9.072,0 -16.567,-1.338 -22.486,-4.01 v -27.93 c 5.919,4.297 13.367,6.445 22.344,6.445 23.297,0 34.947,-19.572 34.947,-58.723 V 278.294 h 28.646 v 141.368 z"
   id="path105"
   inkscape:connector-curvature="0" />
				<path
   d="m 775.763,420.369 c 0,26.834 -5.682,47.576 -17.044,62.232 -11.364,14.66 -26.833,21.986 -46.406,21.986 -9.072,0 -16.567,-1.338 -22.486,-4.01 v -27.93 c 5.919,4.297 13.367,6.445 22.344,6.445 23.297,0 34.947,-19.574 34.947,-58.725 V 279.002 h 28.646 v 141.367 z"
   id="path107"
   inkscape:connector-curvature="0" />
				<path
   d="m 776.472,421.078 c 0,26.834 -5.682,47.576 -17.044,62.232 -11.364,14.66 -26.833,21.986 -46.406,21.986 -9.072,0 -16.567,-1.338 -22.486,-4.01 v -27.93 c 5.919,4.297 13.367,6.445 22.344,6.445 23.297,0 34.947,-19.574 34.947,-58.725 V 279.711 h 28.646 v 141.367 z"
   id="path109"
   inkscape:connector-curvature="0" />
				<path
   d="m 777.18,421.787 c 0,26.832 -5.682,47.576 -17.044,62.232 -11.364,14.658 -26.833,21.984 -46.406,21.984 -9.072,0 -16.567,-1.338 -22.486,-4.01 v -27.93 c 5.919,4.297 13.367,6.445 22.344,6.445 23.297,0 34.947,-19.572 34.947,-58.723 V 280.419 h 28.646 v 141.368 z"
   id="path111"
   inkscape:connector-curvature="0" />
				<path
   d="m 777.889,422.496 c 0,26.832 -5.682,47.576 -17.044,62.232 -11.364,14.658 -26.833,21.984 -46.406,21.984 -9.072,0 -16.567,-1.338 -22.486,-4.01 v -27.93 c 5.919,4.297 13.367,6.445 22.344,6.445 23.297,0 34.947,-19.572 34.947,-58.723 V 281.128 h 28.646 v 141.368 z"
   id="path113"
   inkscape:connector-curvature="0" />
				<path
   d="m 778.597,423.203 c 0,26.834 -5.682,47.576 -17.044,62.232 -11.364,14.66 -26.833,21.986 -46.406,21.986 -9.072,0 -16.567,-1.338 -22.486,-4.01 v -27.93 c 5.919,4.297 13.367,6.445 22.344,6.445 23.297,0 34.947,-19.574 34.947,-58.725 V 281.836 h 28.646 v 141.367 z"
   id="path115"
   inkscape:connector-curvature="0" />
				<path
   d="m 779.306,423.912 c 0,26.834 -5.682,47.576 -17.044,62.232 -11.364,14.66 -26.833,21.986 -46.406,21.986 -9.072,0 -16.567,-1.338 -22.486,-4.01 v -27.93 c 5.919,4.297 13.367,6.445 22.344,6.445 23.297,0 34.947,-19.574 34.947,-58.725 V 282.545 h 28.646 v 141.367 z"
   id="path117"
   inkscape:connector-curvature="0" />
				<path
   d="m 780.014,424.621 c 0,26.832 -5.682,47.576 -17.044,62.232 -11.364,14.658 -26.833,21.984 -46.406,21.984 -9.072,0 -16.567,-1.338 -22.486,-4.01 v -27.93 c 5.919,4.297 13.367,6.445 22.344,6.445 23.297,0 34.947,-19.572 34.947,-58.723 V 283.253 h 28.646 v 141.368 z"
   id="path119"
   inkscape:connector-curvature="0" />
				<path
   d="m 780.723,425.33 c 0,26.832 -5.682,47.576 -17.044,62.232 -11.364,14.658 -26.833,21.984 -46.406,21.984 -9.072,0 -16.567,-1.338 -22.486,-4.01 v -27.93 c 5.919,4.297 13.367,6.445 22.344,6.445 23.297,0 34.947,-19.572 34.947,-58.723 V 283.962 h 28.646 V 425.33 z"
   id="path121"
   inkscape:connector-curvature="0" />
				<path
   d="m 781.432,426.037 c 0,26.834 -5.683,47.578 -17.044,62.234 -11.365,14.658 -26.834,21.984 -46.406,21.984 -9.073,0 -16.568,-1.338 -22.487,-4.01 v -27.93 c 5.919,4.297 13.367,6.445 22.344,6.445 23.297,0 34.948,-19.574 34.948,-58.725 V 284.67 h 28.646 v 141.367 z"
   id="path123"
   inkscape:connector-curvature="0" />
				<path
   d="m 782.14,426.746 c 0,26.834 -5.682,47.576 -17.044,62.232 -11.364,14.66 -26.833,21.986 -46.406,21.986 -9.072,0 -16.567,-1.338 -22.486,-4.01 v -27.93 c 5.919,4.297 13.367,6.445 22.344,6.445 23.297,0 34.947,-19.574 34.947,-58.725 V 285.379 h 28.646 v 141.367 z"
   id="path125"
   inkscape:connector-curvature="0" />
				<path
   d="m 782.849,427.455 c 0,26.834 -5.682,47.576 -17.044,62.232 -11.364,14.66 -26.833,21.986 -46.406,21.986 -9.072,0 -16.567,-1.338 -22.486,-4.01 v -27.93 c 5.919,4.297 13.367,6.445 22.344,6.445 23.297,0 34.947,-19.574 34.947,-58.725 V 286.088 h 28.646 v 141.367 z"
   id="path127"
   inkscape:connector-curvature="0" />
				<path
   d="m 783.557,428.164 c 0,26.832 -5.682,47.576 -17.044,62.232 -11.364,14.658 -26.833,21.984 -46.406,21.984 -9.072,0 -16.567,-1.338 -22.486,-4.01 v -27.93 c 5.919,4.297 13.367,6.445 22.344,6.445 23.297,0 34.947,-19.572 34.947,-58.723 V 286.796 h 28.646 v 141.368 z"
   id="path129"
   inkscape:connector-curvature="0" />
				<path
   d="m 784.266,428.873 c 0,26.832 -5.682,47.576 -17.044,62.232 -11.364,14.658 -26.833,21.984 -46.406,21.984 -9.072,0 -16.567,-1.338 -22.486,-4.01 v -27.93 c 5.919,4.297 13.367,6.445 22.344,6.445 23.297,0 34.947,-19.572 34.947,-58.723 V 287.505 h 28.646 v 141.368 z"
   id="path131"
   inkscape:connector-curvature="0" />
				<path
   d="m 784.974,429.58 c 0,26.834 -5.682,47.576 -17.044,62.232 -11.364,14.66 -26.833,21.986 -46.406,21.986 -9.072,0 -16.567,-1.338 -22.486,-4.01 v -27.93 c 5.919,4.297 13.367,6.445 22.344,6.445 23.297,0 34.947,-19.574 34.947,-58.725 V 288.213 h 28.646 V 429.58 z"
   id="path133"
   inkscape:connector-curvature="0" />
				<path
   d="m 785.683,430.289 c 0,26.834 -5.682,47.576 -17.044,62.232 -11.364,14.66 -26.833,21.986 -46.406,21.986 -9.072,0 -16.567,-1.338 -22.486,-4.01 v -27.93 c 5.919,4.297 13.367,6.445 22.344,6.445 23.297,0 34.947,-19.574 34.947,-58.725 V 288.922 h 28.646 v 141.367 z"
   id="path135"
   inkscape:connector-curvature="0" />
				<path
   d="m 786.391,430.998 c 0,26.832 -5.682,47.576 -17.044,62.232 -11.364,14.658 -26.833,21.984 -46.406,21.984 -9.072,0 -16.567,-1.338 -22.486,-4.01 v -27.93 c 5.919,4.297 13.367,6.445 22.344,6.445 23.297,0 34.947,-19.572 34.947,-58.723 V 289.63 h 28.646 v 141.368 z"
   id="path137"
   inkscape:connector-curvature="0" />
				<path
   d="m 787.1,431.707 c 0,26.832 -5.682,47.576 -17.044,62.232 -11.364,14.658 -26.833,21.984 -46.406,21.984 -9.072,0 -16.567,-1.338 -22.486,-4.01 v -27.93 c 5.919,4.297 13.367,6.445 22.344,6.445 23.297,0 34.947,-19.572 34.947,-58.723 V 290.339 H 787.1 v 141.368 z"
   id="path139"
   inkscape:connector-curvature="0" />
				<path
   d="m 787.808,432.414 c 0,26.834 -5.682,47.576 -17.044,62.232 -11.364,14.66 -26.833,21.986 -46.406,21.986 -9.072,0 -16.567,-1.338 -22.486,-4.01 v -27.93 c 5.919,4.297 13.367,6.445 22.344,6.445 23.297,0 34.947,-19.574 34.947,-58.725 V 291.047 h 28.646 v 141.367 z"
   id="path141"
   inkscape:connector-curvature="0" />
				<path
   d="m 788.517,433.123 c 0,26.834 -5.682,47.576 -17.044,62.232 -11.364,14.66 -26.833,21.986 -46.406,21.986 -9.072,0 -16.567,-1.338 -22.486,-4.01 v -27.93 c 5.919,4.297 13.367,6.445 22.344,6.445 23.297,0 34.947,-19.574 34.947,-58.725 V 291.756 h 28.646 v 141.367 z"
   id="path143"
   inkscape:connector-curvature="0" />
				<path
   d="m 789.226,433.832 c 0,26.832 -5.683,47.576 -17.044,62.232 -11.365,14.658 -26.834,21.986 -46.406,21.986 -9.073,0 -16.568,-1.34 -22.487,-4.012 v -27.93 c 5.919,4.297 13.367,6.445 22.344,6.445 23.297,0 34.948,-19.572 34.948,-58.723 V 292.464 h 28.646 v 141.368 z"
   id="path145"
   inkscape:connector-curvature="0" />
				<path
   d="m 789.934,434.541 c 0,26.832 -5.682,47.576 -17.044,62.232 -11.364,14.658 -26.833,21.984 -46.406,21.984 -9.072,0 -16.567,-1.338 -22.486,-4.01 v -27.93 c 5.919,4.297 13.367,6.445 22.344,6.445 23.297,0 34.947,-19.572 34.947,-58.723 V 293.173 h 28.646 v 141.368 z"
   id="path147"
   inkscape:connector-curvature="0" />
				<path
   d="m 790.643,435.248 c 0,26.834 -5.683,47.578 -17.044,62.234 -11.365,14.658 -26.834,21.984 -46.406,21.984 -9.073,0 -16.568,-1.338 -22.487,-4.01 v -27.93 c 5.919,4.297 13.367,6.445 22.344,6.445 23.297,0 34.948,-19.574 34.948,-58.725 V 293.881 h 28.646 v 141.367 z"
   id="path149"
   inkscape:connector-curvature="0" />
				<path
   d="m 791.351,435.957 c 0,26.834 -5.682,47.576 -17.044,62.232 -11.364,14.66 -26.833,21.986 -46.406,21.986 -9.072,0 -16.567,-1.338 -22.486,-4.01 v -27.93 c 5.919,4.297 13.367,6.445 22.344,6.445 23.297,0 34.947,-19.574 34.947,-58.725 V 294.59 h 28.646 v 141.367 z"
   id="path151"
   inkscape:connector-curvature="0" />
				<path
   d="m 792.06,436.666 c 0,26.834 -5.682,47.576 -17.044,62.232 -11.364,14.66 -26.833,21.986 -46.406,21.986 -9.072,0 -16.567,-1.338 -22.486,-4.01 v -27.93 c 5.919,4.297 13.367,6.445 22.344,6.445 23.297,0 34.947,-19.574 34.947,-58.725 V 295.299 h 28.646 v 141.367 z"
   id="path153"
   inkscape:connector-curvature="0" />
				<path
   d="m 792.768,437.375 c 0,26.832 -5.682,47.576 -17.044,62.232 -11.364,14.658 -26.833,21.984 -46.406,21.984 -9.072,0 -16.567,-1.338 -22.486,-4.01 v -27.93 c 5.919,4.297 13.367,6.445 22.344,6.445 23.297,0 34.947,-19.572 34.947,-58.723 V 296.007 h 28.646 v 141.368 z"
   id="path155"
   inkscape:connector-curvature="0" />
				<path
   d="m 793.477,438.084 c 0,26.832 -5.682,47.576 -17.044,62.232 -11.364,14.658 -26.833,21.984 -46.406,21.984 -9.072,0 -16.567,-1.338 -22.486,-4.01 v -27.93 c 5.919,4.297 13.367,6.445 22.344,6.445 23.297,0 34.947,-19.572 34.947,-58.723 V 296.716 h 28.646 v 141.368 z"
   id="path157"
   inkscape:connector-curvature="0" />
				<path
   d="m 794.185,438.791 c 0,26.834 -5.682,47.576 -17.044,62.232 -11.364,14.66 -26.833,21.986 -46.406,21.986 -9.072,0 -16.567,-1.338 -22.486,-4.01 v -27.93 c 5.919,4.297 13.367,6.445 22.344,6.445 23.297,0 34.947,-19.574 34.947,-58.725 V 297.424 h 28.646 v 141.367 z"
   id="path159"
   inkscape:connector-curvature="0" />
				<path
   d="m 794.894,439.5 c 0,26.834 -5.682,47.576 -17.044,62.232 -11.364,14.66 -26.833,21.986 -46.406,21.986 -9.072,0 -16.567,-1.338 -22.486,-4.01 v -27.93 c 5.919,4.297 13.367,6.445 22.344,6.445 23.297,0 34.947,-19.574 34.947,-58.725 V 298.133 h 28.646 V 439.5 z"
   id="path161"
   inkscape:connector-curvature="0" />
				<path
   d="m 795.602,440.209 c 0,26.832 -5.682,47.576 -17.044,62.232 -11.364,14.658 -26.833,21.984 -46.406,21.984 -9.072,0 -16.567,-1.338 -22.486,-4.01 v -27.93 c 5.919,4.297 13.367,6.445 22.344,6.445 23.297,0 34.947,-19.572 34.947,-58.723 V 298.841 h 28.646 v 141.368 z"
   id="path163"
   inkscape:connector-curvature="0" />
				<path
   d="m 796.311,440.918 c 0,26.832 -5.682,47.576 -17.044,62.232 -11.364,14.658 -26.833,21.984 -46.406,21.984 -9.072,0 -16.567,-1.338 -22.486,-4.01 v -27.93 c 5.919,4.297 13.367,6.445 22.344,6.445 23.297,0 34.947,-19.572 34.947,-58.723 V 299.55 h 28.646 v 141.368 z"
   id="path165"
   inkscape:connector-curvature="0" />
				<path
   d="m 797.019,441.625 c 0,26.834 -5.682,47.576 -17.044,62.232 -11.364,14.66 -26.833,21.986 -46.406,21.986 -9.072,0 -16.567,-1.338 -22.486,-4.01 v -27.93 c 5.919,4.297 13.367,6.445 22.344,6.445 23.297,0 34.947,-19.574 34.947,-58.725 V 300.258 h 28.646 v 141.367 z"
   id="path167"
   inkscape:connector-curvature="0" />
				<path
   d="m 797.728,442.334 c 0,26.834 -5.682,47.576 -17.044,62.232 -11.364,14.66 -26.833,21.986 -46.406,21.986 -9.072,0 -16.567,-1.338 -22.486,-4.01 v -27.93 c 5.919,4.297 13.367,6.445 22.344,6.445 23.297,0 34.947,-19.574 34.947,-58.725 V 300.967 h 28.646 v 141.367 z"
   id="path169"
   inkscape:connector-curvature="0" />
				<path
   d="m 798.437,443.043 c 0,26.832 -5.683,47.576 -17.044,62.232 -11.365,14.658 -26.834,21.986 -46.406,21.986 -9.073,0 -16.568,-1.34 -22.487,-4.012 v -27.93 c 5.919,4.297 13.367,6.445 22.344,6.445 23.297,0 34.948,-19.572 34.948,-58.723 V 301.675 h 28.646 v 141.368 z"
   id="path171"
   inkscape:connector-curvature="0" />
				<path
   d="m 799.145,443.752 c 0,26.832 -5.682,47.576 -17.044,62.232 -11.364,14.658 -26.833,21.984 -46.406,21.984 -9.072,0 -16.567,-1.338 -22.486,-4.01 v -27.93 c 5.919,4.297 13.367,6.445 22.344,6.445 23.297,0 34.947,-19.572 34.947,-58.723 V 302.384 h 28.646 v 141.368 z"
   id="path173"
   inkscape:connector-curvature="0" />
				<path
   d="m 799.854,444.459 c 0,26.834 -5.683,47.578 -17.044,62.234 -11.365,14.658 -26.834,21.984 -46.406,21.984 -9.073,0 -16.568,-1.338 -22.487,-4.01 v -27.93 c 5.919,4.297 13.367,6.445 22.344,6.445 23.297,0 34.948,-19.574 34.948,-58.725 V 303.092 h 28.646 v 141.367 z"
   id="path175"
   inkscape:connector-curvature="0" />
				<path
   d="m 800.562,445.168 c 0,26.834 -5.682,47.576 -17.044,62.232 -11.364,14.66 -26.833,21.986 -46.406,21.986 -9.072,0 -16.567,-1.338 -22.486,-4.01 v -27.93 c 5.919,4.297 13.367,6.445 22.344,6.445 23.297,0 34.947,-19.574 34.947,-58.725 V 303.801 h 28.646 v 141.367 z"
   id="path177"
   inkscape:connector-curvature="0" />
				<path
   d="m 801.271,445.877 c 0,26.832 -5.683,47.576 -17.044,62.232 -11.365,14.658 -26.834,21.986 -46.406,21.986 -9.073,0 -16.568,-1.34 -22.487,-4.012 v -27.93 c 5.919,4.297 13.367,6.445 22.344,6.445 23.297,0 34.948,-19.572 34.948,-58.723 V 304.509 h 28.646 v 141.368 z"
   id="path179"
   inkscape:connector-curvature="0" />
				<path
   d="m 801.979,446.586 c 0,26.832 -5.682,47.576 -17.044,62.232 -11.364,14.658 -26.833,21.984 -46.406,21.984 -9.072,0 -16.567,-1.338 -22.486,-4.01 v -27.93 c 5.919,4.297 13.367,6.445 22.344,6.445 23.297,0 34.947,-19.572 34.947,-58.723 V 305.218 h 28.646 v 141.368 z"
   id="path181"
   inkscape:connector-curvature="0" />
				<path
   d="m 802.688,447.295 c 0,26.832 -5.682,47.576 -17.044,62.232 -11.364,14.658 -26.833,21.984 -46.406,21.984 -9.072,0 -16.567,-1.338 -22.486,-4.01 v -27.93 c 5.919,4.297 13.367,6.445 22.344,6.445 23.297,0 34.947,-19.572 34.947,-58.723 V 305.927 h 28.646 v 141.368 z"
   id="path183"
   inkscape:connector-curvature="0" />
				<path
   d="m 803.396,448.002 c 0,26.834 -5.682,47.576 -17.044,62.232 -11.364,14.66 -26.833,21.986 -46.406,21.986 -9.072,0 -16.567,-1.338 -22.486,-4.01 v -27.93 c 5.919,4.297 13.367,6.445 22.344,6.445 23.297,0 34.947,-19.574 34.947,-58.725 V 306.635 h 28.646 v 141.367 z"
   id="path185"
   inkscape:connector-curvature="0" />
				<path
   d="m 804.104,448.711 c 0,26.834 -5.682,47.576 -17.044,62.232 -11.364,14.66 -26.833,21.986 -46.406,21.986 -9.072,0 -16.567,-1.338 -22.486,-4.01 v -27.93 c 5.919,4.297 13.367,6.445 22.344,6.445 23.297,0 34.947,-19.574 34.947,-58.725 V 307.344 h 28.646 v 141.367 z"
   id="path187"
   inkscape:connector-curvature="0" />
				<path
   d="m 804.813,449.42 c 0,26.832 -5.682,47.576 -17.044,62.232 -11.364,14.658 -26.833,21.984 -46.406,21.984 -9.072,0 -16.567,-1.338 -22.486,-4.01 v -27.93 c 5.919,4.297 13.367,6.445 22.344,6.445 23.297,0 34.947,-19.572 34.947,-58.723 V 308.052 h 28.646 V 449.42 z"
   id="path189"
   inkscape:connector-curvature="0" />
				<path
   d="m 805.521,450.129 c 0,26.832 -5.682,47.576 -17.044,62.232 -11.364,14.658 -26.833,21.984 -46.406,21.984 -9.072,0 -16.567,-1.338 -22.486,-4.01 v -27.93 c 5.919,4.297 13.367,6.445 22.344,6.445 23.297,0 34.947,-19.572 34.947,-58.723 V 308.761 h 28.646 v 141.368 z"
   id="path191"
   inkscape:connector-curvature="0" />
				<path
   d="m 806.229,450.836 c 0,26.834 -5.682,47.576 -17.044,62.232 -11.364,14.66 -26.833,21.986 -46.406,21.986 -9.072,0 -16.567,-1.338 -22.486,-4.01 v -27.93 c 5.919,4.297 13.367,6.445 22.344,6.445 23.297,0 34.947,-19.574 34.947,-58.725 V 309.469 h 28.646 v 141.367 z"
   id="path193"
   inkscape:connector-curvature="0" />
				<path
   d="m 806.938,451.545 c 0,26.834 -5.682,47.576 -17.044,62.232 -11.364,14.66 -26.833,21.986 -46.406,21.986 -9.072,0 -16.567,-1.338 -22.486,-4.01 v -27.93 c 5.919,4.297 13.367,6.445 22.344,6.445 23.297,0 34.947,-19.574 34.947,-58.725 V 310.178 h 28.646 v 141.367 z"
   id="path195"
   inkscape:connector-curvature="0" />
				<path
   d="m 807.647,452.254 c 0,26.832 -5.683,47.576 -17.044,62.232 -11.365,14.658 -26.834,21.986 -46.406,21.986 -9.073,0 -16.568,-1.34 -22.487,-4.012 v -27.93 c 5.919,4.297 13.367,6.445 22.344,6.445 23.297,0 34.948,-19.572 34.948,-58.723 V 310.886 h 28.646 v 141.368 z"
   id="path197"
   inkscape:connector-curvature="0" />
				<path
   d="m 808.355,452.963 c 0,26.832 -5.682,47.576 -17.044,62.232 -11.364,14.658 -26.833,21.984 -46.406,21.984 -9.072,0 -16.567,-1.338 -22.486,-4.01 v -27.93 c 5.919,4.297 13.367,6.445 22.344,6.445 23.297,0 34.947,-19.572 34.947,-58.723 V 311.595 h 28.646 v 141.368 z"
   id="path199"
   inkscape:connector-curvature="0" />
				<path
   d="m 809.064,453.67 c 0,26.834 -5.683,47.578 -17.044,62.234 -11.365,14.658 -26.834,21.984 -46.406,21.984 -9.073,0 -16.568,-1.338 -22.487,-4.01 v -27.93 c 5.919,4.297 13.367,6.445 22.344,6.445 23.297,0 34.948,-19.574 34.948,-58.725 V 312.303 h 28.646 V 453.67 z"
   id="path201"
   inkscape:connector-curvature="0" />
				<path
   d="m 809.772,454.379 c 0,26.834 -5.682,47.576 -17.044,62.232 -11.364,14.66 -26.833,21.986 -46.406,21.986 -9.072,0 -16.567,-1.338 -22.486,-4.01 v -27.93 c 5.919,4.297 13.367,6.445 22.344,6.445 23.297,0 34.947,-19.574 34.947,-58.725 V 313.012 h 28.646 v 141.367 z"
   id="path203"
   inkscape:connector-curvature="0" />
				<path
   d="m 810.481,455.088 c 0,26.832 -5.683,47.576 -17.044,62.232 -11.365,14.658 -26.834,21.986 -46.406,21.986 -9.073,0 -16.568,-1.34 -22.487,-4.012 v -27.93 c 5.919,4.297 13.367,6.445 22.344,6.445 23.297,0 34.948,-19.572 34.948,-58.723 V 313.72 h 28.646 v 141.368 z"
   id="path205"
   inkscape:connector-curvature="0" />
				<path
   d="m 811.189,455.797 c 0,26.832 -5.682,47.576 -17.044,62.232 -11.364,14.658 -26.833,21.984 -46.406,21.984 -9.072,0 -16.567,-1.338 -22.486,-4.01 v -27.93 c 5.919,4.297 13.367,6.445 22.344,6.445 23.297,0 34.947,-19.572 34.947,-58.723 V 314.429 h 28.646 v 141.368 z"
   id="path207"
   inkscape:connector-curvature="0" />
				<path
   d="m 811.898,456.506 c 0,26.832 -5.682,47.576 -17.044,62.232 -11.364,14.658 -26.833,21.984 -46.406,21.984 -9.072,0 -16.567,-1.338 -22.486,-4.01 v -27.93 c 5.919,4.297 13.367,6.445 22.344,6.445 23.297,0 34.947,-19.572 34.947,-58.723 V 315.138 h 28.646 v 141.368 z"
   id="path209"
   inkscape:connector-curvature="0" />
				<path
   d="m 812.606,457.213 c 0,26.834 -5.682,47.576 -17.044,62.232 -11.364,14.66 -26.833,21.986 -46.406,21.986 -9.072,0 -16.567,-1.338 -22.486,-4.01 v -27.93 c 5.919,4.297 13.367,6.445 22.344,6.445 23.297,0 34.947,-19.574 34.947,-58.725 V 315.846 h 28.646 v 141.367 z"
   id="path211"
   inkscape:connector-curvature="0" />
				<path
   d="m 813.315,457.922 c 0,26.834 -5.682,47.576 -17.044,62.232 -11.364,14.66 -26.833,21.986 -46.406,21.986 -9.072,0 -16.567,-1.338 -22.486,-4.01 V 510.2 c 5.919,4.297 13.367,6.445 22.344,6.445 23.297,0 34.947,-19.574 34.947,-58.725 V 316.555 h 28.646 v 141.367 z"
   id="path213"
   inkscape:connector-curvature="0" />
				<path
   d="m 814.023,458.631 c 0,26.832 -5.682,47.576 -17.044,62.232 -11.364,14.658 -26.833,21.984 -46.406,21.984 -9.072,0 -16.567,-1.338 -22.486,-4.01 v -27.93 c 5.919,4.297 13.367,6.445 22.344,6.445 23.297,0 34.947,-19.572 34.947,-58.723 V 317.263 h 28.646 v 141.368 z"
   id="path215"
   inkscape:connector-curvature="0" />
				<path
   d="m 814.732,459.34 c 0,26.832 -5.682,47.576 -17.044,62.232 -11.364,14.658 -26.833,21.984 -46.406,21.984 -9.072,0 -16.567,-1.338 -22.486,-4.01 v -27.93 c 5.919,4.297 13.367,6.445 22.344,6.445 23.297,0 34.947,-19.572 34.947,-58.723 V 317.972 h 28.646 V 459.34 z"
   id="path217"
   inkscape:connector-curvature="0" />
				<path
   d="m 815.441,460.047 c 0,26.834 -5.683,47.578 -17.044,62.234 -11.365,14.658 -26.834,21.984 -46.406,21.984 -9.073,0 -16.568,-1.338 -22.487,-4.01 v -27.93 c 5.919,4.297 13.367,6.445 22.344,6.445 23.297,0 34.948,-19.574 34.948,-58.725 V 318.68 h 28.646 v 141.367 z"
   id="path219"
   inkscape:connector-curvature="0" />
				<path
   d="m 816.149,460.756 c 0,26.834 -5.682,47.576 -17.044,62.232 -11.364,14.66 -26.833,21.986 -46.406,21.986 -9.072,0 -16.567,-1.338 -22.486,-4.01 v -27.93 c 5.919,4.297 13.367,6.445 22.344,6.445 23.297,0 34.947,-19.574 34.947,-58.725 V 319.389 h 28.646 v 141.367 z"
   id="path221"
   inkscape:connector-curvature="0" />
				<path
   d="m 816.858,461.465 c 0,26.832 -5.683,47.576 -17.044,62.232 -11.365,14.658 -26.834,21.986 -46.406,21.986 -9.073,0 -16.568,-1.34 -22.487,-4.012 v -27.93 c 5.919,4.297 13.367,6.445 22.344,6.445 23.297,0 34.948,-19.572 34.948,-58.723 V 320.097 h 28.646 v 141.368 z"
   id="path223"
   inkscape:connector-curvature="0" />
				<path
   d="m 817.566,462.174 c 0,26.832 -5.682,47.576 -17.044,62.232 -11.364,14.658 -26.833,21.984 -46.406,21.984 -9.072,0 -16.567,-1.338 -22.486,-4.01 v -27.93 c 5.919,4.297 13.367,6.445 22.344,6.445 23.297,0 34.947,-19.572 34.947,-58.723 V 320.806 h 28.646 v 141.368 z"
   id="path225"
   inkscape:connector-curvature="0" />
				<path
   d="m 818.275,462.881 c 0,26.834 -5.683,47.578 -17.044,62.234 -11.365,14.658 -26.834,21.984 -46.406,21.984 -9.073,0 -16.568,-1.338 -22.487,-4.01 v -27.93 c 5.919,4.297 13.367,6.445 22.344,6.445 23.297,0 34.948,-19.574 34.948,-58.725 V 321.514 h 28.646 v 141.367 z"
   id="path227"
   inkscape:connector-curvature="0" />
				<path
   d="m 818.983,463.59 c 0,26.834 -5.682,47.576 -17.044,62.232 -11.364,14.66 -26.833,21.986 -46.406,21.986 -9.072,0 -16.567,-1.338 -22.486,-4.01 v -27.93 c 5.919,4.297 13.367,6.445 22.344,6.445 23.297,0 34.947,-19.574 34.947,-58.725 V 322.223 h 28.646 V 463.59 z"
   id="path229"
   inkscape:connector-curvature="0" />
				<path
   d="m 819.692,464.299 c 0,26.832 -5.683,47.576 -17.044,62.232 -11.365,14.658 -26.834,21.986 -46.406,21.986 -9.073,0 -16.568,-1.34 -22.487,-4.012 v -27.93 c 5.919,4.297 13.367,6.445 22.344,6.445 23.297,0 34.948,-19.572 34.948,-58.723 V 322.931 h 28.646 v 141.368 z"
   id="path231"
   inkscape:connector-curvature="0" />
				<path
   d="m 820.4,465.008 c 0,26.832 -5.682,47.576 -17.044,62.232 -11.364,14.658 -26.833,21.984 -46.406,21.984 -9.072,0 -16.567,-1.338 -22.486,-4.01 v -27.93 c 5.919,4.297 13.367,6.445 22.344,6.445 23.297,0 34.947,-19.572 34.947,-58.723 V 323.64 H 820.4 v 141.368 z"
   id="path233"
   inkscape:connector-curvature="0" />
				<path
   d="m 821.109,465.717 c 0,26.832 -5.682,47.576 -17.044,62.232 -11.364,14.658 -26.833,21.984 -46.406,21.984 -9.072,0 -16.567,-1.338 -22.486,-4.01 v -27.93 c 5.919,4.297 13.367,6.445 22.344,6.445 23.297,0 34.947,-19.572 34.947,-58.723 V 324.349 h 28.646 v 141.368 z"
   id="path235"
   inkscape:connector-curvature="0" />
				<path
   d="m 821.817,466.424 c 0,26.834 -5.682,47.576 -17.044,62.232 -11.364,14.66 -26.833,21.986 -46.406,21.986 -9.072,0 -16.567,-1.338 -22.486,-4.01 v -27.93 c 5.919,4.297 13.367,6.445 22.344,6.445 23.297,0 34.947,-19.574 34.947,-58.725 V 325.057 h 28.646 v 141.367 z"
   id="path237"
   inkscape:connector-curvature="0" />
				<path
   d="m 822.526,467.133 c 0,26.834 -5.682,47.576 -17.044,62.232 -11.364,14.66 -26.833,21.986 -46.406,21.986 -9.072,0 -16.567,-1.338 -22.486,-4.01 v -27.93 c 5.919,4.297 13.367,6.445 22.344,6.445 23.297,0 34.947,-19.574 34.947,-58.725 V 325.766 h 28.646 v 141.367 z"
   id="path239"
   inkscape:connector-curvature="0" />
				<path
   d="m 823.234,467.842 c 0,26.832 -5.682,47.576 -17.044,62.232 -11.364,14.658 -26.833,21.984 -46.406,21.984 -9.072,0 -16.567,-1.338 -22.486,-4.01 v -27.93 c 5.919,4.297 13.367,6.445 22.344,6.445 23.297,0 34.947,-19.572 34.947,-58.723 V 326.474 h 28.646 v 141.368 z"
   id="path241"
   inkscape:connector-curvature="0" />
				<path
   d="m 823.943,468.551 c 0,26.832 -5.682,47.576 -17.044,62.232 -11.364,14.658 -26.833,21.984 -46.406,21.984 -9.072,0 -16.567,-1.338 -22.486,-4.01 v -27.93 c 5.919,4.297 13.367,6.445 22.344,6.445 23.297,0 34.947,-19.572 34.947,-58.723 V 327.183 h 28.646 v 141.368 z"
   id="path243"
   inkscape:connector-curvature="0" />
				<path
   d="m 824.652,469.258 c 0,26.834 -5.683,47.578 -17.044,62.234 -11.365,14.658 -26.834,21.984 -46.406,21.984 -9.073,0 -16.568,-1.338 -22.487,-4.01 v -27.93 c 5.919,4.297 13.367,6.445 22.344,6.445 23.297,0 34.948,-19.574 34.948,-58.725 V 327.891 h 28.646 v 141.367 z"
   id="path245"
   inkscape:connector-curvature="0" />
				<path
   d="m 825.36,469.967 c 0,26.834 -5.682,47.576 -17.044,62.232 -11.364,14.66 -26.833,21.986 -46.406,21.986 -9.072,0 -16.567,-1.338 -22.486,-4.01 v -27.93 c 5.919,4.297 13.367,6.445 22.344,6.445 23.297,0 34.947,-19.574 34.947,-58.725 V 328.6 h 28.646 v 141.367 z"
   id="path247"
   inkscape:connector-curvature="0" />
				<path
   d="m 826.069,470.676 c 0,26.832 -5.683,47.576 -17.044,62.232 -11.365,14.658 -26.834,21.986 -46.406,21.986 -9.073,0 -16.568,-1.34 -22.487,-4.012 v -27.93 c 5.919,4.297 13.367,6.445 22.344,6.445 23.297,0 34.948,-19.572 34.948,-58.723 V 329.308 h 28.646 v 141.368 z"
   id="path249"
   inkscape:connector-curvature="0" />
				<path
   d="m 826.777,471.385 c 0,26.832 -5.682,47.576 -17.044,62.232 -11.364,14.658 -26.833,21.984 -46.406,21.984 -9.072,0 -16.567,-1.338 -22.486,-4.01 v -27.93 c 5.919,4.297 13.367,6.445 22.344,6.445 23.297,0 34.947,-19.572 34.947,-58.723 V 330.017 h 28.646 v 141.368 z"
   id="path251"
   inkscape:connector-curvature="0" />
				<path
   d="m 827.486,472.092 c 0,26.834 -5.683,47.578 -17.044,62.234 -11.365,14.658 -26.834,21.984 -46.406,21.984 -9.073,0 -16.568,-1.338 -22.487,-4.01 v -27.93 c 5.919,4.297 13.367,6.445 22.344,6.445 23.297,0 34.948,-19.574 34.948,-58.725 V 330.725 h 28.646 v 141.367 z"
   id="path253"
   inkscape:connector-curvature="0" />
				<path
   d="m 828.194,472.801 c 0,26.834 -5.682,47.576 -17.044,62.232 -11.364,14.66 -26.833,21.986 -46.406,21.986 -9.072,0 -16.567,-1.338 -22.486,-4.01 v -27.93 c 5.919,4.297 13.367,6.445 22.344,6.445 23.297,0 34.947,-19.574 34.947,-58.725 V 331.434 h 28.646 v 141.367 z"
   id="path255"
   inkscape:connector-curvature="0" />
				<path
   d="m 828.903,473.51 c 0,26.832 -5.683,47.576 -17.044,62.232 -11.365,14.658 -26.834,21.986 -46.406,21.986 -9.073,0 -16.568,-1.34 -22.487,-4.012 v -27.93 c 5.919,4.297 13.367,6.445 22.344,6.445 23.297,0 34.948,-19.572 34.948,-58.723 V 332.142 h 28.646 V 473.51 z"
   id="path257"
   inkscape:connector-curvature="0" />
				<path
   d="m 829.611,474.219 c 0,26.832 -5.682,47.576 -17.044,62.232 -11.364,14.658 -26.833,21.984 -46.406,21.984 -9.072,0 -16.567,-1.338 -22.486,-4.01 v -27.93 c 5.919,4.297 13.367,6.445 22.344,6.445 23.297,0 34.947,-19.572 34.947,-58.723 V 332.851 h 28.646 v 141.368 z"
   id="path259"
   inkscape:connector-curvature="0" />
				<path
   d="m 830.32,474.926 c 0,26.834 -5.683,47.578 -17.044,62.234 -11.365,14.658 -26.834,21.984 -46.406,21.984 -9.073,0 -16.568,-1.338 -22.487,-4.01 v -27.93 c 5.919,4.297 13.367,6.445 22.344,6.445 23.297,0 34.948,-19.574 34.948,-58.725 V 333.559 h 28.646 v 141.367 z"
   id="path261"
   inkscape:connector-curvature="0" />
				<path
   d="m 831.028,475.635 c 0,26.834 -5.682,47.576 -17.044,62.232 -11.364,14.66 -26.833,21.986 -46.406,21.986 -9.072,0 -16.567,-1.338 -22.486,-4.01 v -27.93 c 5.919,4.297 13.367,6.445 22.344,6.445 23.297,0 34.947,-19.574 34.947,-58.725 V 334.268 h 28.646 v 141.367 z"
   id="path263"
   inkscape:connector-curvature="0" />
				<path
   d="m 831.737,476.344 c 0,26.834 -5.682,47.576 -17.044,62.232 -11.364,14.66 -26.833,21.986 -46.406,21.986 -9.072,0 -16.567,-1.338 -22.486,-4.01 v -27.93 c 5.919,4.297 13.367,6.445 22.344,6.445 23.297,0 34.947,-19.574 34.947,-58.725 V 334.977 h 28.646 v 141.367 z"
   id="path265"
   inkscape:connector-curvature="0" />
				<path
   d="m 832.446,477.053 c 0,26.832 -5.683,47.576 -17.044,62.232 -11.365,14.658 -26.834,21.986 -46.406,21.986 -9.073,0 -16.568,-1.34 -22.487,-4.012 v -27.93 c 5.919,4.297 13.367,6.445 22.344,6.445 23.297,0 34.948,-19.572 34.948,-58.723 V 335.685 h 28.646 v 141.368 z"
   id="path267"
   inkscape:connector-curvature="0" />
				<path
   d="m 833.154,477.762 c 0,26.832 -5.682,47.576 -17.044,62.232 -11.364,14.658 -26.833,21.984 -46.406,21.984 -9.072,0 -16.567,-1.338 -22.486,-4.01 v -27.93 c 5.919,4.297 13.367,6.445 22.344,6.445 23.297,0 34.947,-19.572 34.947,-58.723 V 336.394 h 28.646 v 141.368 z"
   id="path269"
   inkscape:connector-curvature="0" />
				<path
   d="m 833.863,478.469 c 0,26.834 -5.683,47.578 -17.044,62.234 -11.365,14.658 -26.834,21.984 -46.406,21.984 -9.073,0 -16.568,-1.338 -22.487,-4.01 v -27.93 c 5.919,4.297 13.367,6.445 22.344,6.445 23.297,0 34.948,-19.574 34.948,-58.725 V 337.102 h 28.646 v 141.367 z"
   id="path271"
   inkscape:connector-curvature="0" />
				<path
   d="m 834.571,479.178 c 0,26.834 -5.682,47.576 -17.044,62.232 -11.364,14.66 -26.833,21.986 -46.406,21.986 -9.072,0 -16.567,-1.338 -22.486,-4.01 v -27.93 c 5.919,4.297 13.367,6.445 22.344,6.445 23.297,0 34.947,-19.574 34.947,-58.725 V 337.811 h 28.646 v 141.367 z"
   id="path273"
   inkscape:connector-curvature="0" />
				<path
   d="m 835.28,479.887 c 0,26.832 -5.683,47.576 -17.044,62.232 -11.365,14.658 -26.834,21.986 -46.406,21.986 -9.073,0 -16.568,-1.34 -22.487,-4.012 v -27.93 c 5.919,4.297 13.367,6.445 22.344,6.445 23.297,0 34.948,-19.572 34.948,-58.723 V 338.519 h 28.646 v 141.368 z"
   id="path275"
   inkscape:connector-curvature="0" />
				<path
   d="m 835.988,480.596 c 0,26.832 -5.682,47.576 -17.044,62.232 -11.364,14.658 -26.833,21.984 -46.406,21.984 -9.072,0 -16.567,-1.338 -22.486,-4.01 v -27.93 c 5.919,4.297 13.367,6.445 22.344,6.445 23.297,0 34.947,-19.572 34.947,-58.723 V 339.228 h 28.646 v 141.368 z"
   id="path277"
   inkscape:connector-curvature="0" />
				<path
   d="m 836.697,481.303 c 0,26.834 -5.683,47.578 -17.044,62.234 -11.365,14.658 -26.834,21.984 -46.406,21.984 -9.073,0 -16.568,-1.338 -22.487,-4.01 v -27.93 c 5.919,4.297 13.367,6.445 22.344,6.445 23.297,0 34.948,-19.574 34.948,-58.725 V 339.936 h 28.646 v 141.367 z"
   id="path279"
   inkscape:connector-curvature="0" />
				<path
   d="m 837.405,482.012 c 0,26.834 -5.682,47.576 -17.044,62.232 -11.364,14.66 -26.833,21.986 -46.406,21.986 -9.072,0 -16.567,-1.338 -22.486,-4.01 v -27.93 c 5.919,4.297 13.367,6.445 22.344,6.445 23.297,0 34.947,-19.574 34.947,-58.725 V 340.645 h 28.646 v 141.367 z"
   id="path281"
   inkscape:connector-curvature="0" />
				<path
   d="m 838.114,482.721 c 0,26.832 -5.683,47.576 -17.044,62.232 -11.365,14.658 -26.834,21.986 -46.406,21.986 -9.073,0 -16.568,-1.34 -22.487,-4.012 v -27.93 c 5.919,4.297 13.367,6.445 22.344,6.445 23.297,0 34.948,-19.572 34.948,-58.723 V 341.353 h 28.646 v 141.368 z"
   id="path283"
   inkscape:connector-curvature="0" />
				<path
   d="m 838.822,483.43 c 0,26.832 -5.682,47.576 -17.044,62.232 -11.364,14.658 -26.833,21.984 -46.406,21.984 -9.072,0 -16.567,-1.338 -22.486,-4.01 v -27.93 c 5.919,4.297 13.367,6.445 22.344,6.445 23.297,0 34.947,-19.572 34.947,-58.723 V 342.062 h 28.646 V 483.43 z"
   id="path285"
   inkscape:connector-curvature="0" />
				<path
   d="m 839.531,484.137 c 0,26.834 -5.683,47.578 -17.044,62.234 -11.365,14.658 -26.834,21.984 -46.406,21.984 -9.073,0 -16.568,-1.338 -22.487,-4.01 v -27.93 c 5.919,4.297 13.367,6.445 22.344,6.445 23.297,0 34.948,-19.574 34.948,-58.725 V 342.77 h 28.646 v 141.367 z"
   id="path287"
   inkscape:connector-curvature="0" />
				<path
   d="m 840.24,484.846 c 0,26.834 -5.683,47.578 -17.044,62.234 -11.365,14.658 -26.834,21.984 -46.406,21.984 -9.073,0 -16.568,-1.338 -22.487,-4.01 v -27.93 c 5.919,4.297 13.367,6.445 22.344,6.445 23.297,0 34.948,-19.574 34.948,-58.725 V 343.479 h 28.646 v 141.367 z"
   id="path289"
   inkscape:connector-curvature="0" />
				<path
   d="m 840.948,485.555 c 0,26.834 -5.682,47.576 -17.044,62.232 -11.364,14.66 -26.833,21.986 -46.406,21.986 -9.072,0 -16.567,-1.338 -22.486,-4.01 v -27.93 c 5.919,4.297 13.367,6.445 22.344,6.445 23.297,0 34.947,-19.574 34.947,-58.725 V 344.188 h 28.646 v 141.367 z"
   id="path291"
   inkscape:connector-curvature="0" />
				<path
   d="m 841.657,486.264 c 0,26.832 -5.683,47.576 -17.044,62.232 -11.365,14.658 -26.834,21.986 -46.406,21.986 -9.073,0 -16.568,-1.34 -22.487,-4.012 v -27.93 c 5.919,4.297 13.367,6.445 22.344,6.445 23.297,0 34.948,-19.572 34.948,-58.723 V 344.896 h 28.646 v 141.368 z"
   id="path293"
   inkscape:connector-curvature="0" />
				<path
   d="m 842.365,486.973 c 0,26.832 -5.682,47.576 -17.044,62.232 -11.364,14.658 -26.833,21.984 -46.406,21.984 -9.072,0 -16.567,-1.338 -22.486,-4.01 v -27.93 c 5.919,4.297 13.367,6.445 22.344,6.445 23.297,0 34.947,-19.572 34.947,-58.723 V 345.605 h 28.646 v 141.368 z"
   id="path295"
   inkscape:connector-curvature="0" />
				<path
   d="m 843.074,487.68 c 0,26.834 -5.683,47.578 -17.044,62.234 -11.365,14.658 -26.834,21.984 -46.406,21.984 -9.073,0 -16.568,-1.338 -22.487,-4.01 v -27.93 c 5.919,4.297 13.367,6.445 22.344,6.445 23.297,0 34.948,-19.574 34.948,-58.725 V 346.313 h 28.646 V 487.68 z"
   id="path297"
   inkscape:connector-curvature="0" />
				<path
   d="m 843.782,488.389 c 0,26.834 -5.682,47.576 -17.044,62.232 -11.364,14.66 -26.833,21.986 -46.406,21.986 -9.072,0 -16.567,-1.338 -22.486,-4.01 v -27.93 c 5.919,4.297 13.367,6.445 22.344,6.445 23.297,0 34.947,-19.574 34.947,-58.725 V 347.022 h 28.646 v 141.367 z"
   id="path299"
   inkscape:connector-curvature="0" />
				<path
   d="m 844.491,489.098 c 0,26.832 -5.683,47.576 -17.044,62.232 -11.365,14.658 -26.834,21.986 -46.406,21.986 -9.073,0 -16.568,-1.34 -22.487,-4.012 v -27.93 c 5.919,4.297 13.367,6.445 22.344,6.445 23.297,0 34.948,-19.572 34.948,-58.723 V 347.73 h 28.646 v 141.368 z"
   id="path301"
   inkscape:connector-curvature="0" />
				<path
   d="m 845.199,489.807 c 0,26.832 -5.682,47.576 -17.044,62.232 -11.364,14.658 -26.833,21.984 -46.406,21.984 -9.072,0 -16.567,-1.338 -22.486,-4.01 v -27.93 c 5.919,4.297 13.367,6.445 22.344,6.445 23.297,0 34.947,-19.572 34.947,-58.723 V 348.439 H 845.2 v 141.368 z"
   id="path303"
   inkscape:connector-curvature="0" />
				<path
   d="m 845.908,490.514 c 0,26.834 -5.683,47.578 -17.044,62.234 -11.365,14.658 -26.834,21.984 -46.406,21.984 -9.073,0 -16.568,-1.338 -22.487,-4.01 v -27.93 c 5.919,4.297 13.367,6.445 22.344,6.445 23.297,0 34.948,-19.574 34.948,-58.725 V 349.147 h 28.646 v 141.367 z"
   id="path305"
   inkscape:connector-curvature="0" />
				<path
   d="m 846.616,491.223 c 0,26.834 -5.682,47.576 -17.044,62.232 -11.364,14.66 -26.833,21.986 -46.406,21.986 -9.072,0 -16.567,-1.338 -22.486,-4.01 v -27.93 c 5.919,4.297 13.367,6.445 22.344,6.445 23.297,0 34.947,-19.574 34.947,-58.725 V 349.856 h 28.646 v 141.367 z"
   id="path307"
   inkscape:connector-curvature="0" />
				<path
   d="m 847.325,491.932 c 0,26.832 -5.683,47.576 -17.044,62.232 -11.365,14.658 -26.834,21.986 -46.406,21.986 -9.073,0 -16.568,-1.34 -22.487,-4.012 v -27.93 c 5.919,4.297 13.367,6.445 22.344,6.445 23.297,0 34.948,-19.572 34.948,-58.723 V 350.564 h 28.646 v 141.368 z"
   id="path309"
   inkscape:connector-curvature="0" />
				<path
   d="m 848.033,492.641 c 0,26.832 -5.682,47.576 -17.044,62.232 -11.364,14.658 -26.833,21.984 -46.406,21.984 -9.072,0 -16.567,-1.338 -22.486,-4.01 v -27.93 c 5.919,4.297 13.367,6.445 22.344,6.445 23.297,0 34.947,-19.572 34.947,-58.723 V 351.273 h 28.646 v 141.368 z"
   id="path311"
   inkscape:connector-curvature="0" />
				<path
   d="m 848.742,493.348 c 0,26.834 -5.683,47.578 -17.044,62.234 -11.365,14.658 -26.834,21.984 -46.406,21.984 -9.073,0 -16.568,-1.338 -22.487,-4.01 v -27.93 c 5.919,4.297 13.367,6.445 22.344,6.445 23.297,0 34.948,-19.574 34.948,-58.725 V 351.981 h 28.646 v 141.367 z"
   id="path313"
   inkscape:connector-curvature="0" />
				<path
   d="m 849.451,494.057 c 0,26.834 -5.683,47.578 -17.044,62.234 -11.365,14.658 -26.834,21.984 -46.406,21.984 -9.073,0 -16.568,-1.338 -22.487,-4.01 v -27.93 c 5.919,4.297 13.367,6.445 22.344,6.445 23.297,0 34.948,-19.574 34.948,-58.725 V 352.69 h 28.646 v 141.367 z"
   id="path315"
   inkscape:connector-curvature="0" />
				<path
   d="m 850.159,494.766 c 0,26.832 -5.683,47.576 -17.044,62.232 -11.365,14.658 -26.834,21.986 -46.406,21.986 -9.073,0 -16.568,-1.34 -22.487,-4.012 v -27.93 c 5.919,4.297 13.367,6.445 22.344,6.445 23.297,0 34.948,-19.572 34.948,-58.723 V 353.398 h 28.646 v 141.368 z"
   id="path317"
   inkscape:connector-curvature="0" />
				<path
   d="m 850.868,495.475 c 0,26.832 -5.683,47.576 -17.044,62.232 -11.365,14.658 -26.834,21.986 -46.406,21.986 -9.073,0 -16.568,-1.34 -22.487,-4.012 v -27.93 c 5.919,4.297 13.367,6.445 22.344,6.445 23.297,0 34.948,-19.572 34.948,-58.723 V 354.107 h 28.646 v 141.368 z"
   id="path319"
   inkscape:connector-curvature="0" />
				<path
   d="m 851.576,496.184 c 0,26.832 -5.682,47.576 -17.044,62.232 -11.364,14.658 -26.833,21.984 -46.406,21.984 -9.072,0 -16.567,-1.338 -22.486,-4.01 v -27.93 c 5.919,4.297 13.367,6.445 22.344,6.445 23.297,0 34.947,-19.572 34.947,-58.723 V 354.816 h 28.646 v 141.368 z"
   id="path321"
   inkscape:connector-curvature="0" />
				<path
   d="m 852.285,496.891 c 0,26.834 -5.683,47.578 -17.044,62.234 -11.365,14.658 -26.834,21.984 -46.406,21.984 -9.073,0 -16.568,-1.338 -22.487,-4.01 v -27.93 c 5.919,4.297 13.367,6.445 22.344,6.445 23.297,0 34.948,-19.574 34.948,-58.725 V 355.524 h 28.646 v 141.367 z"
   id="path323"
   inkscape:connector-curvature="0" />
				<path
   d="m 852.993,497.6 c 0,26.834 -5.682,47.576 -17.044,62.232 -11.364,14.66 -26.833,21.986 -46.406,21.986 -9.072,0 -16.567,-1.338 -22.486,-4.01 v -27.93 c 5.919,4.297 13.367,6.445 22.344,6.445 23.297,0 34.947,-19.574 34.947,-58.725 V 356.233 h 28.646 V 497.6 z"
   id="path325"
   inkscape:connector-curvature="0" />
				<path
   d="m 853.702,498.309 c 0,26.832 -5.683,47.576 -17.044,62.232 -11.365,14.658 -26.834,21.986 -46.406,21.986 -9.073,0 -16.568,-1.34 -22.487,-4.012 v -27.93 c 5.919,4.297 13.367,6.445 22.344,6.445 23.297,0 34.948,-19.572 34.948,-58.723 V 356.941 h 28.646 v 141.368 z"
   id="path327"
   inkscape:connector-curvature="0" />
				<path
   d="m 854.41,499.018 c 0,26.832 -5.682,47.576 -17.044,62.232 -11.364,14.658 -26.833,21.984 -46.406,21.984 -9.072,0 -16.567,-1.338 -22.486,-4.01 v -27.93 c 5.919,4.297 13.367,6.445 22.344,6.445 23.297,0 34.947,-19.572 34.947,-58.723 V 357.65 h 28.646 v 141.368 z"
   id="path329"
   inkscape:connector-curvature="0" />
				<path
   d="m 855.119,499.725 c 0,26.834 -5.683,47.578 -17.044,62.234 -11.365,14.658 -26.834,21.984 -46.406,21.984 -9.073,0 -16.568,-1.338 -22.487,-4.01 v -27.93 c 5.919,4.297 13.367,6.445 22.344,6.445 23.297,0 34.948,-19.574 34.948,-58.725 V 358.358 h 28.646 v 141.367 z"
   id="path331"
   inkscape:connector-curvature="0" />
				<path
   d="m 855.827,500.434 c 0,26.834 -5.682,47.576 -17.044,62.232 -11.364,14.66 -26.833,21.986 -46.406,21.986 -9.072,0 -16.567,-1.338 -22.486,-4.01 v -27.93 c 5.919,4.297 13.367,6.445 22.344,6.445 23.297,0 34.947,-19.574 34.947,-58.725 V 359.067 h 28.646 v 141.367 z"
   id="path333"
   inkscape:connector-curvature="0" />
				<path
   d="m 856.536,501.143 c 0,26.832 -5.683,47.576 -17.044,62.232 -11.365,14.658 -26.834,21.986 -46.406,21.986 -9.073,0 -16.568,-1.34 -22.487,-4.012 v -27.93 c 5.919,4.297 13.367,6.445 22.344,6.445 23.297,0 34.948,-19.572 34.948,-58.723 V 359.775 h 28.646 v 141.368 z"
   id="path335"
   inkscape:connector-curvature="0" />
				<path
   d="m 857.244,501.852 c 0,26.832 -5.682,47.576 -17.044,62.232 -11.364,14.658 -26.833,21.984 -46.406,21.984 -9.072,0 -16.567,-1.338 -22.486,-4.01 v -27.93 c 5.919,4.297 13.367,6.445 22.344,6.445 23.297,0 34.947,-19.572 34.947,-58.723 V 360.484 h 28.646 v 141.368 z"
   id="path337"
   inkscape:connector-curvature="0" />
				<path
   d="m 857.953,502.559 c 0,26.834 -5.683,47.578 -17.044,62.234 -11.365,14.658 -26.834,21.984 -46.406,21.984 -9.073,0 -16.568,-1.338 -22.487,-4.01 v -27.93 c 5.919,4.297 13.367,6.445 22.344,6.445 23.297,0 34.948,-19.574 34.948,-58.725 V 361.192 h 28.646 v 141.367 z"
   id="path339"
   inkscape:connector-curvature="0" />
				<path
   d="m 858.662,503.268 c 0,26.834 -5.683,47.578 -17.044,62.234 -11.365,14.658 -26.834,21.984 -46.406,21.984 -9.073,0 -16.568,-1.338 -22.487,-4.01 v -27.93 c 5.919,4.297 13.367,6.445 22.344,6.445 23.297,0 34.948,-19.574 34.948,-58.725 V 361.901 h 28.646 v 141.367 z"
   id="path341"
   inkscape:connector-curvature="0" />
				<path
   d="m 859.37,503.977 c 0,26.832 -5.683,47.576 -17.044,62.232 -11.365,14.658 -26.834,21.986 -46.406,21.986 -9.073,0 -16.568,-1.34 -22.487,-4.012 v -27.93 c 5.919,4.297 13.367,6.445 22.344,6.445 23.297,0 34.948,-19.572 34.948,-58.723 V 362.609 h 28.646 v 141.368 z"
   id="path343"
   inkscape:connector-curvature="0" />
				<path
   d="m 860.079,504.686 c 0,26.832 -5.683,47.576 -17.044,62.232 -11.365,14.658 -26.834,21.986 -46.406,21.986 -9.073,0 -16.568,-1.34 -22.487,-4.012 v -27.93 c 5.919,4.297 13.367,6.445 22.344,6.445 23.297,0 34.948,-19.572 34.948,-58.723 V 363.318 h 28.646 v 141.368 z"
   id="path345"
   inkscape:connector-curvature="0" />
				<path
   d="m 860.787,505.393 c 0,26.834 -5.683,47.578 -17.044,62.234 -11.365,14.658 -26.834,21.984 -46.406,21.984 -9.073,0 -16.568,-1.338 -22.487,-4.01 v -27.93 c 5.919,4.297 13.367,6.445 22.344,6.445 23.297,0 34.948,-19.574 34.948,-58.725 V 364.026 h 28.646 v 141.367 z"
   id="path347"
   inkscape:connector-curvature="0" />
				<path
   d="m 861.496,506.102 c 0,26.834 -5.683,47.578 -17.044,62.234 -11.365,14.658 -26.834,21.984 -46.406,21.984 -9.073,0 -16.568,-1.338 -22.487,-4.01 v -27.93 c 5.919,4.297 13.367,6.445 22.344,6.445 23.297,0 34.948,-19.574 34.948,-58.725 V 364.735 h 28.646 v 141.367 z"
   id="path349"
   inkscape:connector-curvature="0" />
				<path
   d="m 862.204,506.811 c 0,26.834 -5.682,47.576 -17.044,62.232 -11.364,14.66 -26.833,21.986 -46.406,21.986 -9.072,0 -16.567,-1.338 -22.486,-4.01 v -27.93 c 5.919,4.297 13.367,6.445 22.344,6.445 23.297,0 34.947,-19.574 34.947,-58.725 V 365.444 h 28.646 v 141.367 z"
   id="path351"
   inkscape:connector-curvature="0" />
				<path
   d="m 862.913,507.52 c 0,26.832 -5.683,47.576 -17.044,62.232 -11.365,14.658 -26.834,21.986 -46.406,21.986 -9.073,0 -16.568,-1.34 -22.487,-4.012 v -27.93 c 5.919,4.297 13.367,6.445 22.344,6.445 23.297,0 34.948,-19.572 34.948,-58.723 V 366.152 h 28.646 V 507.52 z"
   id="path353"
   inkscape:connector-curvature="0" />
				<path
   d="m 863.621,508.229 c 0,26.832 -5.682,47.576 -17.044,62.232 -11.364,14.658 -26.833,21.984 -46.406,21.984 -9.072,0 -16.567,-1.338 -22.486,-4.01 v -27.93 c 5.919,4.297 13.367,6.445 22.344,6.445 23.297,0 34.947,-19.572 34.947,-58.723 V 366.861 h 28.646 v 141.368 z"
   id="path355"
   inkscape:connector-curvature="0" />
				<path
   d="m 864.33,508.936 c 0,26.834 -5.683,47.578 -17.044,62.234 -11.365,14.658 -26.834,21.984 -46.406,21.984 -9.073,0 -16.568,-1.338 -22.487,-4.01 v -27.93 c 5.919,4.297 13.367,6.445 22.344,6.445 23.297,0 34.948,-19.574 34.948,-58.725 V 367.569 h 28.646 v 141.367 z"
   id="path357"
   inkscape:connector-curvature="0" />
				<path
   d="m 865.038,509.645 c 0,26.834 -5.682,47.576 -17.044,62.232 -11.364,14.66 -26.833,21.986 -46.406,21.986 -9.072,0 -16.567,-1.338 -22.486,-4.01 v -27.93 c 5.919,4.297 13.367,6.445 22.344,6.445 23.297,0 34.947,-19.574 34.947,-58.725 V 368.278 h 28.646 v 141.367 z"
   id="path359"
   inkscape:connector-curvature="0" />
				<path
   d="m 865.747,510.354 c 0,26.832 -5.683,47.576 -17.044,62.232 -11.365,14.658 -26.834,21.986 -46.406,21.986 -9.073,0 -16.568,-1.34 -22.487,-4.012 v -27.93 c 5.919,4.297 13.367,6.445 22.344,6.445 23.297,0 34.948,-19.572 34.948,-58.723 V 368.986 h 28.646 v 141.368 z"
   id="path361"
   inkscape:connector-curvature="0" />
				<path
   d="m 866.455,511.063 c 0,26.832 -5.682,47.576 -17.044,62.232 -11.364,14.658 -26.833,21.984 -46.406,21.984 -9.072,0 -16.567,-1.338 -22.486,-4.01 v -27.93 c 5.919,4.297 13.367,6.445 22.344,6.445 23.297,0 34.947,-19.572 34.947,-58.723 V 369.695 h 28.646 v 141.368 z"
   id="path363"
   inkscape:connector-curvature="0" />
				<path
   d="m 867.164,511.77 c 0,26.834 -5.683,47.578 -17.044,62.234 -11.365,14.658 -26.834,21.984 -46.406,21.984 -9.073,0 -16.568,-1.338 -22.487,-4.01 v -27.93 c 5.919,4.297 13.367,6.445 22.344,6.445 23.297,0 34.948,-19.574 34.948,-58.725 V 370.403 h 28.646 V 511.77 z"
   id="path365"
   inkscape:connector-curvature="0" />
				<path
   d="m 867.872,512.479 c 0,26.834 -5.682,47.576 -17.044,62.232 -11.364,14.66 -26.833,21.986 -46.406,21.986 -9.072,0 -16.567,-1.338 -22.486,-4.01 v -27.93 c 5.919,4.297 13.367,6.445 22.344,6.445 23.297,0 34.947,-19.574 34.947,-58.725 V 371.112 h 28.646 v 141.367 z"
   id="path367"
   inkscape:connector-curvature="0" />
				<path
   d="m 868.581,513.188 c 0,26.832 -5.683,47.576 -17.044,62.232 -11.365,14.658 -26.834,21.986 -46.406,21.986 -9.073,0 -16.568,-1.34 -22.487,-4.012 v -27.93 c 5.919,4.297 13.367,6.445 22.344,6.445 23.297,0 34.948,-19.572 34.948,-58.723 V 371.82 h 28.646 v 141.368 z"
   id="path369"
   inkscape:connector-curvature="0" />
				<path
   d="m 869.29,513.896 c 0,26.832 -5.683,47.576 -17.044,62.232 -11.365,14.658 -26.834,21.986 -46.406,21.986 -9.073,0 -16.568,-1.34 -22.487,-4.012 v -27.93 c 5.919,4.297 13.367,6.445 22.344,6.445 23.297,0 34.948,-19.572 34.948,-58.723 V 372.529 h 28.646 v 141.367 z"
   id="path371"
   inkscape:connector-curvature="0" />
				<path
   d="m 869.998,514.604 c 0,26.834 -5.683,47.578 -17.044,62.234 -11.365,14.658 -26.834,21.984 -46.406,21.984 -9.073,0 -16.568,-1.338 -22.487,-4.01 v -27.93 c 5.919,4.297 13.367,6.445 22.344,6.445 23.297,0 34.948,-19.574 34.948,-58.725 V 373.237 h 28.646 v 141.367 z"
   id="path373"
   inkscape:connector-curvature="0" />
				<path
   d="m 870.707,515.313 c 0,26.834 -5.683,47.578 -17.044,62.234 -11.365,14.658 -26.834,21.984 -46.406,21.984 -9.073,0 -16.568,-1.338 -22.487,-4.01 v -27.93 c 5.919,4.297 13.367,6.445 22.344,6.445 23.297,0 34.948,-19.574 34.948,-58.725 V 373.946 h 28.646 v 141.367 z"
   id="path375"
   inkscape:connector-curvature="0" />
				<path
   d="m 871.415,516.021 c 0,26.832 -5.683,47.576 -17.044,62.232 -11.365,14.658 -26.834,21.986 -46.406,21.986 -9.073,0 -16.568,-1.34 -22.487,-4.012 v -27.93 c 5.919,4.297 13.367,6.445 22.344,6.445 23.297,0 34.948,-19.572 34.948,-58.723 V 374.654 h 28.646 v 141.367 z"
   id="path377"
   inkscape:connector-curvature="0" />
				<path
   d="m 872.124,516.73 c 0,26.832 -5.683,47.576 -17.044,62.232 -11.365,14.658 -26.834,21.986 -46.406,21.986 -9.073,0 -16.568,-1.34 -22.487,-4.012 v -27.93 c 5.919,4.297 13.367,6.445 22.344,6.445 23.297,0 34.948,-19.572 34.948,-58.723 V 375.363 h 28.646 V 516.73 z"
   id="path379"
   inkscape:connector-curvature="0" />
				<path
   d="m 872.832,517.439 c 0,26.832 -5.682,47.576 -17.044,62.232 -11.364,14.658 -26.833,21.984 -46.406,21.984 -9.072,0 -16.567,-1.338 -22.486,-4.01 v -27.93 c 5.919,4.297 13.367,6.445 22.344,6.445 23.297,0 34.947,-19.572 34.947,-58.723 V 376.072 h 28.646 v 141.367 z"
   id="path381"
   inkscape:connector-curvature="0" />
				<path
   d="m 873.541,518.146 c 0,26.834 -5.683,47.578 -17.044,62.234 -11.365,14.658 -26.834,21.984 -46.406,21.984 -9.073,0 -16.568,-1.338 -22.487,-4.01 v -27.93 c 5.919,4.297 13.367,6.445 22.344,6.445 23.297,0 34.948,-19.574 34.948,-58.725 V 376.78 h 28.646 v 141.366 z"
   id="path383"
   inkscape:connector-curvature="0" />
				<path
   d="m 874.249,518.855 c 0,26.834 -5.682,47.576 -17.044,62.232 -11.364,14.66 -26.833,21.986 -46.406,21.986 -9.072,0 -16.567,-1.338 -22.486,-4.01 v -27.93 c 5.919,4.297 13.367,6.445 22.344,6.445 23.297,0 34.947,-19.574 34.947,-58.725 V 377.489 h 28.646 v 141.366 z"
   id="path385"
   inkscape:connector-curvature="0" />
				<path
   d="m 874.958,519.564 c 0,26.832 -5.683,47.576 -17.044,62.232 -11.365,14.658 -26.834,21.986 -46.406,21.986 -9.073,0 -16.568,-1.34 -22.487,-4.012 v -27.93 c 5.919,4.297 13.367,6.445 22.344,6.445 23.297,0 34.948,-19.572 34.948,-58.723 V 378.197 h 28.646 v 141.367 z"
   id="path387"
   inkscape:connector-curvature="0" />
				<path
   d="m 875.666,520.273 c 0,26.832 -5.682,47.576 -17.044,62.232 -11.364,14.658 -26.833,21.984 -46.406,21.984 -9.072,0 -16.567,-1.338 -22.486,-4.01 v -27.93 c 5.919,4.297 13.367,6.445 22.344,6.445 23.297,0 34.947,-19.572 34.947,-58.723 V 378.906 h 28.646 v 141.367 z"
   id="path389"
   inkscape:connector-curvature="0" />
				<path
   d="m 876.375,520.98 c 0,26.834 -5.683,47.578 -17.044,62.234 -11.365,14.658 -26.834,21.984 -46.406,21.984 -9.073,0 -16.568,-1.338 -22.487,-4.01 v -27.93 c 5.919,4.297 13.367,6.445 22.344,6.445 23.297,0 34.948,-19.574 34.948,-58.725 V 379.614 h 28.646 V 520.98 z"
   id="path391"
   inkscape:connector-curvature="0" />
				<path
   d="m 877.083,521.689 c 0,26.834 -5.682,47.576 -17.044,62.232 -11.364,14.66 -26.833,21.986 -46.406,21.986 -9.072,0 -16.567,-1.338 -22.486,-4.01 v -27.93 c 5.919,4.297 13.367,6.445 22.344,6.445 23.297,0 34.947,-19.574 34.947,-58.725 V 380.323 h 28.646 v 141.366 z"
   id="path393"
   inkscape:connector-curvature="0" />
				<path
   d="m 877.792,522.398 c 0,26.832 -5.683,47.576 -17.044,62.232 -11.365,14.658 -26.834,21.986 -46.406,21.986 -9.073,0 -16.568,-1.34 -22.487,-4.012 v -27.93 c 5.919,4.297 13.367,6.445 22.344,6.445 23.297,0 34.948,-19.572 34.948,-58.723 V 381.031 h 28.646 v 141.367 z"
   id="path395"
   inkscape:connector-curvature="0" />
				<path
   d="m 878.501,523.107 c 0,26.832 -5.683,47.576 -17.044,62.232 -11.365,14.658 -26.834,21.986 -46.406,21.986 -9.073,0 -16.568,-1.34 -22.487,-4.012 v -27.93 c 5.919,4.297 13.367,6.445 22.344,6.445 23.297,0 34.948,-19.572 34.948,-58.723 V 381.74 h 28.646 v 141.367 z"
   id="path397"
   inkscape:connector-curvature="0" />
				<path
   d="m 879.209,523.814 c 0,26.834 -5.683,47.578 -17.044,62.234 -11.365,14.658 -26.834,21.984 -46.406,21.984 -9.073,0 -16.568,-1.338 -22.487,-4.01 v -27.93 c 5.919,4.297 13.367,6.445 22.344,6.445 23.297,0 34.948,-19.574 34.948,-58.725 V 382.448 h 28.646 v 141.366 z"
   id="path399"
   inkscape:connector-curvature="0" />
				<path
   d="m 879.918,524.523 c 0,26.834 -5.683,47.578 -17.044,62.234 -11.365,14.658 -26.834,21.984 -46.406,21.984 -9.073,0 -16.568,-1.338 -22.487,-4.01 v -27.93 c 5.919,4.297 13.367,6.445 22.344,6.445 23.297,0 34.948,-19.574 34.948,-58.725 V 383.157 h 28.646 v 141.366 z"
   id="path401"
   inkscape:connector-curvature="0" />
				<path
   d="m 880.626,525.232 c 0,26.832 -5.683,47.576 -17.044,62.232 -11.365,14.658 -26.834,21.986 -46.406,21.986 -9.073,0 -16.568,-1.34 -22.487,-4.012 v -27.93 c 5.919,4.297 13.367,6.445 22.344,6.445 23.297,0 34.948,-19.572 34.948,-58.723 V 383.865 h 28.646 v 141.367 z"
   id="path403"
   inkscape:connector-curvature="0" />
				<path
   d="m 881.335,525.941 c 0,26.832 -5.683,47.576 -17.044,62.232 -11.365,14.658 -26.834,21.986 -46.406,21.986 -9.073,0 -16.568,-1.34 -22.487,-4.012 v -27.93 c 5.919,4.297 13.367,6.445 22.344,6.445 23.297,0 34.948,-19.572 34.948,-58.723 V 384.574 h 28.646 v 141.367 z"
   id="path405"
   inkscape:connector-curvature="0" />
				<path
   d="m 882.043,526.648 c 0,26.834 -5.683,47.578 -17.044,62.234 -11.365,14.658 -26.834,21.984 -46.406,21.984 -9.073,0 -16.568,-1.338 -22.487,-4.01 v -27.93 c 5.919,4.297 13.367,6.445 22.344,6.445 23.297,0 34.948,-19.574 34.948,-58.725 V 385.282 h 28.646 v 141.366 z"
   id="path407"
   inkscape:connector-curvature="0" />
				<path
   d="m 882.752,527.357 c 0,26.834 -5.683,47.578 -17.044,62.234 -11.365,14.658 -26.834,21.984 -46.406,21.984 -9.073,0 -16.568,-1.338 -22.487,-4.01 v -27.93 c 5.919,4.297 13.367,6.445 22.344,6.445 23.297,0 34.948,-19.574 34.948,-58.725 V 385.991 h 28.646 v 141.366 z"
   id="path409"
   inkscape:connector-curvature="0" />
				<path
   d="m 883.46,528.066 c 0,26.834 -5.682,47.576 -17.044,62.232 -11.364,14.66 -26.833,21.986 -46.406,21.986 -9.072,0 -16.567,-1.338 -22.486,-4.01 v -27.93 c 5.919,4.297 13.367,6.445 22.344,6.445 23.297,0 34.947,-19.574 34.947,-58.725 V 386.7 h 28.646 v 141.366 z"
   id="path411"
   inkscape:connector-curvature="0" />
				<path
   d="m 884.169,528.775 c 0,26.832 -5.683,47.576 -17.044,62.232 -11.365,14.658 -26.834,21.986 -46.406,21.986 -9.073,0 -16.568,-1.34 -22.487,-4.012 v -27.93 c 5.919,4.297 13.367,6.445 22.344,6.445 23.297,0 34.948,-19.572 34.948,-58.723 V 387.408 h 28.646 v 141.367 z"
   id="path413"
   inkscape:connector-curvature="0" />
				<path
   d="m 884.877,529.484 c 0,26.832 -5.682,47.576 -17.044,62.232 C 856.469,606.374 841,613.7 821.427,613.7 c -9.072,0 -16.567,-1.338 -22.486,-4.01 v -27.93 c 5.919,4.297 13.367,6.445 22.344,6.445 23.297,0 34.947,-19.572 34.947,-58.723 V 388.117 h 28.646 v 141.367 z"
   id="path415"
   inkscape:connector-curvature="0" />
				<path
   d="m 885.586,530.191 c 0,26.834 -5.683,47.578 -17.044,62.234 -11.365,14.658 -26.834,21.984 -46.406,21.984 -9.073,0 -16.568,-1.338 -22.487,-4.01 v -27.93 c 5.919,4.297 13.367,6.445 22.344,6.445 23.297,0 34.948,-19.574 34.948,-58.725 V 388.825 h 28.646 v 141.366 z"
   id="path417"
   inkscape:connector-curvature="0" />
				<path
   d="m 886.294,530.9 c 0,26.834 -5.682,47.576 -17.044,62.232 -11.364,14.66 -26.833,21.986 -46.406,21.986 -9.072,0 -16.567,-1.338 -22.486,-4.01 v -27.93 c 5.919,4.297 13.367,6.445 22.344,6.445 23.297,0 34.947,-19.574 34.947,-58.725 V 389.534 h 28.646 V 530.9 z"
   id="path419"
   inkscape:connector-curvature="0" />
				<path
   d="m 887.003,531.609 c 0,26.832 -5.683,47.576 -17.044,62.232 -11.365,14.658 -26.834,21.986 -46.406,21.986 -9.073,0 -16.568,-1.34 -22.487,-4.012 v -27.93 c 5.919,4.297 13.367,6.445 22.344,6.445 23.297,0 34.948,-19.572 34.948,-58.723 V 390.242 h 28.646 v 141.367 z"
   id="path421"
   inkscape:connector-curvature="0" />
				<path
   d="m 887.712,532.318 c 0,26.832 -5.683,47.576 -17.044,62.232 -11.365,14.658 -26.834,21.986 -46.406,21.986 -9.073,0 -16.568,-1.34 -22.487,-4.012 v -27.93 c 5.919,4.297 13.367,6.445 22.344,6.445 23.297,0 34.948,-19.572 34.948,-58.723 V 390.951 h 28.646 v 141.367 z"
   id="path423"
   inkscape:connector-curvature="0" />
				<path
   d="m 888.42,533.025 c 0,26.834 -5.683,47.578 -17.044,62.234 -11.365,14.658 -26.834,21.984 -46.406,21.984 -9.073,0 -16.568,-1.338 -22.487,-4.01 v -27.93 c 5.919,4.297 13.367,6.445 22.344,6.445 23.297,0 34.948,-19.574 34.948,-58.725 V 391.659 h 28.646 v 141.366 z"
   id="path425"
   inkscape:connector-curvature="0" />
				<path
   d="m 889.129,533.734 c 0,26.834 -5.683,47.578 -17.044,62.234 -11.365,14.658 -26.834,21.984 -46.406,21.984 -9.073,0 -16.568,-1.338 -22.487,-4.01 v -27.93 c 5.919,4.297 13.367,6.445 22.344,6.445 23.297,0 34.948,-19.574 34.948,-58.725 V 392.368 h 28.646 v 141.366 z"
   id="path427"
   inkscape:connector-curvature="0" />
				<path
   d="m 889.837,534.443 c 0,26.832 -5.683,47.576 -17.044,62.232 -11.365,14.658 -26.834,21.986 -46.406,21.986 -9.073,0 -16.568,-1.34 -22.487,-4.012 v -27.93 c 5.919,4.297 13.367,6.445 22.344,6.445 23.297,0 34.948,-19.572 34.948,-58.723 V 393.076 h 28.646 v 141.367 z"
   id="path429"
   inkscape:connector-curvature="0" />
				<path
   d="m 890.546,535.152 c 0,26.832 -5.683,47.576 -17.044,62.232 -11.365,14.658 -26.834,21.986 -46.406,21.986 -9.073,0 -16.568,-1.34 -22.487,-4.012 v -27.93 c 5.919,4.297 13.367,6.445 22.344,6.445 23.297,0 34.948,-19.572 34.948,-58.723 V 393.785 h 28.646 v 141.367 z"
   id="path431"
   inkscape:connector-curvature="0" />
				<path
   d="m 891.254,535.859 c 0,26.834 -5.683,47.578 -17.044,62.234 -11.365,14.658 -26.834,21.984 -46.406,21.984 -9.073,0 -16.568,-1.338 -22.487,-4.01 v -27.93 c 5.919,4.297 13.367,6.445 22.344,6.445 23.297,0 34.948,-19.574 34.948,-58.725 V 394.493 h 28.646 v 141.366 z"
   id="path433"
   inkscape:connector-curvature="0" />
				<path
   d="m 891.963,536.568 c 0,26.834 -5.683,47.578 -17.044,62.234 -11.365,14.658 -26.834,21.984 -46.406,21.984 -9.073,0 -16.568,-1.338 -22.487,-4.01 v -27.93 c 5.919,4.297 13.367,6.445 22.344,6.445 23.297,0 34.948,-19.574 34.948,-58.725 V 395.202 h 28.646 v 141.366 z"
   id="path435"
   inkscape:connector-curvature="0" />
				<path
   d="m 892.671,537.277 c 0,26.832 -5.683,47.576 -17.044,62.232 -11.365,14.658 -26.834,21.986 -46.406,21.986 -9.073,0 -16.568,-1.34 -22.487,-4.012 v -27.93 c 5.919,4.297 13.367,6.445 22.344,6.445 23.297,0 34.948,-19.572 34.948,-58.723 V 395.91 h 28.646 v 141.367 z"
   id="path437"
   inkscape:connector-curvature="0" />
				<path
   d="m 893.38,537.986 c 0,26.832 -5.683,47.576 -17.044,62.232 -11.365,14.658 -26.834,21.986 -46.406,21.986 -9.073,0 -16.568,-1.34 -22.487,-4.012 v -27.93 c 5.919,4.297 13.367,6.445 22.344,6.445 23.297,0 34.948,-19.572 34.948,-58.723 V 396.619 h 28.646 v 141.367 z"
   id="path439"
   inkscape:connector-curvature="0" />
				<path
   d="m 894.088,538.695 c 0,26.832 -5.682,47.576 -17.044,62.232 -11.364,14.658 -26.833,21.984 -46.406,21.984 -9.072,0 -16.567,-1.338 -22.486,-4.01 v -27.93 c 5.919,4.297 13.367,6.445 22.344,6.445 23.297,0 34.947,-19.572 34.947,-58.723 V 397.328 h 28.646 v 141.367 z"
   id="path441"
   inkscape:connector-curvature="0" />
				<path
   d="m 894.797,539.402 c 0,26.834 -5.683,47.578 -17.044,62.234 -11.365,14.658 -26.834,21.984 -46.406,21.984 -9.073,0 -16.568,-1.338 -22.487,-4.01 v -27.93 c 5.919,4.297 13.367,6.445 22.344,6.445 23.297,0 34.948,-19.574 34.948,-58.725 V 398.036 h 28.646 v 141.366 z"
   id="path443"
   inkscape:connector-curvature="0" />
				<path
   d="m 895.505,540.111 c 0,26.834 -5.682,47.576 -17.044,62.232 -11.364,14.66 -26.833,21.986 -46.406,21.986 -9.072,0 -16.567,-1.338 -22.486,-4.01 v -27.93 c 5.919,4.297 13.367,6.445 22.344,6.445 23.297,0 34.947,-19.574 34.947,-58.725 V 398.745 h 28.646 v 141.366 z"
   id="path445"
   inkscape:connector-curvature="0" />
				<path
   d="m 896.214,540.82 c 0,26.832 -5.683,47.576 -17.044,62.232 -11.365,14.658 -26.834,21.986 -46.406,21.986 -9.073,0 -16.568,-1.34 -22.487,-4.012 v -27.93 c 5.919,4.297 13.367,6.445 22.344,6.445 23.297,0 34.948,-19.572 34.948,-58.723 V 399.453 h 28.646 V 540.82 z"
   id="path447"
   inkscape:connector-curvature="0" />
				<path
   d="m 896.923,541.529 c 0,26.832 -5.683,47.576 -17.044,62.232 -11.365,14.658 -26.834,21.986 -46.406,21.986 -9.073,0 -16.568,-1.34 -22.487,-4.012 v -27.93 c 5.919,4.297 13.367,6.445 22.344,6.445 23.297,0 34.948,-19.572 34.948,-58.723 V 400.162 h 28.646 v 141.367 z"
   id="path449"
   inkscape:connector-curvature="0" />
				<path
   d="m 897.631,542.236 c 0,26.834 -5.683,47.578 -17.044,62.234 -11.365,14.658 -26.834,21.984 -46.406,21.984 -9.073,0 -16.568,-1.338 -22.487,-4.01 v -27.93 c 5.919,4.297 13.367,6.445 22.344,6.445 23.297,0 34.948,-19.574 34.948,-58.725 V 400.87 h 28.646 v 141.366 z"
   id="path451"
   inkscape:connector-curvature="0" />
				<path
   d="m 898.34,542.945 c 0,26.834 -5.683,47.578 -17.044,62.234 -11.365,14.658 -26.834,21.984 -46.406,21.984 -9.073,0 -16.568,-1.338 -22.487,-4.01 v -27.93 c 5.919,4.297 13.367,6.445 22.344,6.445 23.297,0 34.948,-19.574 34.948,-58.725 V 401.578 h 28.646 v 141.367 z"
   id="path453"
   inkscape:connector-curvature="0" />
				<path
   d="m 899.048,543.654 c 0,26.832 -5.683,47.576 -17.044,62.232 -11.365,14.658 -26.834,21.986 -46.406,21.986 -9.073,0 -16.568,-1.34 -22.487,-4.012 v -27.93 c 5.919,4.297 13.367,6.445 22.344,6.445 23.297,0 34.948,-19.572 34.948,-58.723 V 402.287 h 28.646 v 141.367 z"
   id="path455"
   inkscape:connector-curvature="0" />
				<path
   d="m 899.757,544.363 c 0,26.832 -5.683,47.576 -17.044,62.232 -11.365,14.658 -26.834,21.986 -46.406,21.986 -9.073,0 -16.568,-1.34 -22.487,-4.012 v -27.93 c 5.919,4.297 13.367,6.445 22.344,6.445 23.297,0 34.948,-19.572 34.948,-58.723 V 402.996 h 28.646 v 141.367 z"
   id="path457"
   inkscape:connector-curvature="0" />
				<path
   d="m 900.465,545.07 c 0,26.834 -5.683,47.578 -17.044,62.234 -11.365,14.658 -26.834,21.984 -46.406,21.984 -9.073,0 -16.568,-1.338 -22.487,-4.01 v -27.93 c 5.919,4.297 13.367,6.445 22.344,6.445 23.297,0 34.948,-19.574 34.948,-58.725 V 403.703 h 28.646 V 545.07 z"
   id="path459"
   inkscape:connector-curvature="0" />
				<path
   d="m 901.174,545.779 c 0,26.834 -5.683,47.578 -17.044,62.234 -11.365,14.658 -26.834,21.984 -46.406,21.984 -9.073,0 -16.568,-1.338 -22.487,-4.01 v -27.93 c 5.919,4.297 13.367,6.445 22.344,6.445 23.297,0 34.948,-19.574 34.948,-58.725 V 404.412 h 28.646 v 141.367 z"
   id="path461"
   inkscape:connector-curvature="0" />
				<path
   d="m 901.882,546.488 c 0,26.832 -5.683,47.576 -17.044,62.232 -11.365,14.658 -26.834,21.986 -46.406,21.986 -9.073,0 -16.568,-1.34 -22.487,-4.012 v -27.93 c 5.919,4.297 13.367,6.445 22.344,6.445 23.297,0 34.948,-19.572 34.948,-58.723 V 405.121 h 28.646 v 141.367 z"
   id="path463"
   inkscape:connector-curvature="0" />
				<path
   d="m 902.591,547.197 c 0,26.832 -5.683,47.576 -17.044,62.232 -11.365,14.658 -26.834,21.986 -46.406,21.986 -9.073,0 -16.568,-1.34 -22.487,-4.012 v -27.93 c 5.919,4.297 13.367,6.445 22.344,6.445 23.297,0 34.948,-19.572 34.948,-58.723 V 405.83 h 28.646 v 141.367 z"
   id="path465"
   inkscape:connector-curvature="0" />
				<path
   d="m 903.299,547.904 c 0,26.834 -5.683,47.578 -17.044,62.234 -11.365,14.658 -26.834,21.984 -46.406,21.984 -9.073,0 -16.568,-1.338 -22.487,-4.01 v -27.93 c 5.919,4.297 13.367,6.445 22.344,6.445 23.297,0 34.948,-19.574 34.948,-58.725 V 406.537 H 903.3 v 141.367 z"
   id="path467"
   inkscape:connector-curvature="0" />
				<path
   d="m 904.008,548.613 c 0,26.834 -5.683,47.578 -17.044,62.234 -11.365,14.658 -26.834,21.984 -46.406,21.984 -9.073,0 -16.568,-1.338 -22.487,-4.01 v -27.93 c 5.919,4.297 13.367,6.445 22.344,6.445 23.297,0 34.948,-19.574 34.948,-58.725 V 407.246 h 28.646 v 141.367 z"
   id="path469"
   inkscape:connector-curvature="0" />
				<path
   d="m 904.716,549.322 c 0,26.834 -5.682,47.576 -17.044,62.232 -11.364,14.66 -26.833,21.986 -46.406,21.986 -9.072,0 -16.567,-1.338 -22.486,-4.01 V 601.6 c 5.919,4.297 13.367,6.445 22.344,6.445 23.297,0 34.947,-19.574 34.947,-58.725 V 407.955 h 28.646 v 141.367 z"
   id="path471"
   inkscape:connector-curvature="0" />
				<path
   d="m 905.425,550.031 c 0,26.832 -5.683,47.576 -17.044,62.232 -11.365,14.658 -26.834,21.986 -46.406,21.986 -9.073,0 -16.568,-1.34 -22.487,-4.012 v -27.93 c 5.919,4.297 13.367,6.445 22.344,6.445 23.297,0 34.948,-19.572 34.948,-58.723 V 408.664 h 28.646 v 141.367 z"
   id="path473"
   inkscape:connector-curvature="0" />
				<path
   d="m 906.134,550.74 c 0,26.832 -5.683,47.576 -17.044,62.232 -11.365,14.658 -26.834,21.986 -46.406,21.986 -9.073,0 -16.568,-1.34 -22.487,-4.012 v -27.93 c 5.919,4.297 13.367,6.445 22.344,6.445 23.297,0 34.948,-19.572 34.948,-58.723 V 409.373 h 28.646 V 550.74 z"
   id="path475"
   inkscape:connector-curvature="0" />
				<path
   d="m 906.842,551.447 c 0,26.834 -5.683,47.578 -17.044,62.234 -11.365,14.658 -26.834,21.984 -46.406,21.984 -9.073,0 -16.568,-1.338 -22.487,-4.01 v -27.93 c 5.919,4.297 13.367,6.445 22.344,6.445 23.297,0 34.948,-19.574 34.948,-58.725 V 410.08 h 28.646 v 141.367 z"
   id="path477"
   inkscape:connector-curvature="0" />
				<path
   d="m 907.551,552.156 c 0,26.834 -5.683,47.578 -17.044,62.234 -11.365,14.658 -26.834,21.984 -46.406,21.984 -9.073,0 -16.568,-1.338 -22.487,-4.01 v -27.93 c 5.919,4.297 13.367,6.445 22.344,6.445 23.297,0 34.948,-19.574 34.948,-58.725 V 410.789 h 28.646 v 141.367 z"
   id="path479"
   inkscape:connector-curvature="0" />
				<path
   d="m 908.259,552.865 c 0,26.832 -5.683,47.576 -17.044,62.232 -11.365,14.658 -26.834,21.986 -46.406,21.986 -9.073,0 -16.568,-1.34 -22.487,-4.012 v -27.93 c 5.919,4.297 13.367,6.445 22.344,6.445 23.297,0 34.948,-19.572 34.948,-58.723 V 411.498 h 28.646 v 141.367 z"
   id="path481"
   inkscape:connector-curvature="0" />
				<path
   d="m 908.968,553.574 c 0,26.832 -5.683,47.576 -17.044,62.232 -11.365,14.658 -26.834,21.986 -46.406,21.986 -9.073,0 -16.568,-1.34 -22.487,-4.012 v -27.93 c 5.919,4.297 13.367,6.445 22.344,6.445 23.297,0 34.948,-19.572 34.948,-58.723 V 412.207 h 28.646 v 141.367 z"
   id="path483"
   inkscape:connector-curvature="0" />
				<path
   d="m 909.676,554.281 c 0,26.834 -5.683,47.578 -17.044,62.234 -11.365,14.658 -26.834,21.984 -46.406,21.984 -9.073,0 -16.568,-1.338 -22.487,-4.01 v -27.93 c 5.919,4.297 13.367,6.445 22.344,6.445 23.297,0 34.948,-19.574 34.948,-58.725 V 412.914 h 28.646 v 141.367 z"
   id="path485"
   inkscape:connector-curvature="0" />
				<path
   d="m 910.385,554.99 c 0,26.834 -5.683,47.578 -17.044,62.234 -11.365,14.658 -26.834,21.984 -46.406,21.984 -9.073,0 -16.568,-1.338 -22.487,-4.01 v -27.93 c 5.919,4.297 13.367,6.445 22.344,6.445 23.297,0 34.948,-19.574 34.948,-58.725 V 413.623 h 28.646 V 554.99 z"
   id="path487"
   inkscape:connector-curvature="0" />
				<path
   d="m 911.093,555.699 c 0,26.832 -5.683,47.576 -17.044,62.232 -11.365,14.658 -26.834,21.986 -46.406,21.986 -9.073,0 -16.568,-1.34 -22.487,-4.012 v -27.93 c 5.919,4.297 13.367,6.445 22.344,6.445 23.297,0 34.948,-19.572 34.948,-58.723 V 414.332 h 28.646 v 141.367 z"
   id="path489"
   inkscape:connector-curvature="0" />
				<path
   d="m 911.802,556.408 c 0,26.832 -5.683,47.576 -17.044,62.232 -11.365,14.658 -26.834,21.986 -46.406,21.986 -9.073,0 -16.568,-1.34 -22.487,-4.012 v -27.93 c 5.919,4.297 13.367,6.445 22.344,6.445 23.297,0 34.948,-19.572 34.948,-58.723 V 415.041 h 28.646 v 141.367 z"
   id="path491"
   inkscape:connector-curvature="0" />
				<path
   d="m 912.51,557.115 c 0,26.834 -5.683,47.578 -17.044,62.234 -11.365,14.658 -26.834,21.984 -46.406,21.984 -9.073,0 -16.568,-1.338 -22.487,-4.01 v -27.93 c 5.919,4.297 13.367,6.445 22.344,6.445 23.297,0 34.948,-19.574 34.948,-58.725 V 415.748 h 28.646 v 141.367 z"
   id="path493"
   inkscape:connector-curvature="0" />
				<path
   d="m 913.219,557.824 c 0,26.834 -5.683,47.578 -17.044,62.234 -11.365,14.658 -26.834,21.984 -46.406,21.984 -9.073,0 -16.568,-1.338 -22.487,-4.01 v -27.93 c 5.919,4.297 13.367,6.445 22.344,6.445 23.297,0 34.948,-19.574 34.948,-58.725 V 416.457 h 28.646 v 141.367 z"
   id="path495"
   inkscape:connector-curvature="0" />
				<path
   d="m 913.927,558.533 c 0,26.832 -5.683,47.576 -17.044,62.232 -11.365,14.658 -26.834,21.986 -46.406,21.986 -9.073,0 -16.568,-1.34 -22.487,-4.012 v -27.93 c 5.919,4.297 13.367,6.445 22.344,6.445 23.297,0 34.948,-19.572 34.948,-58.723 V 417.166 h 28.646 v 141.367 z"
   id="path497"
   inkscape:connector-curvature="0" />
				<g
   id="g499">
					<path
   d="m 914.636,559.242 c 0,26.832 -5.683,47.576 -17.044,62.232 -11.365,14.658 -26.834,21.986 -46.406,21.986 -9.073,0 -16.568,-1.34 -22.487,-4.012 v -27.93 c 5.919,4.297 13.367,6.445 22.344,6.445 23.297,0 34.948,-19.572 34.948,-58.723 V 417.875 h 28.646 v 141.367 z"
   id="path501"
   inkscape:connector-curvature="0" />
				</g>
			</g>
		</g>
		<g
   id="g503">
			<path
   d="m 767.969,412.576 c 0,26.832 -5.682,47.576 -17.044,62.232 -11.364,14.658 -26.833,21.984 -46.406,21.984 -9.072,0 -16.567,-1.338 -22.486,-4.01 v -27.93 c 5.919,4.297 13.367,6.445 22.344,6.445 23.297,0 34.947,-19.572 34.947,-58.723 V 271.208 h 28.646 v 141.368 z"
   id="path505"
   inkscape:connector-curvature="0"
   style="fill:#d95338" />
		</g>
	</g>
</g>
</svg>