<?xml version="1.0" encoding="utf-8"?>
<!-- Generator: Adobe Illustrator 15.0.0, SVG Export Plug-In . SVG Version: 6.00 Build 0)  -->
<!DOCTYPE svg PUBLIC "-//W3C//DTD SVG 1.1//EN" "http://www.w3.org/Graphics/SVG/1.1/DTD/svg11.dtd">
<svg version="1.1" xmlns="http://www.w3.org/2000/svg" xmlns:xlink="http://www.w3.org/1999/xlink" x="0px" y="0px"
	 width="919.333px" height="520.032px" viewBox="0 0 919.333 520.032" enable-background="new 0 0 919.333 520.032"
	 xml:space="preserve">
<g id="Layer_1" display="none">
	<rect x="-578.334" y="-237.334" display="inline" fill="#D95338" width="2000" height="800"/>
</g>
<g id="Layer_4">
	
		<linearGradient id="SVGID_1_" gradientUnits="userSpaceOnUse" x1="-440.792" y1="312.9985" x2="25.8882" y2="312.9985" gradientTransform="matrix(-0.486 -0.4857 0.7881 -0.7887 -86.2485 406.1177)">
		<stop  offset="0" style="stop-color:#000000;stop-opacity:0"/>
		<stop  offset="0.1401" style="stop-color:#000000;stop-opacity:0.1401"/>
		<stop  offset="1" style="stop-color:#000000"/>
	</linearGradient>
	<polygon opacity="0.23" fill="url(#SVGID_1_)" points="521.237,226.647 294.415,0 1.257,293.385 228.079,520.032 	"/>
</g>
<g id="Layer_5">
	<g>
		<rect x="325.334" y="61.333" fill="none" width="722.667" height="161.333"/>
		<path fill="#F6F6F6" d="M358.545,118.546c0,9.971-2.111,17.679-6.333,23.125c-4.223,5.447-9.971,8.169-17.244,8.169
			c-3.371,0-6.156-0.497-8.356-1.49v-10.378c2.2,1.597,4.967,2.395,8.303,2.395c8.657,0,12.986-7.273,12.986-21.821V66.015h10.645
			V118.546z"/>
		<path fill="#F6F6F6" d="M426.404,148.457h-10.485v-9.261h-0.213c-3.938,7.097-9.988,10.645-18.149,10.645
			c-13.944,0-20.917-8.338-20.917-25.015V89.593h10.325v33.69c0,11.958,4.577,17.936,13.731,17.936c4.542,0,8.214-1.676,11.017-5.03
			c2.803-3.353,4.205-7.584,4.205-12.693V89.593h10.485V148.457z"/>
		<path fill="#F6F6F6" d="M494.742,148.457h-10.379V114.98c0-12.099-4.417-18.149-13.252-18.149c-4.577,0-8.339,1.703-11.283,5.109
			c-2.945,3.406-4.418,7.717-4.418,12.933v33.583h-10.432V89.593h10.432v9.74h0.213c4.436-7.416,10.875-11.124,19.32-11.124
			c6.457,0,11.371,2.067,14.742,6.201c3.371,4.134,5.057,10.157,5.057,18.069V148.457z"/>
		<path fill="#F6F6F6" d="M510.869,68.836c0-1.845,0.629-3.397,1.889-4.657c1.26-1.259,2.812-1.89,4.657-1.89
			c1.88,0,3.468,0.621,4.764,1.863c1.295,1.242,1.942,2.803,1.942,4.684c0,1.845-0.647,3.379-1.942,4.604
			c-1.296,1.224-2.884,1.836-4.764,1.836c-1.881,0-3.442-0.612-4.684-1.836C511.489,72.215,510.869,70.681,510.869,68.836z
			 M512.093,148.457V89.593h10.432v58.864H512.093z"/>
		<path fill="#F6F6F6" d="M537.213,119.664c0-9.722,2.715-17.395,8.144-23.019c5.429-5.624,12.791-8.436,22.087-8.436
			c8.836,0,15.763,2.706,20.784,8.117c5.021,5.411,7.53,12.889,7.53,22.433c0,9.296-2.679,16.801-8.036,22.513
			c-5.358,5.713-12.543,8.569-21.556,8.569c-8.8,0-15.825-2.768-21.076-8.303S537.213,128.711,537.213,119.664z M547.857,119.344
			c0,6.777,1.712,12.117,5.137,16.02c3.424,3.903,8.027,5.854,13.811,5.854c5.961,0,10.503-1.907,13.625-5.721
			c3.122-3.814,4.684-9.288,4.684-16.419c0-7.167-1.562-12.667-4.684-16.499s-7.664-5.748-13.625-5.748
			c-5.854,0-10.476,2.005-13.864,6.014C549.552,106.855,547.857,112.354,547.857,119.344z"/>
		<path fill="#F6F6F6" d="M642.009,99.918c-1.739-1.242-4.134-1.863-7.185-1.863c-4.045,0-7.381,1.89-10.006,5.668
			c-2.627,3.779-3.939,8.755-3.939,14.929v29.805h-10.432V89.593h10.432v11.975h0.213c2.98-8.657,8.125-12.986,15.436-12.986
			c2.376,0,4.204,0.266,5.481,0.798V99.918z"/>
		<path fill="#F6F6F6" d="M704.227,75.01h-7.931v64.453h7.931v8.995h-26.506v-8.995h7.931V75.01h-7.931v-8.995h26.506V75.01z"/>
		<path fill="#F6F6F6" d="M767.508,75.489h-23.791v72.968H733.02V75.489h-23.684v-9.474h58.172V75.489z"/>
		<path fill="#F6F6F6" d="M836.111,148.457H824.35l-8.409-22.566h-34.329l-7.93,22.566H761.92l31.4-82.442h11.391L836.111,148.457z
			 M812.641,116.577l-12.454-34.275c-0.391-1.1-0.816-3.016-1.277-5.748h-0.267c-0.391,2.484-0.834,4.4-1.33,5.748l-12.348,34.275
			H812.641z"/>
		<path fill="#F6F6F6" d="M848.034,148.457V66.015h23.524c12.489,0,22.877,3.637,31.162,10.911
			c8.284,7.274,12.428,17.031,12.428,29.272c0,12.773-4.144,23.01-12.428,30.709c-8.285,7.7-18.957,11.549-32.014,11.549H848.034z
			 M858.679,75.489v63.548h11.976c10.466,0,18.636-2.856,24.509-8.569c5.872-5.712,8.808-13.713,8.808-24.003
			c0-10.29-3.016-18.024-9.047-23.205c-6.033-5.18-13.963-7.771-23.791-7.771H858.679z"/>
		<path opacity="0.38" d="M372.239,220.457v-30.059c0-2.48,0.146-5.459,0.439-8.936h-0.146c-0.508,2.188-0.957,3.711-1.348,4.57
			l-14.971,34.424h-3.252l-14.941-34.16c-0.352-0.781-0.801-2.393-1.348-4.834h-0.176c0.195,2.109,0.293,5.176,0.293,9.199v29.795
			h-5.596v-45.381h7.939l13.389,31.113c1.015,2.383,1.689,4.238,2.021,5.566h0.205c1.015-2.793,1.729-4.688,2.139-5.684
			l13.623-30.996h7.559v45.381H372.239z"/>
		<path opacity="0.38" d="M400.042,180.027h-4.365v35.479h4.365v4.951h-14.59v-4.951h4.365v-35.479h-4.365v-4.951h14.59V180.027z"/>
		<path opacity="0.38" d="M448.498,220.457v-30.059c0-2.48,0.146-5.459,0.439-8.936h-0.146c-0.508,2.188-0.957,3.711-1.348,4.57
			l-14.971,34.424h-3.252l-14.941-34.16c-0.352-0.781-0.801-2.393-1.348-4.834h-0.176c0.195,2.109,0.293,5.176,0.293,9.199v29.795
			h-5.596v-45.381h7.939l13.388,31.113c1.016,2.383,1.689,4.238,2.021,5.566h0.205c1.016-2.793,1.729-4.688,2.139-5.684
			l13.623-30.996h7.559v45.381H448.498z"/>
		<path opacity="0.38" d="M517.463,201.97c0,12.832-5.82,19.248-17.461,19.248c-11.152,0-16.729-6.191-16.729-18.574v-27.568h5.859
			v27.305c0,9.082,3.809,13.623,11.426,13.623c7.363,0,11.045-4.395,11.045-13.184v-27.744h5.859V201.97z"/>
		<path opacity="0.38" d="M583.059,175.076l-12.715,45.381h-6.826l-9.141-32.695c-0.41-1.484-0.654-3.047-0.732-4.688h-0.117
			c-0.117,1.621-0.391,3.164-0.82,4.629l-9.229,32.754h-6.768l-13.154-45.381h6.475l9.258,34.277
			c0.41,1.543,0.654,3.096,0.732,4.658h0.176c0.098-1.172,0.42-2.725,0.967-4.658l9.814-34.277h5.771l9.375,34.541
			c0.313,1.133,0.566,2.578,0.762,4.336h0.117c0.098-1.27,0.381-2.754,0.85-4.453l8.906-34.424H583.059z"/>
		<path opacity="0.38" d="M626.564,186.97c0-2.441-0.771-4.36-2.314-5.757s-3.643-2.095-6.299-2.095
			c-1.875,0-3.77,0.479-5.684,1.436s-3.701,2.324-5.361,4.102v-5.566c1.484-1.543,3.169-2.725,5.054-3.545s4.097-1.23,6.636-1.23
			c4.102,0,7.402,1.099,9.902,3.296s3.75,5.171,3.75,8.921c0,3.34-0.767,6.23-2.3,8.672s-4.155,4.941-7.866,7.5
			c-3.789,2.617-6.323,4.492-7.603,5.625s-2.173,2.217-2.681,3.252s-0.762,2.295-0.762,3.779h22.559v5.098h-28.535v-2.256
			c0-2.617,0.356-4.839,1.069-6.665s1.89-3.604,3.53-5.332s4.199-3.804,7.676-6.226c3.555-2.5,5.981-4.692,7.28-6.577
			S626.564,189.373,626.564,186.97z"/>
		<path opacity="0.38" d="M639.396,198.66c0-8.008,1.328-14.067,3.984-18.179s6.504-6.167,11.543-6.167
			c9.609,0,14.414,7.754,14.414,23.262c0,7.656-1.353,13.511-4.058,17.563s-6.499,6.079-11.382,6.079
			c-4.609,0-8.179-1.924-10.708-5.771S639.396,206.003,639.396,198.66z M645.256,198.396c0,12.051,3.057,18.076,9.17,18.076
			c6.016,0,9.023-6.123,9.023-18.369c0-12.676-2.949-19.014-8.848-19.014C648.371,179.089,645.256,185.525,645.256,198.396z"/>
		<path opacity="0.38" d="M688.645,220.457v-38.818c-0.898,0.898-2.417,1.904-4.556,3.018s-4.116,1.895-5.933,2.344v-5.625
			c2.402-0.664,4.971-1.724,7.705-3.179s4.834-2.827,6.299-4.116h2.168v46.377H688.645z"/>
		<path opacity="0.38" d="M738.01,206.453c0,4.434-1.47,8.008-4.409,10.723s-6.89,4.072-11.851,4.072
			c-4.258,0-7.432-0.635-9.521-1.904v-5.859c3.066,1.992,6.191,2.988,9.375,2.988c3.164,0,5.718-0.874,7.661-2.622
			s2.915-4.067,2.915-6.958s-1.011-5.142-3.032-6.753s-4.878-2.417-8.569-2.417c-2.852,0-5.42,0.127-7.705,0.381l1.67-23.027h21.211
			v5.039h-16.377l-0.938,12.861l4.131-0.176c4.805,0,8.579,1.196,11.323,3.589S738.01,202.136,738.01,206.453z"/>
	</g>
</g>
<g id="Layer_3">
	<rect fill="#F6F6F6" width="293.333" height="293.333"/>
	<g id="Layer_2">
		<g>
			<defs>
				<rect id="SVGID_2_" width="293.333" height="293.333"/>
			</defs>
			<clipPath id="SVGID_3_">
				<use xlink:href="#SVGID_2_"  overflow="visible"/>
			</clipPath>
			<g opacity="0.2" clip-path="url(#SVGID_3_)">
				<g>
					<path d="M189.635,175.242c0,26.832-5.682,47.576-17.044,62.232c-11.364,14.658-26.833,21.984-46.406,21.984
						c-9.072,0-16.567-1.338-22.486-4.01v-27.93c5.919,4.297,13.367,6.445,22.344,6.445c23.297,0,34.947-19.572,34.947-58.723
						V33.874h28.646V175.242z"/>
				</g>
				<path d="M190.344,175.951c0,26.832-5.682,47.576-17.044,62.232c-11.364,14.658-26.833,21.984-46.406,21.984
					c-9.072,0-16.567-1.338-22.486-4.01v-27.93c5.919,4.297,13.367,6.445,22.344,6.445c23.297,0,34.947-19.572,34.947-58.723V34.583
					h28.646V175.951z"/>
				<path d="M191.052,176.658c0,26.834-5.682,47.576-17.044,62.232c-11.364,14.66-26.833,21.986-46.406,21.986
					c-9.072,0-16.567-1.338-22.486-4.01v-27.93c5.919,4.297,13.367,6.445,22.344,6.445c23.297,0,34.947-19.574,34.947-58.725V35.291
					h28.646V176.658z"/>
				<path d="M191.761,177.367c0,26.834-5.682,47.576-17.044,62.232c-11.364,14.66-26.833,21.986-46.406,21.986
					c-9.072,0-16.567-1.338-22.486-4.01v-27.93c5.919,4.297,13.367,6.445,22.344,6.445c23.297,0,34.947-19.574,34.947-58.725V36
					h28.646V177.367z"/>
				<path d="M192.469,178.076c0,26.832-5.682,47.576-17.044,62.232c-11.364,14.658-26.833,21.984-46.406,21.984
					c-9.072,0-16.567-1.338-22.486-4.01v-27.93c5.919,4.297,13.367,6.445,22.344,6.445c23.297,0,34.947-19.572,34.947-58.723V36.708
					h28.646V178.076z"/>
				<path d="M193.178,178.785c0,26.832-5.682,47.576-17.044,62.232c-11.364,14.658-26.833,21.984-46.406,21.984
					c-9.072,0-16.567-1.338-22.486-4.01v-27.93c5.919,4.297,13.367,6.445,22.344,6.445c23.297,0,34.947-19.572,34.947-58.723V37.417
					h28.646V178.785z"/>
				<path d="M193.887,179.492c0,26.834-5.683,47.578-17.044,62.234c-11.365,14.658-26.834,21.984-46.406,21.984
					c-9.073,0-16.568-1.338-22.487-4.01v-27.93c5.919,4.297,13.367,6.445,22.344,6.445c23.297,0,34.948-19.574,34.948-58.725V38.125
					h28.646V179.492z"/>
				<path d="M194.595,180.201c0,26.834-5.682,47.576-17.044,62.232c-11.364,14.66-26.833,21.986-46.406,21.986
					c-9.072,0-16.567-1.338-22.486-4.01v-27.93c5.919,4.297,13.367,6.445,22.344,6.445c23.297,0,34.947-19.574,34.947-58.725V38.834
					h28.646V180.201z"/>
				<path d="M195.304,180.91c0,26.834-5.682,47.576-17.044,62.232c-11.364,14.66-26.833,21.986-46.406,21.986
					c-9.072,0-16.567-1.338-22.486-4.01v-27.93c5.919,4.297,13.367,6.445,22.344,6.445c23.297,0,34.947-19.574,34.947-58.725V39.543
					h28.646V180.91z"/>
				<path d="M196.012,181.619c0,26.832-5.682,47.576-17.044,62.232c-11.364,14.658-26.833,21.984-46.406,21.984
					c-9.072,0-16.567-1.338-22.486-4.01v-27.93c5.919,4.297,13.367,6.445,22.344,6.445c23.297,0,34.947-19.572,34.947-58.723V40.251
					h28.646V181.619z"/>
				<path d="M196.721,182.328c0,26.832-5.682,47.576-17.044,62.232c-11.364,14.658-26.833,21.984-46.406,21.984
					c-9.072,0-16.567-1.338-22.486-4.01v-27.93c5.919,4.297,13.367,6.445,22.344,6.445c23.297,0,34.947-19.572,34.947-58.723V40.96
					h28.646V182.328z"/>
				<path d="M197.429,183.035c0,26.834-5.682,47.576-17.044,62.232c-11.364,14.66-26.833,21.986-46.406,21.986
					c-9.072,0-16.567-1.338-22.486-4.01v-27.93c5.919,4.297,13.367,6.445,22.344,6.445c23.297,0,34.947-19.574,34.947-58.725V41.668
					h28.646V183.035z"/>
				<path d="M198.138,183.744c0,26.834-5.682,47.576-17.044,62.232c-11.364,14.66-26.833,21.986-46.406,21.986
					c-9.072,0-16.567-1.338-22.486-4.01v-27.93c5.919,4.297,13.367,6.445,22.344,6.445c23.297,0,34.947-19.574,34.947-58.725V42.377
					h28.646V183.744z"/>
				<path d="M198.846,184.453c0,26.832-5.682,47.576-17.044,62.232c-11.364,14.658-26.833,21.984-46.406,21.984
					c-9.072,0-16.567-1.338-22.486-4.01v-27.93c5.919,4.297,13.367,6.445,22.344,6.445c23.297,0,34.947-19.572,34.947-58.723V43.085
					h28.646V184.453z"/>
				<path d="M199.555,185.162c0,26.832-5.682,47.576-17.044,62.232c-11.364,14.658-26.833,21.984-46.406,21.984
					c-9.072,0-16.567-1.338-22.486-4.01v-27.93c5.919,4.297,13.367,6.445,22.344,6.445c23.297,0,34.947-19.572,34.947-58.723V43.794
					h28.646V185.162z"/>
				<path d="M200.263,185.869c0,26.834-5.682,47.576-17.044,62.232c-11.364,14.66-26.833,21.986-46.406,21.986
					c-9.072,0-16.567-1.338-22.486-4.01v-27.93c5.919,4.297,13.367,6.445,22.344,6.445c23.297,0,34.947-19.574,34.947-58.725V44.502
					h28.646V185.869z"/>
				<path d="M200.972,186.578c0,26.834-5.682,47.576-17.044,62.232c-11.364,14.66-26.833,21.986-46.406,21.986
					c-9.072,0-16.567-1.338-22.486-4.01v-27.93c5.919,4.297,13.367,6.445,22.344,6.445c23.297,0,34.947-19.574,34.947-58.725V45.211
					h28.646V186.578z"/>
				<path d="M201.68,187.287c0,26.832-5.682,47.576-17.044,62.232c-11.364,14.658-26.833,21.984-46.406,21.984
					c-9.072,0-16.567-1.338-22.486-4.01v-27.93c5.919,4.297,13.367,6.445,22.344,6.445c23.297,0,34.947-19.572,34.947-58.723V45.919
					h28.646V187.287z"/>
				<path d="M202.389,187.996c0,26.832-5.682,47.576-17.044,62.232c-11.364,14.658-26.833,21.984-46.406,21.984
					c-9.072,0-16.567-1.338-22.486-4.01v-27.93c5.919,4.297,13.367,6.445,22.344,6.445c23.297,0,34.947-19.572,34.947-58.723V46.628
					h28.646V187.996z"/>
				<path d="M203.098,188.703c0,26.834-5.683,47.578-17.044,62.234c-11.365,14.658-26.834,21.984-46.406,21.984
					c-9.073,0-16.568-1.338-22.487-4.01v-27.93c5.919,4.297,13.367,6.445,22.344,6.445c23.297,0,34.948-19.574,34.948-58.725V47.336
					h28.646V188.703z"/>
				<path d="M203.806,189.412c0,26.834-5.682,47.576-17.044,62.232c-11.364,14.66-26.833,21.986-46.406,21.986
					c-9.072,0-16.567-1.338-22.486-4.01v-27.93c5.919,4.297,13.367,6.445,22.344,6.445c23.297,0,34.947-19.574,34.947-58.725V48.045
					h28.646V189.412z"/>
				<path d="M204.515,190.121c0,26.834-5.682,47.576-17.044,62.232c-11.364,14.66-26.833,21.986-46.406,21.986
					c-9.072,0-16.567-1.338-22.486-4.01V242.4c5.919,4.297,13.367,6.445,22.344,6.445c23.297,0,34.947-19.574,34.947-58.725V48.754
					h28.646V190.121z"/>
				<path d="M205.223,190.83c0,26.832-5.682,47.576-17.044,62.232c-11.364,14.658-26.833,21.984-46.406,21.984
					c-9.072,0-16.567-1.338-22.486-4.01v-27.93c5.919,4.297,13.367,6.445,22.344,6.445c23.297,0,34.947-19.572,34.947-58.723V49.462
					h28.646V190.83z"/>
				<path d="M205.932,191.539c0,26.832-5.682,47.576-17.044,62.232c-11.364,14.658-26.833,21.984-46.406,21.984
					c-9.072,0-16.567-1.338-22.486-4.01v-27.93c5.919,4.297,13.367,6.445,22.344,6.445c23.297,0,34.947-19.572,34.947-58.723V50.171
					h28.646V191.539z"/>
				<path d="M206.64,192.246c0,26.834-5.682,47.576-17.044,62.232c-11.364,14.66-26.833,21.986-46.406,21.986
					c-9.072,0-16.567-1.338-22.486-4.01v-27.93c5.919,4.297,13.367,6.445,22.344,6.445c23.297,0,34.947-19.574,34.947-58.725V50.879
					h28.646V192.246z"/>
				<path d="M207.349,192.955c0,26.834-5.682,47.576-17.044,62.232c-11.364,14.66-26.833,21.986-46.406,21.986
					c-9.072,0-16.567-1.338-22.486-4.01v-27.93c5.919,4.297,13.367,6.445,22.344,6.445c23.297,0,34.947-19.574,34.947-58.725V51.588
					h28.646V192.955z"/>
				<path d="M208.057,193.664c0,26.832-5.682,47.576-17.044,62.232c-11.364,14.658-26.833,21.984-46.406,21.984
					c-9.072,0-16.567-1.338-22.486-4.01v-27.93c5.919,4.297,13.367,6.445,22.344,6.445c23.297,0,34.947-19.572,34.947-58.723V52.296
					h28.646V193.664z"/>
				<path d="M208.766,194.373c0,26.832-5.682,47.576-17.044,62.232c-11.364,14.658-26.833,21.984-46.406,21.984
					c-9.072,0-16.567-1.338-22.486-4.01v-27.93c5.919,4.297,13.367,6.445,22.344,6.445c23.297,0,34.947-19.572,34.947-58.723V53.005
					h28.646V194.373z"/>
				<path d="M209.474,195.08c0,26.834-5.682,47.576-17.044,62.232c-11.364,14.66-26.833,21.986-46.406,21.986
					c-9.072,0-16.567-1.338-22.486-4.01v-27.93c5.919,4.297,13.367,6.445,22.344,6.445c23.297,0,34.947-19.574,34.947-58.725V53.713
					h28.646V195.08z"/>
				<path d="M210.183,195.789c0,26.834-5.682,47.576-17.044,62.232c-11.364,14.66-26.833,21.986-46.406,21.986
					c-9.072,0-16.567-1.338-22.486-4.01v-27.93c5.919,4.297,13.367,6.445,22.344,6.445c23.297,0,34.947-19.574,34.947-58.725V54.422
					h28.646V195.789z"/>
				<path d="M210.892,196.498c0,26.832-5.683,47.576-17.044,62.232c-11.365,14.658-26.834,21.986-46.406,21.986
					c-9.073,0-16.568-1.34-22.487-4.012v-27.93c5.919,4.297,13.367,6.445,22.344,6.445c23.297,0,34.948-19.572,34.948-58.723V55.13
					h28.646V196.498z"/>
				<path d="M211.6,197.207c0,26.832-5.682,47.576-17.044,62.232c-11.364,14.658-26.833,21.984-46.406,21.984
					c-9.072,0-16.567-1.338-22.486-4.01v-27.93c5.919,4.297,13.367,6.445,22.344,6.445c23.297,0,34.947-19.572,34.947-58.723V55.839
					H211.6V197.207z"/>
				<path d="M212.309,197.914c0,26.834-5.683,47.578-17.044,62.234c-11.365,14.658-26.834,21.984-46.406,21.984
					c-9.073,0-16.568-1.338-22.487-4.01v-27.93c5.919,4.297,13.367,6.445,22.344,6.445c23.297,0,34.948-19.574,34.948-58.725V56.547
					h28.646V197.914z"/>
				<path d="M213.017,198.623c0,26.834-5.682,47.576-17.044,62.232c-11.364,14.66-26.833,21.986-46.406,21.986
					c-9.072,0-16.567-1.338-22.486-4.01v-27.93c5.919,4.297,13.367,6.445,22.344,6.445c23.297,0,34.947-19.574,34.947-58.725V57.256
					h28.646V198.623z"/>
				<path d="M213.726,199.332c0,26.834-5.682,47.576-17.044,62.232c-11.364,14.66-26.833,21.986-46.406,21.986
					c-9.072,0-16.567-1.338-22.486-4.01v-27.93c5.919,4.297,13.367,6.445,22.344,6.445c23.297,0,34.947-19.574,34.947-58.725V57.965
					h28.646V199.332z"/>
				<path d="M214.434,200.041c0,26.832-5.682,47.576-17.044,62.232c-11.364,14.658-26.833,21.984-46.406,21.984
					c-9.072,0-16.567-1.338-22.486-4.01v-27.93c5.919,4.297,13.367,6.445,22.344,6.445c23.297,0,34.947-19.572,34.947-58.723V58.673
					h28.646V200.041z"/>
				<path d="M215.143,200.75c0,26.832-5.682,47.576-17.044,62.232c-11.364,14.658-26.833,21.984-46.406,21.984
					c-9.072,0-16.567-1.338-22.486-4.01v-27.93c5.919,4.297,13.367,6.445,22.344,6.445c23.297,0,34.947-19.572,34.947-58.723V59.382
					h28.646V200.75z"/>
				<path d="M215.851,201.457c0,26.834-5.682,47.576-17.044,62.232c-11.364,14.66-26.833,21.986-46.406,21.986
					c-9.072,0-16.567-1.338-22.486-4.01v-27.93c5.919,4.297,13.367,6.445,22.344,6.445c23.297,0,34.947-19.574,34.947-58.725V60.09
					h28.646V201.457z"/>
				<path d="M216.56,202.166c0,26.834-5.682,47.576-17.044,62.232c-11.364,14.66-26.833,21.986-46.406,21.986
					c-9.072,0-16.567-1.338-22.486-4.01v-27.93c5.919,4.297,13.367,6.445,22.344,6.445c23.297,0,34.947-19.574,34.947-58.725V60.799
					h28.646V202.166z"/>
				<path d="M217.268,202.875c0,26.832-5.682,47.576-17.044,62.232c-11.364,14.658-26.833,21.984-46.406,21.984
					c-9.072,0-16.567-1.338-22.486-4.01v-27.93c5.919,4.297,13.367,6.445,22.344,6.445c23.297,0,34.947-19.572,34.947-58.723V61.507
					h28.646V202.875z"/>
				<path d="M217.977,203.583c0,26.832-5.682,47.576-17.044,62.232C189.568,280.474,174.1,287.8,154.526,287.8
					c-9.072,0-16.567-1.338-22.486-4.01v-27.93c5.919,4.297,13.367,6.445,22.344,6.445c23.297,0,34.947-19.572,34.947-58.723V62.216
					h28.646V203.583z"/>
				<path d="M218.685,204.291c0,26.834-5.682,47.576-17.044,62.232c-11.364,14.66-26.833,21.986-46.406,21.986
					c-9.072,0-16.567-1.338-22.486-4.01v-27.93c5.919,4.297,13.367,6.445,22.344,6.445c23.297,0,34.947-19.574,34.947-58.725V62.924
					h28.646V204.291z"/>
				<path d="M219.394,205c0,26.834-5.682,47.576-17.044,62.232c-11.364,14.66-26.833,21.986-46.406,21.986
					c-9.072,0-16.567-1.338-22.486-4.01v-27.93c5.919,4.297,13.367,6.445,22.344,6.445c23.297,0,34.947-19.574,34.947-58.725V63.633
					h28.646V205z"/>
				<path d="M220.103,205.708c0,26.832-5.683,47.576-17.044,62.232c-11.365,14.658-26.834,21.986-46.406,21.986
					c-9.073,0-16.568-1.34-22.487-4.012v-27.93c5.919,4.297,13.367,6.445,22.344,6.445c23.297,0,34.948-19.572,34.948-58.723V64.341
					h28.646V205.708z"/>
				<path d="M220.811,206.417c0,26.832-5.682,47.576-17.044,62.232c-11.364,14.658-26.833,21.984-46.406,21.984
					c-9.072,0-16.567-1.338-22.486-4.01v-27.93c5.919,4.297,13.367,6.445,22.344,6.445c23.297,0,34.947-19.572,34.947-58.723V65.05
					h28.646V206.417z"/>
				<path d="M221.52,207.125c0,26.834-5.683,47.578-17.044,62.234c-11.365,14.658-26.834,21.984-46.406,21.984
					c-9.073,0-16.568-1.338-22.487-4.01v-27.93c5.919,4.297,13.367,6.445,22.344,6.445c23.297,0,34.948-19.574,34.948-58.725V65.758
					h28.646V207.125z"/>
				<path d="M222.228,207.833c0,26.834-5.682,47.576-17.044,62.232c-11.364,14.66-26.833,21.986-46.406,21.986
					c-9.072,0-16.567-1.338-22.486-4.01v-27.93c5.919,4.297,13.367,6.445,22.344,6.445c23.297,0,34.947-19.574,34.947-58.725V66.467
					h28.646V207.833z"/>
				<path d="M222.937,208.542c0,26.832-5.683,47.576-17.044,62.232c-11.365,14.658-26.834,21.986-46.406,21.986
					c-9.073,0-16.568-1.34-22.487-4.012v-27.93c5.919,4.297,13.367,6.445,22.344,6.445c23.297,0,34.948-19.572,34.948-58.723V67.175
					h28.646V208.542z"/>
				<path d="M223.645,209.251c0,26.832-5.682,47.576-17.044,62.232c-11.364,14.658-26.833,21.984-46.406,21.984
					c-9.072,0-16.567-1.338-22.486-4.01v-27.93c5.919,4.297,13.367,6.445,22.344,6.445c23.297,0,34.947-19.572,34.947-58.723V67.884
					h28.646V209.251z"/>
				<path d="M224.354,209.96c0,26.832-5.682,47.576-17.044,62.232c-11.364,14.658-26.833,21.984-46.406,21.984
					c-9.072,0-16.567-1.338-22.486-4.01v-27.93c5.919,4.297,13.367,6.445,22.344,6.445c23.297,0,34.947-19.572,34.947-58.723V68.593
					h28.646V209.96z"/>
				<path d="M225.062,210.667c0,26.834-5.682,47.576-17.044,62.232c-11.364,14.66-26.833,21.986-46.406,21.986
					c-9.072,0-16.567-1.338-22.486-4.01v-27.93c5.919,4.297,13.367,6.445,22.344,6.445c23.297,0,34.947-19.574,34.947-58.725V69.301
					h28.646V210.667z"/>
				<path d="M225.771,211.376c0,26.834-5.682,47.576-17.044,62.232c-11.364,14.66-26.833,21.986-46.406,21.986
					c-9.072,0-16.567-1.338-22.486-4.01v-27.93c5.919,4.297,13.367,6.445,22.344,6.445c23.297,0,34.947-19.574,34.947-58.725V70.01
					h28.646V211.376z"/>
				<path d="M226.479,212.085c0,26.832-5.682,47.576-17.044,62.232c-11.364,14.658-26.833,21.984-46.406,21.984
					c-9.072,0-16.567-1.338-22.486-4.01v-27.93c5.919,4.297,13.367,6.445,22.344,6.445c23.297,0,34.947-19.572,34.947-58.723V70.718
					h28.646V212.085z"/>
				<path d="M227.188,212.794c0,26.832-5.682,47.576-17.044,62.232c-11.364,14.658-26.833,21.984-46.406,21.984
					c-9.072,0-16.567-1.338-22.486-4.01v-27.93c5.919,4.297,13.367,6.445,22.344,6.445c23.297,0,34.947-19.572,34.947-58.723V71.427
					h28.646V212.794z"/>
				<path d="M227.896,213.501c0,26.834-5.682,47.576-17.044,62.232c-11.364,14.66-26.833,21.986-46.406,21.986
					c-9.072,0-16.567-1.338-22.486-4.01v-27.93c5.919,4.297,13.367,6.445,22.344,6.445c23.297,0,34.947-19.574,34.947-58.725V72.135
					h28.646V213.501z"/>
				<path d="M228.604,214.21c0,26.834-5.682,47.576-17.044,62.232c-11.364,14.66-26.833,21.986-46.406,21.986
					c-9.072,0-16.567-1.338-22.486-4.01v-27.93c5.919,4.297,13.367,6.445,22.344,6.445c23.297,0,34.947-19.574,34.947-58.725V72.844
					h28.646V214.21z"/>
				<path d="M229.313,214.919c0,26.832-5.683,47.576-17.044,62.232c-11.365,14.658-26.834,21.986-46.406,21.986
					c-9.073,0-16.568-1.34-22.487-4.012v-27.93c5.919,4.297,13.367,6.445,22.344,6.445c23.297,0,34.948-19.572,34.948-58.723V73.552
					h28.646V214.919z"/>
				<path d="M230.021,215.628c0,26.832-5.682,47.576-17.044,62.232c-11.364,14.658-26.833,21.984-46.406,21.984
					c-9.072,0-16.567-1.338-22.486-4.01v-27.93c5.919,4.297,13.367,6.445,22.344,6.445c23.297,0,34.947-19.572,34.947-58.723V74.261
					h28.646V215.628z"/>
				<path d="M230.73,216.335c0,26.834-5.683,47.578-17.044,62.234c-11.365,14.658-26.834,21.984-46.406,21.984
					c-9.073,0-16.568-1.338-22.487-4.01v-27.93c5.919,4.297,13.367,6.445,22.344,6.445c23.297,0,34.948-19.574,34.948-58.725V74.969
					h28.646V216.335z"/>
				<path d="M231.438,217.044c0,26.834-5.682,47.576-17.044,62.232c-11.364,14.66-26.833,21.986-46.406,21.986
					c-9.072,0-16.567-1.338-22.486-4.01v-27.93c5.919,4.297,13.367,6.445,22.344,6.445c23.297,0,34.947-19.574,34.947-58.725V75.678
					h28.646V217.044z"/>
				<path d="M232.147,217.753c0,26.832-5.683,47.576-17.044,62.232c-11.365,14.658-26.834,21.986-46.406,21.986
					c-9.073,0-16.568-1.34-22.487-4.012v-27.93c5.919,4.297,13.367,6.445,22.344,6.445c23.297,0,34.948-19.572,34.948-58.723V76.386
					h28.646V217.753z"/>
				<path d="M232.855,218.462c0,26.832-5.682,47.576-17.044,62.232c-11.364,14.658-26.833,21.984-46.406,21.984
					c-9.072,0-16.567-1.338-22.486-4.01v-27.93c5.919,4.297,13.367,6.445,22.344,6.445c23.297,0,34.947-19.572,34.947-58.723V77.095
					h28.646V218.462z"/>
				<path d="M233.564,219.171c0,26.832-5.682,47.576-17.044,62.232c-11.364,14.658-26.833,21.984-46.406,21.984
					c-9.072,0-16.567-1.338-22.486-4.01v-27.93c5.919,4.297,13.367,6.445,22.344,6.445c23.297,0,34.947-19.572,34.947-58.723V77.804
					h28.646V219.171z"/>
				<path d="M234.272,219.878c0,26.834-5.682,47.576-17.044,62.232c-11.364,14.66-26.833,21.986-46.406,21.986
					c-9.072,0-16.567-1.338-22.486-4.01v-27.93c5.919,4.297,13.367,6.445,22.344,6.445c23.297,0,34.947-19.574,34.947-58.725V78.512
					h28.646V219.878z"/>
				<path d="M234.981,220.587c0,26.834-5.682,47.576-17.044,62.232c-11.364,14.66-26.833,21.986-46.406,21.986
					c-9.072,0-16.567-1.338-22.486-4.01v-27.93c5.919,4.297,13.367,6.445,22.344,6.445c23.297,0,34.947-19.574,34.947-58.725V79.221
					h28.646V220.587z"/>
				<path d="M235.689,221.296c0,26.832-5.682,47.576-17.044,62.232c-11.364,14.658-26.833,21.984-46.406,21.984
					c-9.072,0-16.567-1.338-22.486-4.01v-27.93c5.919,4.297,13.367,6.445,22.344,6.445c23.297,0,34.947-19.572,34.947-58.723V79.929
					h28.646V221.296z"/>
				<path d="M236.398,222.005c0,26.832-5.682,47.576-17.044,62.232c-11.364,14.658-26.833,21.984-46.406,21.984
					c-9.072,0-16.567-1.338-22.486-4.01v-27.93c5.919,4.297,13.367,6.445,22.344,6.445c23.297,0,34.947-19.572,34.947-58.723V80.638
					h28.646V222.005z"/>
				<path d="M237.107,222.712c0,26.834-5.683,47.578-17.044,62.234c-11.365,14.658-26.834,21.984-46.406,21.984
					c-9.073,0-16.568-1.338-22.487-4.01v-27.93c5.919,4.297,13.367,6.445,22.344,6.445c23.297,0,34.948-19.574,34.948-58.725V81.346
					h28.646V222.712z"/>
				<path d="M237.815,223.421c0,26.834-5.682,47.576-17.044,62.232c-11.364,14.66-26.833,21.986-46.406,21.986
					c-9.072,0-16.567-1.338-22.486-4.01v-27.93c5.919,4.297,13.367,6.445,22.344,6.445c23.297,0,34.947-19.574,34.947-58.725V82.055
					h28.646V223.421z"/>
				<path d="M238.524,224.13c0,26.832-5.683,47.576-17.044,62.232c-11.365,14.658-26.834,21.986-46.406,21.986
					c-9.073,0-16.568-1.34-22.487-4.012v-27.93c5.919,4.297,13.367,6.445,22.344,6.445c23.297,0,34.948-19.572,34.948-58.723V82.763
					h28.646V224.13z"/>
				<path d="M239.232,224.839c0,26.832-5.682,47.576-17.044,62.232c-11.364,14.658-26.833,21.984-46.406,21.984
					c-9.072,0-16.567-1.338-22.486-4.01v-27.93c5.919,4.297,13.367,6.445,22.344,6.445c23.297,0,34.947-19.572,34.947-58.723V83.472
					h28.646V224.839z"/>
				<path d="M239.941,225.546c0,26.834-5.683,47.578-17.044,62.234c-11.365,14.658-26.834,21.984-46.406,21.984
					c-9.073,0-16.568-1.338-22.487-4.01v-27.93c5.919,4.297,13.367,6.445,22.344,6.445c23.297,0,34.948-19.574,34.948-58.725V84.18
					h28.646V225.546z"/>
				<path d="M240.649,226.255c0,26.834-5.682,47.576-17.044,62.232c-11.364,14.66-26.833,21.986-46.406,21.986
					c-9.072,0-16.567-1.338-22.486-4.01v-27.93c5.919,4.297,13.367,6.445,22.344,6.445c23.297,0,34.947-19.574,34.947-58.725V84.889
					h28.646V226.255z"/>
				<path d="M241.358,226.964c0,26.832-5.683,47.576-17.044,62.232c-11.365,14.658-26.834,21.986-46.406,21.986
					c-9.073,0-16.568-1.34-22.487-4.012v-27.93c5.919,4.297,13.367,6.445,22.344,6.445c23.297,0,34.948-19.572,34.948-58.723V85.597
					h28.646V226.964z"/>
				<path d="M242.066,227.673c0,26.832-5.682,47.576-17.044,62.232c-11.364,14.658-26.833,21.984-46.406,21.984
					c-9.072,0-16.567-1.338-22.486-4.01v-27.93c5.919,4.297,13.367,6.445,22.344,6.445c23.297,0,34.947-19.572,34.947-58.723V86.306
					h28.646V227.673z"/>
				<path d="M242.775,228.382c0,26.832-5.682,47.576-17.044,62.232c-11.364,14.658-26.833,21.984-46.406,21.984
					c-9.072,0-16.567-1.338-22.486-4.01v-27.93c5.919,4.297,13.367,6.445,22.344,6.445c23.297,0,34.947-19.572,34.947-58.723V87.015
					h28.646V228.382z"/>
				<path d="M243.483,229.089c0,26.834-5.682,47.576-17.044,62.232c-11.364,14.66-26.833,21.986-46.406,21.986
					c-9.072,0-16.567-1.338-22.486-4.01v-27.93c5.919,4.297,13.367,6.445,22.344,6.445c23.297,0,34.947-19.574,34.947-58.725V87.723
					h28.646V229.089z"/>
				<path d="M244.192,229.798c0,26.834-5.682,47.576-17.044,62.232c-11.364,14.66-26.833,21.986-46.406,21.986
					c-9.072,0-16.567-1.338-22.486-4.01v-27.93c5.919,4.297,13.367,6.445,22.344,6.445c23.297,0,34.947-19.574,34.947-58.725V88.432
					h28.646V229.798z"/>
				<path d="M244.9,230.507c0,26.832-5.682,47.576-17.044,62.232c-11.364,14.658-26.833,21.984-46.406,21.984
					c-9.072,0-16.567-1.338-22.486-4.01v-27.93c5.919,4.297,13.367,6.445,22.344,6.445c23.297,0,34.947-19.572,34.947-58.723V89.14
					H244.9V230.507z"/>
				<path d="M245.609,231.216c0,26.832-5.682,47.576-17.044,62.232c-11.364,14.658-26.833,21.984-46.406,21.984
					c-9.072,0-16.567-1.338-22.486-4.01v-27.93c5.919,4.297,13.367,6.445,22.344,6.445c23.297,0,34.947-19.572,34.947-58.723V89.849
					h28.646V231.216z"/>
				<path d="M246.318,231.923c0,26.834-5.683,47.578-17.044,62.234c-11.365,14.658-26.834,21.984-46.406,21.984
					c-9.073,0-16.568-1.338-22.487-4.01v-27.93c5.919,4.297,13.367,6.445,22.344,6.445c23.297,0,34.948-19.574,34.948-58.725V90.557
					h28.646V231.923z"/>
				<path d="M247.026,232.632c0,26.834-5.682,47.576-17.044,62.232c-11.364,14.66-26.833,21.986-46.406,21.986
					c-9.072,0-16.567-1.338-22.486-4.01v-27.93c5.919,4.297,13.367,6.445,22.344,6.445c23.297,0,34.947-19.574,34.947-58.725V91.266
					h28.646V232.632z"/>
				<path d="M247.735,233.341c0,26.832-5.683,47.576-17.044,62.232c-11.365,14.658-26.834,21.986-46.406,21.986
					c-9.073,0-16.568-1.34-22.487-4.012v-27.93c5.919,4.297,13.367,6.445,22.344,6.445c23.297,0,34.948-19.572,34.948-58.723V91.974
					h28.646V233.341z"/>
				<path d="M248.443,234.05c0,26.832-5.682,47.576-17.044,62.232c-11.364,14.658-26.833,21.984-46.406,21.984
					c-9.072,0-16.567-1.338-22.486-4.01v-27.93c5.919,4.297,13.367,6.445,22.344,6.445c23.297,0,34.947-19.572,34.947-58.723V92.683
					h28.646V234.05z"/>
				<path d="M249.152,234.757c0,26.834-5.683,47.578-17.044,62.234c-11.365,14.658-26.834,21.984-46.406,21.984
					c-9.073,0-16.568-1.338-22.487-4.01v-27.93c5.919,4.297,13.367,6.445,22.344,6.445c23.297,0,34.948-19.574,34.948-58.725V93.391
					h28.646V234.757z"/>
				<path d="M249.86,235.466c0,26.834-5.682,47.576-17.044,62.232c-11.364,14.66-26.833,21.986-46.406,21.986
					c-9.072,0-16.567-1.338-22.486-4.01v-27.93c5.919,4.297,13.367,6.445,22.344,6.445c23.297,0,34.947-19.574,34.947-58.725V94.1
					h28.646V235.466z"/>
				<path d="M250.569,236.175c0,26.832-5.683,47.576-17.044,62.232c-11.365,14.658-26.834,21.986-46.406,21.986
					c-9.073,0-16.568-1.34-22.487-4.012v-27.93c5.919,4.297,13.367,6.445,22.344,6.445c23.297,0,34.948-19.572,34.948-58.723V94.808
					h28.646V236.175z"/>
				<path d="M251.277,236.884c0,26.832-5.682,47.576-17.044,62.232c-11.364,14.658-26.833,21.984-46.406,21.984
					c-9.072,0-16.567-1.338-22.486-4.01v-27.93c5.919,4.297,13.367,6.445,22.344,6.445c23.297,0,34.947-19.572,34.947-58.723V95.517
					h28.646V236.884z"/>
				<path d="M251.986,237.591c0,26.834-5.683,47.578-17.044,62.234c-11.365,14.658-26.834,21.984-46.406,21.984
					c-9.073,0-16.568-1.338-22.487-4.01v-27.93c5.919,4.297,13.367,6.445,22.344,6.445c23.297,0,34.948-19.574,34.948-58.725V96.225
					h28.646V237.591z"/>
				<path d="M252.694,238.3c0,26.834-5.682,47.576-17.044,62.232c-11.364,14.66-26.833,21.986-46.406,21.986
					c-9.072,0-16.567-1.338-22.486-4.01v-27.93c5.919,4.297,13.367,6.445,22.344,6.445c23.297,0,34.947-19.574,34.947-58.725V96.934
					h28.646V238.3z"/>
				<path d="M253.403,239.009c0,26.834-5.682,47.576-17.044,62.232c-11.364,14.66-26.833,21.986-46.406,21.986
					c-9.072,0-16.567-1.338-22.486-4.01v-27.93c5.919,4.297,13.367,6.445,22.344,6.445c23.297,0,34.947-19.574,34.947-58.725V97.643
					h28.646V239.009z"/>
				<path d="M254.112,239.718c0,26.832-5.683,47.576-17.044,62.232c-11.365,14.658-26.834,21.986-46.406,21.986
					c-9.073,0-16.568-1.34-22.487-4.012v-27.93c5.919,4.297,13.367,6.445,22.344,6.445c23.297,0,34.948-19.572,34.948-58.723V98.351
					h28.646V239.718z"/>
				<path d="M254.82,240.427c0,26.832-5.682,47.576-17.044,62.232c-11.364,14.658-26.833,21.984-46.406,21.984
					c-9.072,0-16.567-1.338-22.486-4.01v-27.93c5.919,4.297,13.367,6.445,22.344,6.445c23.297,0,34.947-19.572,34.947-58.723V99.06
					h28.646V240.427z"/>
				<path d="M255.529,241.134c0,26.834-5.683,47.578-17.044,62.234c-11.365,14.658-26.834,21.984-46.406,21.984
					c-9.073,0-16.568-1.338-22.487-4.01v-27.93c5.919,4.297,13.367,6.445,22.344,6.445c23.297,0,34.948-19.574,34.948-58.725V99.768
					h28.646V241.134z"/>
				<path d="M256.237,241.843c0,26.834-5.682,47.576-17.044,62.232c-11.364,14.66-26.833,21.986-46.406,21.986
					c-9.072,0-16.567-1.338-22.486-4.01v-27.93c5.919,4.297,13.367,6.445,22.344,6.445c23.297,0,34.947-19.574,34.947-58.725
					V100.477h28.646V241.843z"/>
				<path d="M256.946,242.552c0,26.832-5.683,47.576-17.044,62.232c-11.365,14.658-26.834,21.986-46.406,21.986
					c-9.073,0-16.568-1.34-22.487-4.012v-27.93c5.919,4.297,13.367,6.445,22.344,6.445c23.297,0,34.948-19.572,34.948-58.723
					V101.185h28.646V242.552z"/>
				<path d="M257.654,243.261c0,26.832-5.682,47.576-17.044,62.232c-11.364,14.658-26.833,21.984-46.406,21.984
					c-9.072,0-16.567-1.338-22.486-4.01v-27.93c5.919,4.297,13.367,6.445,22.344,6.445c23.297,0,34.947-19.572,34.947-58.723
					V101.894h28.646V243.261z"/>
				<path d="M258.363,243.968c0,26.834-5.683,47.578-17.044,62.234c-11.365,14.658-26.834,21.984-46.406,21.984
					c-9.073,0-16.568-1.338-22.487-4.01v-27.93c5.919,4.297,13.367,6.445,22.344,6.445c23.297,0,34.948-19.574,34.948-58.725
					V102.602h28.646V243.968z"/>
				<path d="M259.071,244.677c0,26.834-5.682,47.576-17.044,62.232c-11.364,14.66-26.833,21.986-46.406,21.986
					c-9.072,0-16.567-1.338-22.486-4.01v-27.93c5.919,4.297,13.367,6.445,22.344,6.445c23.297,0,34.947-19.574,34.947-58.725
					V103.311h28.646V244.677z"/>
				<path d="M259.78,245.386c0,26.832-5.683,47.576-17.044,62.232c-11.365,14.658-26.834,21.986-46.406,21.986
					c-9.073,0-16.568-1.34-22.487-4.012v-27.93c5.919,4.297,13.367,6.445,22.344,6.445c23.297,0,34.948-19.572,34.948-58.723
					V104.019h28.646V245.386z"/>
				<path d="M260.488,246.095c0,26.832-5.682,47.576-17.044,62.232c-11.364,14.658-26.833,21.984-46.406,21.984
					c-9.072,0-16.567-1.338-22.486-4.01v-27.93c5.919,4.297,13.367,6.445,22.344,6.445c23.297,0,34.947-19.572,34.947-58.723
					V104.728h28.646V246.095z"/>
				<path d="M261.197,246.802c0,26.834-5.683,47.578-17.044,62.234c-11.365,14.658-26.834,21.984-46.406,21.984
					c-9.073,0-16.568-1.338-22.487-4.01v-27.93c5.919,4.297,13.367,6.445,22.344,6.445c23.297,0,34.948-19.574,34.948-58.725
					V105.436h28.646V246.802z"/>
				<path d="M261.906,247.511c0,26.834-5.683,47.578-17.044,62.234c-11.365,14.658-26.834,21.984-46.406,21.984
					c-9.073,0-16.568-1.338-22.487-4.01v-27.93c5.919,4.297,13.367,6.445,22.344,6.445c23.297,0,34.948-19.574,34.948-58.725
					V106.145h28.646V247.511z"/>
				<path d="M262.614,248.22c0,26.834-5.682,47.576-17.044,62.232c-11.364,14.66-26.833,21.986-46.406,21.986
					c-9.072,0-16.567-1.338-22.486-4.01V300.5c5.919,4.297,13.367,6.445,22.344,6.445c23.297,0,34.947-19.574,34.947-58.725V106.854
					h28.646V248.22z"/>
				<path d="M263.323,248.929c0,26.832-5.683,47.576-17.044,62.232c-11.365,14.658-26.834,21.986-46.406,21.986
					c-9.073,0-16.568-1.34-22.487-4.012v-27.93c5.919,4.297,13.367,6.445,22.344,6.445c23.297,0,34.948-19.572,34.948-58.723
					V107.562h28.646V248.929z"/>
				<path d="M264.031,249.638c0,26.832-5.682,47.576-17.044,62.232c-11.364,14.658-26.833,21.984-46.406,21.984
					c-9.072,0-16.567-1.338-22.486-4.01v-27.93c5.919,4.297,13.367,6.445,22.344,6.445c23.297,0,34.947-19.572,34.947-58.723
					V108.271h28.646V249.638z"/>
				<path d="M264.74,250.345c0,26.834-5.683,47.578-17.044,62.234c-11.365,14.658-26.834,21.984-46.406,21.984
					c-9.073,0-16.568-1.338-22.487-4.01v-27.93c5.919,4.297,13.367,6.445,22.344,6.445c23.297,0,34.948-19.574,34.948-58.725
					V108.979h28.646V250.345z"/>
				<path d="M265.448,251.054c0,26.834-5.682,47.576-17.044,62.232c-11.364,14.66-26.833,21.986-46.406,21.986
					c-9.072,0-16.567-1.338-22.486-4.01v-27.93c5.919,4.297,13.367,6.445,22.344,6.445c23.297,0,34.947-19.574,34.947-58.725
					V109.688h28.646V251.054z"/>
				<path d="M266.157,251.763c0,26.832-5.683,47.576-17.044,62.232c-11.365,14.658-26.834,21.986-46.406,21.986
					c-9.073,0-16.568-1.34-22.487-4.012v-27.93c5.919,4.297,13.367,6.445,22.344,6.445c23.297,0,34.948-19.572,34.948-58.723
					V110.396h28.646V251.763z"/>
				<path d="M266.865,252.472c0,26.832-5.682,47.576-17.044,62.232c-11.364,14.658-26.833,21.984-46.406,21.984
					c-9.072,0-16.567-1.338-22.486-4.01v-27.93c5.919,4.297,13.367,6.445,22.344,6.445c23.297,0,34.947-19.572,34.947-58.723
					V111.104h28.646V252.472z"/>
				<path d="M267.574,253.179c0,26.834-5.683,47.578-17.044,62.234c-11.365,14.658-26.834,21.984-46.406,21.984
					c-9.073,0-16.568-1.338-22.487-4.01v-27.93c5.919,4.297,13.367,6.445,22.344,6.445c23.297,0,34.948-19.574,34.948-58.725
					V111.813h28.646V253.179z"/>
				<path d="M268.282,253.888c0,26.834-5.682,47.576-17.044,62.232c-11.364,14.66-26.833,21.986-46.406,21.986
					c-9.072,0-16.567-1.338-22.486-4.01v-27.93c5.919,4.297,13.367,6.445,22.344,6.445c23.297,0,34.947-19.574,34.947-58.725
					V112.521h28.646V253.888z"/>
				<path d="M268.991,254.597c0,26.832-5.683,47.576-17.044,62.232c-11.365,14.658-26.834,21.986-46.406,21.986
					c-9.073,0-16.568-1.34-22.487-4.012v-27.93c5.919,4.297,13.367,6.445,22.344,6.445c23.297,0,34.948-19.572,34.948-58.723
					V113.229h28.646V254.597z"/>
				<path d="M269.699,255.306c0,26.832-5.682,47.576-17.044,62.232c-11.364,14.658-26.833,21.984-46.406,21.984
					c-9.072,0-16.567-1.338-22.486-4.01v-27.93c5.919,4.297,13.367,6.445,22.344,6.445c23.297,0,34.947-19.572,34.947-58.723
					V113.938h28.646V255.306z"/>
				<path d="M270.408,256.013c0,26.834-5.683,47.578-17.044,62.234c-11.365,14.658-26.834,21.984-46.406,21.984
					c-9.073,0-16.568-1.338-22.487-4.01v-27.93c5.919,4.297,13.367,6.445,22.344,6.445c23.297,0,34.948-19.574,34.948-58.725
					V114.646h28.646V256.013z"/>
				<path d="M271.117,256.722c0,26.834-5.683,47.578-17.044,62.234c-11.365,14.658-26.834,21.984-46.406,21.984
					c-9.073,0-16.568-1.338-22.487-4.01v-27.93c5.919,4.297,13.367,6.445,22.344,6.445c23.297,0,34.948-19.574,34.948-58.725
					V115.355h28.646V256.722z"/>
				<path d="M271.825,257.431c0,26.832-5.683,47.576-17.044,62.232c-11.365,14.658-26.834,21.986-46.406,21.986
					c-9.073,0-16.568-1.34-22.487-4.012v-27.93c5.919,4.297,13.367,6.445,22.344,6.445c23.297,0,34.948-19.572,34.948-58.723
					V116.063h28.646V257.431z"/>
				<path d="M272.534,258.14c0,26.832-5.683,47.576-17.044,62.232c-11.365,14.658-26.834,21.986-46.406,21.986
					c-9.073,0-16.568-1.34-22.487-4.012v-27.93c5.919,4.297,13.367,6.445,22.344,6.445c23.297,0,34.948-19.572,34.948-58.723
					V116.772h28.646V258.14z"/>
				<path d="M273.242,258.849c0,26.832-5.682,47.576-17.044,62.232c-11.364,14.658-26.833,21.984-46.406,21.984
					c-9.072,0-16.567-1.338-22.486-4.01v-27.93c5.919,4.297,13.367,6.445,22.344,6.445c23.297,0,34.947-19.572,34.947-58.723
					V117.481h28.646V258.849z"/>
				<path d="M273.951,259.556c0,26.834-5.683,47.578-17.044,62.234c-11.365,14.658-26.834,21.984-46.406,21.984
					c-9.073,0-16.568-1.338-22.487-4.01v-27.93c5.919,4.297,13.367,6.445,22.344,6.445c23.297,0,34.948-19.574,34.948-58.725
					V118.189h28.646V259.556z"/>
				<path d="M274.659,260.265c0,26.834-5.682,47.576-17.044,62.232c-11.364,14.66-26.833,21.986-46.406,21.986
					c-9.072,0-16.567-1.338-22.486-4.01v-27.93c5.919,4.297,13.367,6.445,22.344,6.445c23.297,0,34.947-19.574,34.947-58.725
					V118.898h28.646V260.265z"/>
				<path d="M275.368,260.974c0,26.832-5.683,47.576-17.044,62.232c-11.365,14.658-26.834,21.986-46.406,21.986
					c-9.073,0-16.568-1.34-22.487-4.012v-27.93c5.919,4.297,13.367,6.445,22.344,6.445c23.297,0,34.948-19.572,34.948-58.723
					V119.606h28.646V260.974z"/>
				<path d="M276.076,261.683c0,26.832-5.682,47.576-17.044,62.232c-11.364,14.658-26.833,21.984-46.406,21.984
					c-9.072,0-16.567-1.338-22.486-4.01v-27.93c5.919,4.297,13.367,6.445,22.344,6.445c23.297,0,34.947-19.572,34.947-58.723
					V120.315h28.646V261.683z"/>
				<path d="M276.785,262.39c0,26.834-5.683,47.578-17.044,62.234c-11.365,14.658-26.834,21.984-46.406,21.984
					c-9.073,0-16.568-1.338-22.487-4.01v-27.93c5.919,4.297,13.367,6.445,22.344,6.445c23.297,0,34.948-19.574,34.948-58.725
					V121.023h28.646V262.39z"/>
				<path d="M277.493,263.099c0,26.834-5.682,47.576-17.044,62.232c-11.364,14.66-26.833,21.986-46.406,21.986
					c-9.072,0-16.567-1.338-22.486-4.01v-27.93c5.919,4.297,13.367,6.445,22.344,6.445c23.297,0,34.947-19.574,34.947-58.725
					V121.732h28.646V263.099z"/>
				<path d="M278.202,263.808c0,26.832-5.683,47.576-17.044,62.232c-11.365,14.658-26.834,21.986-46.406,21.986
					c-9.073,0-16.568-1.34-22.487-4.012v-27.93c5.919,4.297,13.367,6.445,22.344,6.445c23.297,0,34.948-19.572,34.948-58.723V122.44
					h28.646V263.808z"/>
				<path d="M278.91,264.517c0,26.832-5.682,47.576-17.044,62.232c-11.364,14.658-26.833,21.984-46.406,21.984
					c-9.072,0-16.567-1.338-22.486-4.01v-27.93c5.919,4.297,13.367,6.445,22.344,6.445c23.297,0,34.947-19.572,34.947-58.723
					V123.149h28.646V264.517z"/>
				<path d="M279.619,265.224c0,26.834-5.683,47.578-17.044,62.234c-11.365,14.658-26.834,21.984-46.406,21.984
					c-9.073,0-16.568-1.338-22.487-4.01v-27.93c5.919,4.297,13.367,6.445,22.344,6.445c23.297,0,34.948-19.574,34.948-58.725
					V123.857h28.646V265.224z"/>
				<path d="M280.328,265.933c0,26.834-5.683,47.578-17.044,62.234c-11.365,14.658-26.834,21.984-46.406,21.984
					c-9.073,0-16.568-1.338-22.487-4.01v-27.93c5.919,4.297,13.367,6.445,22.344,6.445c23.297,0,34.948-19.574,34.948-58.725
					V124.566h28.646V265.933z"/>
				<path d="M281.036,266.642c0,26.832-5.683,47.576-17.044,62.232c-11.365,14.658-26.834,21.986-46.406,21.986
					c-9.073,0-16.568-1.34-22.487-4.012v-27.93c5.919,4.297,13.367,6.445,22.344,6.445c23.297,0,34.948-19.572,34.948-58.723
					V125.274h28.646V266.642z"/>
				<path d="M281.745,267.351c0,26.832-5.683,47.576-17.044,62.232c-11.365,14.658-26.834,21.986-46.406,21.986
					c-9.073,0-16.568-1.34-22.487-4.012v-27.93c5.919,4.297,13.367,6.445,22.344,6.445c23.297,0,34.948-19.572,34.948-58.723
					V125.983h28.646V267.351z"/>
				<path d="M282.453,268.058c0,26.834-5.683,47.578-17.044,62.234c-11.365,14.658-26.834,21.984-46.406,21.984
					c-9.073,0-16.568-1.338-22.487-4.01v-27.93c5.919,4.297,13.367,6.445,22.344,6.445c23.297,0,34.948-19.574,34.948-58.725
					V126.691h28.646V268.058z"/>
				<path d="M283.162,268.767c0,26.834-5.683,47.578-17.044,62.234c-11.365,14.658-26.834,21.984-46.406,21.984
					c-9.073,0-16.568-1.338-22.487-4.01v-27.93c5.919,4.297,13.367,6.445,22.344,6.445c23.297,0,34.948-19.574,34.948-58.725V127.4
					h28.646V268.767z"/>
				<path d="M283.87,269.476c0,26.834-5.682,47.576-17.044,62.232c-11.364,14.66-26.833,21.986-46.406,21.986
					c-9.072,0-16.567-1.338-22.486-4.01v-27.93c5.919,4.297,13.367,6.445,22.344,6.445c23.297,0,34.947-19.574,34.947-58.725
					V128.109h28.646V269.476z"/>
				<path d="M284.579,270.185c0,26.832-5.683,47.576-17.044,62.232c-11.365,14.658-26.834,21.986-46.406,21.986
					c-9.073,0-16.568-1.34-22.487-4.012v-27.93c5.919,4.297,13.367,6.445,22.344,6.445c23.297,0,34.948-19.572,34.948-58.723
					V128.817h28.646V270.185z"/>
				<path d="M285.287,270.894c0,26.832-5.682,47.576-17.044,62.232c-11.364,14.658-26.833,21.984-46.406,21.984
					c-9.072,0-16.567-1.338-22.486-4.01v-27.93c5.919,4.297,13.367,6.445,22.344,6.445c23.297,0,34.947-19.572,34.947-58.723
					V129.526h28.646V270.894z"/>
				<path d="M285.996,271.601c0,26.834-5.683,47.578-17.044,62.234c-11.365,14.658-26.834,21.984-46.406,21.984
					c-9.073,0-16.568-1.338-22.487-4.01v-27.93c5.919,4.297,13.367,6.445,22.344,6.445c23.297,0,34.948-19.574,34.948-58.725
					V130.234h28.646V271.601z"/>
				<path d="M286.704,272.31c0,26.834-5.682,47.576-17.044,62.232c-11.364,14.66-26.833,21.986-46.406,21.986
					c-9.072,0-16.567-1.338-22.486-4.01v-27.93c5.919,4.297,13.367,6.445,22.344,6.445c23.297,0,34.947-19.574,34.947-58.725
					V130.943h28.646V272.31z"/>
				<path d="M287.413,273.019c0,26.832-5.683,47.576-17.044,62.232c-11.365,14.658-26.834,21.986-46.406,21.986
					c-9.073,0-16.568-1.34-22.487-4.012v-27.93c5.919,4.297,13.367,6.445,22.344,6.445c23.297,0,34.948-19.572,34.948-58.723
					V131.651h28.646V273.019z"/>
				<path d="M288.121,273.728c0,26.832-5.682,47.576-17.044,62.232c-11.364,14.658-26.833,21.984-46.406,21.984
					c-9.072,0-16.567-1.338-22.486-4.01v-27.93c5.919,4.297,13.367,6.445,22.344,6.445c23.297,0,34.947-19.572,34.947-58.723V132.36
					h28.646V273.728z"/>
				<path d="M288.83,274.435c0,26.834-5.683,47.578-17.044,62.234c-11.365,14.658-26.834,21.984-46.406,21.984
					c-9.073,0-16.568-1.338-22.487-4.01v-27.93c5.919,4.297,13.367,6.445,22.344,6.445c23.297,0,34.948-19.574,34.948-58.725
					V133.068h28.646V274.435z"/>
				<path d="M289.538,275.144c0,26.834-5.682,47.576-17.044,62.232c-11.364,14.66-26.833,21.986-46.406,21.986
					c-9.072,0-16.567-1.338-22.486-4.01v-27.93c5.919,4.297,13.367,6.445,22.344,6.445c23.297,0,34.947-19.574,34.947-58.725
					V133.777h28.646V275.144z"/>
				<path d="M290.247,275.853c0,26.832-5.683,47.576-17.044,62.232c-11.365,14.658-26.834,21.986-46.406,21.986
					c-9.073,0-16.568-1.34-22.487-4.012v-27.93c5.919,4.297,13.367,6.445,22.344,6.445c23.297,0,34.948-19.572,34.948-58.723
					V134.485h28.646V275.853z"/>
				<path d="M290.956,276.562c0,26.832-5.683,47.576-17.044,62.232c-11.365,14.658-26.834,21.986-46.406,21.986
					c-9.073,0-16.568-1.34-22.487-4.012v-27.93c5.919,4.297,13.367,6.445,22.344,6.445c23.297,0,34.948-19.572,34.948-58.723
					V135.194h28.646V276.562z"/>
				<path d="M291.664,277.269c0,26.834-5.683,47.578-17.044,62.234c-11.365,14.658-26.834,21.984-46.406,21.984
					c-9.073,0-16.568-1.338-22.487-4.01v-27.93c5.919,4.297,13.367,6.445,22.344,6.445c23.297,0,34.948-19.574,34.948-58.725
					V135.902h28.646V277.269z"/>
				<path d="M292.373,277.978c0,26.834-5.683,47.578-17.044,62.234c-11.365,14.658-26.834,21.984-46.406,21.984
					c-9.073,0-16.568-1.338-22.487-4.01v-27.93c5.919,4.297,13.367,6.445,22.344,6.445c23.297,0,34.948-19.574,34.948-58.725
					V136.611h28.646V277.978z"/>
				<path d="M293.081,278.687c0,26.832-5.683,47.576-17.044,62.232c-11.365,14.658-26.834,21.986-46.406,21.986
					c-9.073,0-16.568-1.34-22.487-4.012v-27.93c5.919,4.297,13.367,6.445,22.344,6.445c23.297,0,34.948-19.572,34.948-58.723
					V137.319h28.646V278.687z"/>
				<path d="M293.79,279.396c0,26.832-5.683,47.576-17.044,62.232c-11.365,14.658-26.834,21.986-46.406,21.986
					c-9.073,0-16.568-1.34-22.487-4.012v-27.93c5.919,4.297,13.367,6.445,22.344,6.445c23.297,0,34.948-19.572,34.948-58.723
					V138.028h28.646V279.396z"/>
				<path d="M294.498,280.105c0,26.832-5.682,47.576-17.044,62.232c-11.364,14.658-26.833,21.984-46.406,21.984
					c-9.072,0-16.567-1.338-22.486-4.01v-27.93c5.919,4.297,13.367,6.445,22.344,6.445c23.297,0,34.947-19.572,34.947-58.723
					V138.737h28.646V280.105z"/>
				<path d="M295.207,280.812c0,26.834-5.683,47.578-17.044,62.234c-11.365,14.658-26.834,21.984-46.406,21.984
					c-9.073,0-16.568-1.338-22.487-4.01v-27.93c5.919,4.297,13.367,6.445,22.344,6.445c23.297,0,34.948-19.574,34.948-58.725
					V139.445h28.646V280.812z"/>
				<path d="M295.915,281.521c0,26.834-5.682,47.576-17.044,62.232c-11.364,14.66-26.833,21.986-46.406,21.986
					c-9.072,0-16.567-1.338-22.486-4.01V333.8c5.919,4.297,13.367,6.445,22.344,6.445c23.297,0,34.947-19.574,34.947-58.725V140.154
					h28.646V281.521z"/>
				<path d="M296.624,282.23c0,26.832-5.683,47.576-17.044,62.232c-11.365,14.658-26.834,21.986-46.406,21.986
					c-9.073,0-16.568-1.34-22.487-4.012v-27.93c5.919,4.297,13.367,6.445,22.344,6.445c23.297,0,34.948-19.572,34.948-58.723
					V140.862h28.646V282.23z"/>
				<path d="M297.332,282.939c0,26.832-5.682,47.576-17.044,62.232c-11.364,14.658-26.833,21.984-46.406,21.984
					c-9.072,0-16.567-1.338-22.486-4.01v-27.93c5.919,4.297,13.367,6.445,22.344,6.445c23.297,0,34.947-19.572,34.947-58.723
					V141.571h28.646V282.939z"/>
				<path d="M298.041,283.646c0,26.834-5.683,47.578-17.044,62.234c-11.365,14.658-26.834,21.984-46.406,21.984
					c-9.073,0-16.568-1.338-22.487-4.01v-27.93c5.919,4.297,13.367,6.445,22.344,6.445c23.297,0,34.948-19.574,34.948-58.725
					V142.279h28.646V283.646z"/>
				<path d="M298.749,284.355c0,26.834-5.682,47.576-17.044,62.232c-11.364,14.66-26.833,21.986-46.406,21.986
					c-9.072,0-16.567-1.338-22.486-4.01v-27.93c5.919,4.297,13.367,6.445,22.344,6.445c23.297,0,34.947-19.574,34.947-58.725
					V142.988h28.646V284.355z"/>
				<path d="M299.458,285.064c0,26.832-5.683,47.576-17.044,62.232c-11.365,14.658-26.834,21.986-46.406,21.986
					c-9.073,0-16.568-1.34-22.487-4.012v-27.93c5.919,4.297,13.367,6.445,22.344,6.445c23.297,0,34.948-19.572,34.948-58.723
					V143.696h28.646V285.064z"/>
				<path d="M300.167,285.773c0,26.832-5.683,47.576-17.044,62.232c-11.365,14.658-26.834,21.986-46.406,21.986
					c-9.073,0-16.568-1.34-22.487-4.012v-27.93c5.919,4.297,13.367,6.445,22.344,6.445c23.297,0,34.948-19.572,34.948-58.723
					V144.405h28.646V285.773z"/>
				<path d="M300.875,286.48c0,26.834-5.683,47.578-17.044,62.234c-11.365,14.658-26.834,21.984-46.406,21.984
					c-9.073,0-16.568-1.338-22.487-4.01v-27.93c5.919,4.297,13.367,6.445,22.344,6.445c23.297,0,34.948-19.574,34.948-58.725
					V145.113h28.646V286.48z"/>
				<path d="M301.584,287.189c0,26.834-5.683,47.578-17.044,62.234c-11.365,14.658-26.834,21.984-46.406,21.984
					c-9.073,0-16.568-1.338-22.487-4.01v-27.93c5.919,4.297,13.367,6.445,22.344,6.445c23.297,0,34.948-19.574,34.948-58.725
					V145.822h28.646V287.189z"/>
				<path d="M302.292,287.898c0,26.832-5.683,47.576-17.044,62.232c-11.365,14.658-26.834,21.986-46.406,21.986
					c-9.073,0-16.568-1.34-22.487-4.012v-27.93c5.919,4.297,13.367,6.445,22.344,6.445c23.297,0,34.948-19.572,34.948-58.723V146.53
					h28.646V287.898z"/>
				<path d="M303.001,288.607c0,26.832-5.683,47.576-17.044,62.232c-11.365,14.658-26.834,21.986-46.406,21.986
					c-9.073,0-16.568-1.34-22.487-4.012v-27.93c5.919,4.297,13.367,6.445,22.344,6.445c23.297,0,34.948-19.572,34.948-58.723
					V147.239h28.646V288.607z"/>
				<path d="M303.709,289.314c0,26.834-5.683,47.578-17.044,62.234c-11.365,14.658-26.834,21.984-46.406,21.984
					c-9.073,0-16.568-1.338-22.487-4.01v-27.93c5.919,4.297,13.367,6.445,22.344,6.445c23.297,0,34.948-19.574,34.948-58.725
					V147.947h28.646V289.314z"/>
				<path d="M304.418,290.023c0,26.834-5.683,47.578-17.044,62.234c-11.365,14.658-26.834,21.984-46.406,21.984
					c-9.073,0-16.568-1.338-22.487-4.01v-27.93c5.919,4.297,13.367,6.445,22.344,6.445c23.297,0,34.948-19.574,34.948-58.725
					V148.656h28.646V290.023z"/>
				<path d="M305.126,290.732c0,26.834-5.682,47.576-17.044,62.232c-11.364,14.66-26.833,21.986-46.406,21.986
					c-9.072,0-16.567-1.338-22.486-4.01v-27.93c5.919,4.297,13.367,6.445,22.344,6.445c23.297,0,34.947-19.574,34.947-58.725
					V149.365h28.646V290.732z"/>
				<path d="M305.835,291.441c0,26.832-5.683,47.576-17.044,62.232c-11.365,14.658-26.834,21.986-46.406,21.986
					c-9.073,0-16.568-1.34-22.487-4.012v-27.93c5.919,4.297,13.367,6.445,22.344,6.445c23.297,0,34.948-19.572,34.948-58.723
					V150.073h28.646V291.441z"/>
				<path d="M306.543,292.15c0,26.832-5.682,47.576-17.044,62.232c-11.364,14.658-26.833,21.984-46.406,21.984
					c-9.072,0-16.567-1.338-22.486-4.01v-27.93c5.919,4.297,13.367,6.445,22.344,6.445c23.297,0,34.947-19.572,34.947-58.723
					V150.782h28.646V292.15z"/>
				<path d="M307.252,292.857c0,26.834-5.683,47.578-17.044,62.234c-11.365,14.658-26.834,21.984-46.406,21.984
					c-9.073,0-16.568-1.338-22.487-4.01v-27.93c5.919,4.297,13.367,6.445,22.344,6.445c23.297,0,34.948-19.574,34.948-58.725V151.49
					h28.646V292.857z"/>
				<path d="M307.96,293.566c0,26.834-5.682,47.576-17.044,62.232c-11.364,14.66-26.833,21.986-46.406,21.986
					c-9.072,0-16.567-1.338-22.486-4.01v-27.93c5.919,4.297,13.367,6.445,22.344,6.445c23.297,0,34.947-19.574,34.947-58.725
					V152.199h28.646V293.566z"/>
				<path d="M308.669,294.275c0,26.832-5.683,47.576-17.044,62.232c-11.365,14.658-26.834,21.986-46.406,21.986
					c-9.073,0-16.568-1.34-22.487-4.012v-27.93c5.919,4.297,13.367,6.445,22.344,6.445c23.297,0,34.948-19.572,34.948-58.723
					V152.907h28.646V294.275z"/>
				<path d="M309.378,294.984c0,26.832-5.683,47.576-17.044,62.232c-11.365,14.658-26.834,21.986-46.406,21.986
					c-9.073,0-16.568-1.34-22.487-4.012v-27.93c5.919,4.297,13.367,6.445,22.344,6.445c23.297,0,34.948-19.572,34.948-58.723
					V153.616h28.646V294.984z"/>
				<path d="M310.086,295.691c0,26.834-5.683,47.578-17.044,62.234c-11.365,14.658-26.834,21.984-46.406,21.984
					c-9.073,0-16.568-1.338-22.487-4.01v-27.93c5.919,4.297,13.367,6.445,22.344,6.445c23.297,0,34.948-19.574,34.948-58.725
					V154.324h28.646V295.691z"/>
				<path d="M310.795,296.4c0,26.834-5.683,47.578-17.044,62.234c-11.365,14.658-26.834,21.984-46.406,21.984
					c-9.073,0-16.568-1.338-22.487-4.01v-27.93c5.919,4.297,13.367,6.445,22.344,6.445c23.297,0,34.948-19.574,34.948-58.725
					V155.033h28.646V296.4z"/>
				<path d="M311.503,297.109c0,26.832-5.683,47.576-17.044,62.232c-11.365,14.658-26.834,21.986-46.406,21.986
					c-9.073,0-16.568-1.34-22.487-4.012v-27.93c5.919,4.297,13.367,6.445,22.344,6.445c23.297,0,34.948-19.572,34.948-58.723
					V155.741h28.646V297.109z"/>
				<path d="M312.212,297.818c0,26.832-5.683,47.576-17.044,62.232c-11.365,14.658-26.834,21.986-46.406,21.986
					c-9.073,0-16.568-1.34-22.487-4.012v-27.93c5.919,4.297,13.367,6.445,22.344,6.445c23.297,0,34.948-19.572,34.948-58.723V156.45
					h28.646V297.818z"/>
				<path d="M312.92,298.525c0,26.834-5.683,47.578-17.044,62.234c-11.365,14.658-26.834,21.984-46.406,21.984
					c-9.073,0-16.568-1.338-22.487-4.01v-27.93c5.919,4.297,13.367,6.445,22.344,6.445c23.297,0,34.948-19.574,34.948-58.725
					V157.158h28.646V298.525z"/>
				<path d="M313.629,299.234c0,26.834-5.683,47.578-17.044,62.234c-11.365,14.658-26.834,21.984-46.406,21.984
					c-9.073,0-16.568-1.338-22.487-4.01v-27.93c5.919,4.297,13.367,6.445,22.344,6.445c23.297,0,34.948-19.574,34.948-58.725
					V157.867h28.646V299.234z"/>
				<path d="M314.337,299.943c0,26.832-5.683,47.576-17.044,62.232c-11.365,14.658-26.834,21.986-46.406,21.986
					c-9.073,0-16.568-1.34-22.487-4.012v-27.93c5.919,4.297,13.367,6.445,22.344,6.445c23.297,0,34.948-19.572,34.948-58.723
					V158.575h28.646V299.943z"/>
				<path d="M315.046,300.652c0,26.832-5.683,47.576-17.044,62.232c-11.365,14.658-26.834,21.986-46.406,21.986
					c-9.073,0-16.568-1.34-22.487-4.012v-27.93c5.919,4.297,13.367,6.445,22.344,6.445c23.297,0,34.948-19.572,34.948-58.723
					V159.284h28.646V300.652z"/>
				<path d="M315.754,301.361c0,26.832-5.682,47.576-17.044,62.232c-11.364,14.658-26.833,21.984-46.406,21.984
					c-9.072,0-16.567-1.338-22.486-4.01v-27.93c5.919,4.297,13.367,6.445,22.344,6.445c23.297,0,34.947-19.572,34.947-58.723
					V159.993h28.646V301.361z"/>
				<path d="M316.463,302.068c0,26.834-5.683,47.578-17.044,62.234c-11.365,14.658-26.834,21.984-46.406,21.984
					c-9.073,0-16.568-1.338-22.487-4.01v-27.93c5.919,4.297,13.367,6.445,22.344,6.445c23.297,0,34.948-19.574,34.948-58.725
					V160.701h28.646V302.068z"/>
				<path d="M317.171,302.777c0,26.834-5.682,47.576-17.044,62.232c-11.364,14.66-26.833,21.986-46.406,21.986
					c-9.072,0-16.567-1.338-22.486-4.01v-27.93c5.919,4.297,13.367,6.445,22.344,6.445c23.297,0,34.947-19.574,34.947-58.725V161.41
					h28.646V302.777z"/>
				<path d="M317.88,303.486c0,26.832-5.683,47.576-17.044,62.232c-11.365,14.658-26.834,21.986-46.406,21.986
					c-9.073,0-16.568-1.34-22.487-4.012v-27.93c5.919,4.297,13.367,6.445,22.344,6.445c23.297,0,34.948-19.572,34.948-58.723
					V162.118h28.646V303.486z"/>
				<path d="M318.589,304.195c0,26.832-5.683,47.576-17.044,62.232c-11.365,14.658-26.834,21.986-46.406,21.986
					c-9.073,0-16.568-1.34-22.487-4.012v-27.93c5.919,4.297,13.367,6.445,22.344,6.445c23.297,0,34.948-19.572,34.948-58.723
					V162.827h28.646V304.195z"/>
				<path d="M319.297,304.902c0,26.834-5.683,47.578-17.044,62.234c-11.365,14.658-26.834,21.984-46.406,21.984
					c-9.073,0-16.568-1.338-22.487-4.01v-27.93c5.919,4.297,13.367,6.445,22.344,6.445c23.297,0,34.948-19.574,34.948-58.725
					V163.535h28.646V304.902z"/>
				<path d="M320.006,305.611c0,26.834-5.683,47.578-17.044,62.234c-11.365,14.658-26.834,21.984-46.406,21.984
					c-9.073,0-16.568-1.338-22.487-4.01v-27.93c5.919,4.297,13.367,6.445,22.344,6.445c23.297,0,34.948-19.574,34.948-58.725
					V164.244h28.646V305.611z"/>
				<path d="M320.714,306.32c0,26.832-5.683,47.576-17.044,62.232c-11.365,14.658-26.834,21.986-46.406,21.986
					c-9.073,0-16.568-1.34-22.487-4.012v-27.93c5.919,4.297,13.367,6.445,22.344,6.445c23.297,0,34.948-19.572,34.948-58.723
					V164.953h28.646V306.32z"/>
				<path d="M321.423,307.029c0,26.832-5.683,47.576-17.044,62.232c-11.365,14.658-26.834,21.986-46.406,21.986
					c-9.073,0-16.568-1.34-22.487-4.012v-27.93c5.919,4.297,13.367,6.445,22.344,6.445c23.297,0,34.948-19.572,34.948-58.723
					V165.662h28.646V307.029z"/>
				<path d="M322.131,307.736c0,26.834-5.683,47.578-17.044,62.234c-11.365,14.658-26.834,21.984-46.406,21.984
					c-9.073,0-16.568-1.338-22.487-4.01v-27.93c5.919,4.297,13.367,6.445,22.344,6.445c23.297,0,34.948-19.574,34.948-58.725
					V166.369h28.646V307.736z"/>
				<path d="M322.84,308.445c0,26.834-5.683,47.578-17.044,62.234c-11.365,14.658-26.834,21.984-46.406,21.984
					c-9.073,0-16.568-1.338-22.487-4.01v-27.93c5.919,4.297,13.367,6.445,22.344,6.445c23.297,0,34.948-19.574,34.948-58.725
					V167.078h28.646V308.445z"/>
				<path d="M323.548,309.154c0,26.832-5.683,47.576-17.044,62.232c-11.365,14.658-26.834,21.986-46.406,21.986
					c-9.073,0-16.568-1.34-22.487-4.012v-27.93c5.919,4.297,13.367,6.445,22.344,6.445c23.297,0,34.948-19.572,34.948-58.723
					V167.787h28.646V309.154z"/>
				<path d="M324.257,309.863c0,26.832-5.683,47.576-17.044,62.232c-11.365,14.658-26.834,21.986-46.406,21.986
					c-9.073,0-16.568-1.34-22.487-4.012v-27.93c5.919,4.297,13.367,6.445,22.344,6.445c23.297,0,34.948-19.572,34.948-58.723
					V168.496h28.646V309.863z"/>
				<path d="M324.965,310.57c0,26.834-5.683,47.578-17.044,62.234c-11.365,14.658-26.834,21.984-46.406,21.984
					c-9.073,0-16.568-1.338-22.487-4.01v-27.93c5.919,4.297,13.367,6.445,22.344,6.445c23.297,0,34.948-19.574,34.948-58.725
					V169.203h28.646V310.57z"/>
				<path d="M325.674,311.279c0,26.834-5.683,47.578-17.044,62.234c-11.365,14.658-26.834,21.984-46.406,21.984
					c-9.073,0-16.568-1.338-22.487-4.01v-27.93c5.919,4.297,13.367,6.445,22.344,6.445c23.297,0,34.948-19.574,34.948-58.725
					V169.912h28.646V311.279z"/>
				<path d="M326.382,311.988c0,26.834-5.682,47.576-17.044,62.232c-11.364,14.66-26.833,21.986-46.406,21.986
					c-9.072,0-16.567-1.338-22.486-4.01v-27.93c5.919,4.297,13.367,6.445,22.344,6.445c23.297,0,34.947-19.574,34.947-58.725
					V170.621h28.646V311.988z"/>
				<path d="M327.091,312.697c0,26.832-5.683,47.576-17.044,62.232c-11.365,14.658-26.834,21.986-46.406,21.986
					c-9.073,0-16.568-1.34-22.487-4.012v-27.93c5.919,4.297,13.367,6.445,22.344,6.445c23.297,0,34.948-19.572,34.948-58.723V171.33
					h28.646V312.697z"/>
				<path d="M327.8,313.406c0,26.832-5.683,47.576-17.044,62.232c-11.365,14.658-26.834,21.986-46.406,21.986
					c-9.073,0-16.568-1.34-22.487-4.012v-27.93c5.919,4.297,13.367,6.445,22.344,6.445c23.297,0,34.948-19.572,34.948-58.723
					V172.039H327.8V313.406z"/>
				<path d="M328.508,314.113c0,26.834-5.683,47.578-17.044,62.234c-11.365,14.658-26.834,21.984-46.406,21.984
					c-9.073,0-16.568-1.338-22.487-4.01v-27.93c5.919,4.297,13.367,6.445,22.344,6.445c23.297,0,34.948-19.574,34.948-58.725
					V172.746h28.646V314.113z"/>
				<path d="M329.217,314.822c0,26.834-5.683,47.578-17.044,62.234c-11.365,14.658-26.834,21.984-46.406,21.984
					c-9.073,0-16.568-1.338-22.487-4.01v-27.93c5.919,4.297,13.367,6.445,22.344,6.445c23.297,0,34.948-19.574,34.948-58.725
					V173.455h28.646V314.822z"/>
				<path d="M329.925,315.531c0,26.832-5.683,47.576-17.044,62.232c-11.365,14.658-26.834,21.986-46.406,21.986
					c-9.073,0-16.568-1.34-22.487-4.012v-27.93c5.919,4.297,13.367,6.445,22.344,6.445c23.297,0,34.948-19.572,34.948-58.723
					V174.164h28.646V315.531z"/>
				<path d="M330.634,316.24c0,26.832-5.683,47.576-17.044,62.232c-11.365,14.658-26.834,21.986-46.406,21.986
					c-9.073,0-16.568-1.34-22.487-4.012v-27.93c5.919,4.297,13.367,6.445,22.344,6.445c23.297,0,34.948-19.572,34.948-58.723
					V174.873h28.646V316.24z"/>
				<path d="M331.342,316.947c0,26.834-5.683,47.578-17.044,62.234c-11.365,14.658-26.834,21.984-46.406,21.984
					c-9.073,0-16.568-1.338-22.487-4.01v-27.93c5.919,4.297,13.367,6.445,22.344,6.445c23.297,0,34.948-19.574,34.948-58.725V175.58
					h28.646V316.947z"/>
				<path d="M332.051,317.656c0,26.834-5.683,47.578-17.044,62.234c-11.365,14.658-26.834,21.984-46.406,21.984
					c-9.073,0-16.568-1.338-22.487-4.01v-27.93c5.919,4.297,13.367,6.445,22.344,6.445c23.297,0,34.948-19.574,34.948-58.725
					V176.289h28.646V317.656z"/>
				<path d="M332.759,318.365c0,26.832-5.683,47.576-17.044,62.232c-11.365,14.658-26.834,21.986-46.406,21.986
					c-9.073,0-16.568-1.34-22.487-4.012v-27.93c5.919,4.297,13.367,6.445,22.344,6.445c23.297,0,34.948-19.572,34.948-58.723
					V176.998h28.646V318.365z"/>
				<path d="M333.468,319.074c0,26.832-5.683,47.576-17.044,62.232c-11.365,14.658-26.834,21.986-46.406,21.986
					c-9.073,0-16.568-1.34-22.487-4.012v-27.93c5.919,4.297,13.367,6.445,22.344,6.445c23.297,0,34.948-19.572,34.948-58.723
					V177.707h28.646V319.074z"/>
				<path d="M334.176,319.781c0,26.834-5.683,47.578-17.044,62.234C305.767,396.673,290.298,404,270.726,404
					c-9.073,0-16.568-1.338-22.487-4.01v-27.93c5.919,4.297,13.367,6.445,22.344,6.445c23.297,0,34.948-19.574,34.948-58.725
					V178.414h28.646V319.781z"/>
				<path d="M334.885,320.49c0,26.834-5.683,47.578-17.044,62.234c-11.365,14.658-26.834,21.984-46.406,21.984
					c-9.073,0-16.568-1.338-22.487-4.01v-27.93c5.919,4.297,13.367,6.445,22.344,6.445c23.297,0,34.948-19.574,34.948-58.725
					V179.123h28.646V320.49z"/>
				<path d="M335.593,321.199c0,26.832-5.683,47.576-17.044,62.232c-11.365,14.658-26.834,21.986-46.406,21.986
					c-9.073,0-16.568-1.34-22.487-4.012v-27.93c5.919,4.297,13.367,6.445,22.344,6.445c23.297,0,34.948-19.572,34.948-58.723
					V179.832h28.646V321.199z"/>
				<g>
					<path d="M336.302,321.908c0,26.832-5.683,47.576-17.044,62.232c-11.365,14.658-26.834,21.986-46.406,21.986
						c-9.073,0-16.568-1.34-22.487-4.012v-27.93c5.919,4.297,13.367,6.445,22.344,6.445c23.297,0,34.948-19.572,34.948-58.723
						V180.541h28.646V321.908z"/>
				</g>
			</g>
		</g>
		<g>
			<path fill="#D95338" d="M189.635,175.242c0,26.832-5.682,47.576-17.044,62.232c-11.364,14.658-26.833,21.984-46.406,21.984
				c-9.072,0-16.567-1.338-22.486-4.01v-27.93c5.919,4.297,13.367,6.445,22.344,6.445c23.297,0,34.947-19.572,34.947-58.723V33.874
				h28.646V175.242z"/>
		</g>
	</g>
</g>
</svg>
